<?xml version="1.0" encoding="utf-8" ?>
<svg xmlns="http://www.w3.org/2000/svg" xmlns:xlink="http://www.w3.org/1999/xlink" width="945" height="503">
	<rect fill="white" width="945" height="503"/>
	<clipPath id="cl_1b">
		<rect width="945" height="503"/>
	</clipPath>
	<g clip-path="url(#cl_1b)">
		<path fill="none" stroke="#00008B" stroke-width="1" stroke-miterlimit="10" stroke-opacity="0.078431375" d="M89.8635 39.7366L89.8635 452.685M134.768 39.7366L134.768 452.685M169.599 39.7366L169.599 452.685M198.057 39.7366L198.057 452.685M222.119 39.7366L222.119 452.685M242.962 39.7366L242.962 452.685M261.347 39.7366L261.347 452.685M277.793 39.7366L277.793 452.685M385.987 39.7366L385.987 452.685M449.276 39.7366L449.276 452.685M494.181 39.7366L494.181 452.685M529.011 39.7366L529.011 452.685M557.47 39.7366L557.47 452.685M581.531 39.7366L581.531 452.685M602.375 39.7366L602.375 452.685M620.759 39.7366L620.759 452.685M637.205 39.7366L637.205 452.685M745.399 39.7366L745.399 452.685M808.689 39.7366L808.689 452.685M853.593 39.7366L853.593 452.685M888.424 39.7366L888.424 452.685M916.883 39.7366L916.883 452.685"/>
		<path fill="none" stroke="#D9D9D9" stroke-width="1" stroke-miterlimit="10" d="M89.8635 448.685L89.8635 452.685M134.768 448.685L134.768 452.685M169.599 448.685L169.599 452.685M198.057 448.685L198.057 452.685M222.119 448.685L222.119 452.685M242.962 448.685L242.962 452.685M261.347 448.685L261.347 452.685M277.793 448.685L277.793 452.685M385.987 448.685L385.987 452.685M449.276 448.685L449.276 452.685M494.181 448.685L494.181 452.685M529.011 448.685L529.011 452.685M557.47 448.685L557.47 452.685M581.531 448.685L581.531 452.685M602.375 448.685L602.375 452.685M620.759 448.685L620.759 452.685M637.205 448.685L637.205 452.685M745.399 448.685L745.399 452.685M808.689 448.685L808.689 452.685M853.593 448.685L853.593 452.685M888.424 448.685L888.424 452.685M916.883 448.685L916.883 452.685"/>
		<path fill="none" stroke="#00008B" stroke-width="1" stroke-miterlimit="10" stroke-opacity="0.078431375" d="M61.4048 442.819L929.376 442.819M61.4048 431.732L929.376 431.732M61.4048 423.132L929.376 423.132M61.4048 416.105L929.376 416.105M61.4048 410.163L929.376 410.163M61.4048 405.017L929.376 405.017M61.4048 400.477L929.376 400.477M61.4048 396.417L929.376 396.417M61.4048 369.702L929.376 369.702M61.4048 354.075L929.376 354.075M61.4048 342.987L929.376 342.987M61.4048 334.387L929.376 334.387M61.4048 327.36L929.376 327.36M61.4048 321.418L929.376 321.418M61.4048 316.272L929.376 316.272M61.4048 311.732L929.376 311.732M61.4048 307.672L929.376 307.672M61.4048 280.957L929.376 280.957M61.4048 265.33L929.376 265.33M61.4048 254.242L929.376 254.242M61.4048 245.642L929.376 245.642M61.4048 238.615L929.376 238.615M61.4048 232.673L929.376 232.673M61.4048 227.527L929.376 227.527M61.4048 222.987L929.376 222.987M61.4048 218.927L929.376 218.927M61.4048 192.212L929.376 192.212M61.4048 176.585L929.376 176.585M61.4048 165.497L929.376 165.497M61.4048 156.897L929.376 156.897M61.4048 149.87L929.376 149.87M61.4048 143.929L929.376 143.929M61.4048 138.782L929.376 138.782M61.4048 134.243L929.376 134.243M61.4048 130.182L929.376 130.182M61.4048 103.467L929.376 103.467M61.4048 87.8397L929.376 87.8397M61.4048 76.752L929.376 76.752M61.4048 68.1517L929.376 68.1517M61.4048 61.1248L929.376 61.1248M61.4048 55.1836L929.376 55.1836M61.4048 50.0371L929.376 50.0371M61.4048 45.4975L929.376 45.4975M61.4048 41.4368L929.376 41.4368"/>
		<path fill="none" stroke="#D9D9D9" stroke-width="1" stroke-miterlimit="10" d="M65.4048 442.819L61.4048 442.819M65.4048 431.732L61.4048 431.732M65.4048 423.132L61.4048 423.132M65.4048 416.105L61.4048 416.105M65.4048 410.163L61.4048 410.163M65.4048 405.017L61.4048 405.017M65.4048 400.477L61.4048 400.477M65.4048 396.417L61.4048 396.417M65.4048 369.702L61.4048 369.702M65.4048 354.075L61.4048 354.075M65.4048 342.987L61.4048 342.987M65.4048 334.387L61.4048 334.387M65.4048 327.36L61.4048 327.36M65.4048 321.418L61.4048 321.418M65.4048 316.272L61.4048 316.272M65.4048 311.732L61.4048 311.732M65.4048 307.672L61.4048 307.672M65.4048 280.957L61.4048 280.957M65.4048 265.33L61.4048 265.33M65.4048 254.242L61.4048 254.242M65.4048 245.642L61.4048 245.642M65.4048 238.615L61.4048 238.615M65.4048 232.673L61.4048 232.673M65.4048 227.527L61.4048 227.527M65.4048 222.987L61.4048 222.987M65.4048 218.927L61.4048 218.927M65.4048 192.212L61.4048 192.212M65.4048 176.585L61.4048 176.585M65.4048 165.497L61.4048 165.497M65.4048 156.897L61.4048 156.897M65.4048 149.87L61.4048 149.87M65.4048 143.929L61.4048 143.929M65.4048 138.782L61.4048 138.782M65.4048 134.243L61.4048 134.243M65.4048 130.182L61.4048 130.182M65.4048 103.467L61.4048 103.467M65.4048 87.8397L61.4048 87.8397M65.4048 76.752L61.4048 76.752M65.4048 68.1517L61.4048 68.1517M65.4048 61.1248L61.4048 61.1248M65.4048 55.1836L61.4048 55.1836M65.4048 50.0371L61.4048 50.0371M65.4048 45.4975L61.4048 45.4975M65.4048 41.4368L61.4048 41.4368"/>
		<text transform="translate(277.793 456.685)" font-size="13" font-family="Microsoft YaHei, 微软雅黑" x="-3.8117676, " y="13.755371, ">
				1
		</text>
		<text transform="translate(637.205 456.685)" font-size="13" font-family="Microsoft YaHei, 微软雅黑" x="-7.6235352, 0, " y="13.755371, ">
				10
		</text>
		<path fill="none" stroke="#00008B" stroke-width="1" stroke-miterlimit="10" stroke-opacity="0.11764706" d="M277.793 39.7366L277.793 452.685M637.205 39.7366L637.205 452.685"/>
		<path fill="none" stroke="#D9D9D9" stroke-width="1" stroke-miterlimit="10" d="M277.793 445.685L277.793 452.685M637.205 445.685L637.205 452.685"/>
		<text transform="translate(495.391 491)" font-size="13" font-family="Microsoft YaHei, 微软雅黑" x="-46.667969, -39.761719, -34.797852, -27.421875, -19.106445, -11.095703, -3.7197266, 4.2910156, 10.810059, 17.690918, 21.537598, 25.879395, 35.934082, 42.326172, " y="-3.4023438, ">
				Frequency (Hz)
		</text>
		<text transform="translate(57.4048 396.417)" font-size="13" font-family="Microsoft YaHei, 微软雅黑" x="-28.24707, -20.623535, -13.247559, -7.6235352, " y="5.1765137, ">
				1e-7
		</text>
		<text transform="translate(57.4048 307.672)" font-size="13" font-family="Microsoft YaHei, 微软雅黑" x="-28.24707, -20.623535, -13.247559, -7.6235352, " y="5.1765137, ">
				1e-6
		</text>
		<text transform="translate(57.4048 218.927)" font-size="13" font-family="Microsoft YaHei, 微软雅黑" x="-28.24707, -20.623535, -13.247559, -7.6235352, " y="5.1765137, ">
				1e-5
		</text>
		<text transform="translate(57.4048 130.182)" font-size="13" font-family="Microsoft YaHei, 微软雅黑" x="-28.24707, -20.623535, -13.247559, -7.6235352, " y="5.1765137, ">
				1e-4
		</text>
		<text transform="translate(57.4048 41.4368)" font-size="13" font-family="Microsoft YaHei, 微软雅黑" x="-28.24707, -20.623535, -13.247559, -7.6235352, " y="5.1765137, ">
				1e-3
		</text>
		<path fill="none" stroke="#00008B" stroke-width="1" stroke-miterlimit="10" stroke-opacity="0.11764706" d="M61.4048 396.417L929.376 396.417M61.4048 307.672L929.376 307.672M61.4048 218.927L929.376 218.927M61.4048 130.182L929.376 130.182M61.4048 41.4368L929.376 41.4368"/>
		<path fill="none" stroke="#D9D9D9" stroke-width="1" stroke-miterlimit="10" d="M68.4048 396.417L61.4048 396.417M68.4048 307.672L61.4048 307.672M68.4048 218.927L61.4048 218.927M68.4048 130.182L61.4048 130.182M68.4048 41.4368L61.4048 41.4368"/>
		<text transform="matrix(0 -1 1 0 12 246.211)" font-size="13" font-family="Microsoft YaHei, 微软雅黑" x="-40.977295, -31.074951, -27.615479, -21.5979, -17.751221, -9.9055176, -2.7199707, 7.5441895, 13.371338, 20.823486, 28.447021, 32.293701, 36.635498, " y="13.755371, ">
				Dis Yaw_T7 ()
		</text>
		<clipPath id="cl_1c">
			<rect x="61.404785" y="39.736572" width="867.97168" height="412.948"/>
		</clipPath>
		<g clip-path="url(#cl_1c)">
			<path fill="none" stroke="#2CA02C" stroke-width="1.5" stroke-linejoin="bevel" d="M61.4048 197.909L169.599 134.835L232.888 114.532L277.793 115.591L312.623 111.633L341.082 112.145L365.144 107.387L385.987 118.143L404.371 116.188L420.817 105.872L435.694 112.146L449.276 118.347L461.77 131.257L473.338 122.952L484.107 115.617L494.181 122.655L503.644 121.423L512.565 128.649L521.005 131.129L529.011 139.434L536.627 141.505L543.888 143.93L550.827 147.632L557.47 154.677L563.842 152.186L569.964 147.468L575.855 149.063L581.531 154.843L587.009 159.425L592.301 158.276L597.419 174.432L602.375 171.122L607.178 167.19L611.838 178.405L616.362 181.149L620.759 179.514L625.036 170.766L629.199 164.888L633.253 170.094L637.205 179.032L641.06 182.825L644.821 181.828L648.494 189.087L652.082 188.915L655.59 185.545L659.021 190.324L662.378 188.154L665.664 181.259L668.882 181.885L672.036 194.678L675.127 185.798L678.158 179.774L681.131 188.519L684.049 187.126L686.913 176.688L689.725 169.589L692.488 179.543L695.203 178.838L697.871 169.799L700.495 173.418L703.075 175.721L705.613 182.869L708.11 175.901L710.568 170.042L712.989 168.725L715.372 171.407L717.719 179.476L720.031 189.147L722.31 191.653L724.556 188.519L726.77 174.266L728.953 174.856L731.106 179.105L733.23 183.165L735.325 189.089L737.393 182.568L739.433 180.509L741.447 186.792L743.436 190.002L745.399 190.978L747.338 187.234L749.253 205.941L751.146 197.746L753.015 196.949L754.862 193.136L756.688 187.544L758.492 188.756L760.276 191.688L762.04 186.25L763.784 182.555L765.509 200.824L767.215 189.004L768.902 185.097L770.572 195.442L772.223 203.141L773.858 188.848L775.475 193.623L777.076 196.777L780.23 203.733L781.783 198.868L783.321 201.456L786.352 210.873L787.846 213.871L789.325 202.179L790.791 199.079L792.243 190.718L793.681 197.682L795.107 203.277L797.919 201.084L799.307 211.395L800.682 215.637L802.045 213.536L803.397 209.483L804.737 200.341L806.065 208.77L807.382 210.369L808.689 213.893L809.984 228.003L811.269 220.496L813.807 216.864L815.061 208.559L816.304 202.559L817.538 215L819.977 225.146L821.182 231.725L822.379 233.472L823.566 224.063L825.913 223.73L827.073 221.185L828.225 231.969L829.369 246.358L830.504 226.633L831.631 221.655L833.861 232.061L834.964 245.44L836.06 259.968L837.147 244.759L838.228 235.264L840.366 239.069L842.475 246.746L843.519 261.414L844.556 259.63L845.587 255.08L846.61 249.004L848.637 252.967L849.641 256.243L850.639 253.902L852.615 253.281L853.593 266.02L854.566 269.199L855.532 262.781L856.493 259.632L857.447 266.644L858.396 272.303L859.339 270.14L860.277 272.284L861.209 277.886L863.972 282.815L864.882 295.057L865.787 297.366L866.686 286.446L867.581 283.186L868.47 296.34L869.355 293.697L870.234 291.531L871.978 288.618L872.843 294.399L873.703 299.6L874.558 305.056L875.409 306.967L876.255 290.627L877.096 292.891L877.933 301.809L878.766 299.108L879.594 301.721L880.417 307.586L881.237 320.739L882.052 318.475L882.863 323.285L883.669 304.014L884.472 301.184L885.27 313.08L887.641 317.406L888.424 307.81L889.977 313.638L890.748 317.464L891.515 326.512L892.278 314.411L893.794 326.808L894.546 320.048L895.294 314.329L896.039 325.369L896.781 333.259L897.519 341.41L898.254 347.452L898.985 341.671L899.712 334.848L900.437 322.842L901.875 331.016L902.59 348.415L903.301 342.464L904.009 335.989L904.713 327.261L905.415 333.885L906.113 337.915L907.501 319.33L908.19 316.654L908.876 327.224L909.559 329.753L910.239 324.254L910.917 335.972L912.262 339.302L912.931 336.319L913.596 341.29L914.259 351.573L916.231 342.309L917.532 348.915L918.178 356.738L918.822 353.281L919.463 345.296L920.101 352.347L921.37 360.904L922.001 367.033L922.629 360.775L923.254 356.452L923.878 362.044L925.116 359.371L925.732 353.418L926.345 361.345L926.956 368.968L927.565 366.931L928.775 362.171L929.376 386.106L929.976 451.374"/>
			<path fill="none" stroke="#FF0037" stroke-width="1.5" stroke-linejoin="bevel" d="M61.4048 220.597L169.599 145.208L232.888 119.057L277.793 118.842L312.623 115.529L341.082 115.643L365.144 111.566L385.987 123.378L404.371 121.851L420.817 111.515L435.694 116.897L449.276 122.735L461.77 135.396L473.338 127.226L484.107 120.039L494.181 127.75L503.644 125.612L512.565 132.551L521.005 134.664L529.011 145.139L536.627 147.314L543.888 150.429L550.827 155.284L557.47 161.765L563.842 157.841L569.964 153.454L575.855 153.409L581.531 160.119L587.009 165.364L592.301 165.34L597.419 180.81L602.375 178.388L607.178 174.071L611.838 182.978L616.362 185.581L620.759 187.739L625.036 179.857L629.199 173.27L633.253 176.096L637.205 185.339L641.06 189.415L644.821 189.797L648.494 195.38L652.082 198.32L655.59 194.64L659.021 199.595L662.378 195L665.664 188.033L668.882 187.587L672.036 198.59L675.127 192.214L678.158 186.6L681.131 196.219L684.049 193.648L686.913 184.053L689.725 177.571L692.488 187.603L695.203 185.764L697.871 177.125L700.495 181.947L703.075 184.548L705.613 192.699L708.11 186.386L710.568 180.487L712.989 178.482L715.372 180.411L717.719 189.962L720.031 200.798L722.31 204.142L724.556 200.845L726.77 183.855L728.953 183.062L731.106 187.757L733.23 186.941L735.325 194.114L737.393 192.177L739.433 189.598L741.447 189.983L743.436 191.271L745.399 193.746L747.338 192.498L749.253 205.848L751.146 196.681L753.015 195.634L756.688 198.113L758.492 205.255L760.276 208.877L762.04 206.618L765.509 223.54L767.215 210.594L768.902 207.737L770.572 218.215L772.223 228.233L773.858 212.246L777.076 218.41L780.23 227.009L781.783 224.206L783.321 230.377L784.844 234.155L786.352 246.005L787.846 257.66L789.325 273.624L790.791 304.015L792.243 307.907L793.681 314.437L795.107 323.518L796.519 299.266L797.919 258.716L799.307 247.684L800.682 244.248L803.397 242.202L804.737 233.064L806.065 235.925L807.382 229.139L809.984 242.234L811.269 234.895L813.807 232.038L815.061 223.273L816.304 218.446L817.538 232.858L818.762 235.152L819.977 242.336L821.182 247.807L822.379 250.643L823.566 242.489L825.913 241.838L827.073 239.667L828.225 250.344L829.369 263.291L830.504 241.67L831.631 235.463L833.861 247.114L834.964 263.084L836.06 277.028L837.147 260.487L838.228 250.941L839.3 254.269L840.366 258.121L842.475 264.804L843.519 278.247L844.556 275.831L845.587 273.55L846.61 270.854L848.637 273.777L849.641 276.202L852.615 279.4L853.593 296.183L854.566 298.823L855.532 287.438L856.493 283.491L857.447 289.41L859.339 285.173L860.277 288.722L861.209 296.205L862.135 291.629L863.056 285.253L863.972 292.233L864.882 303.994L865.787 313.799L866.686 305.776L867.581 292.144L868.47 297.788L869.355 294.863L870.234 298.713L871.108 305.109L871.978 295.979L873.703 298.554L874.558 306.354L875.409 299.867L876.255 282.188L877.096 292.709L877.933 298.327L878.766 294.266L879.594 305.055L880.417 318.008L881.237 324.367L882.052 316.33L882.863 320.005L883.669 305.828L884.472 310.225L885.27 324.687L886.855 322.073L887.641 327.985L888.424 322.91L889.202 318.482L890.748 327.785L891.515 341.512L892.278 326.967L893.794 340.72L894.546 332.708L895.294 329.622L896.039 336.101L896.781 340.375L897.519 355.033L898.254 361.816L898.985 359.431L899.712 354.476L900.437 341.343L901.875 344.975L903.301 342.466L904.009 335.269L904.713 321.229L905.415 315.988L906.113 320.626L906.809 322.98L908.19 327.647L908.876 339.031L909.559 344.47L910.239 334.875L910.917 310.198L911.591 291.493L912.262 274.316L913.596 291.897L914.259 326.314L914.919 308.996L915.576 280.133L916.231 275.064L916.883 286.322L917.532 304.843L918.178 313.172L918.822 322.173L919.463 354.619L920.101 421.927L920.737 448.401L921.37 452.263L922.629 450.687L923.254 455.571L924.498 463.513L925.116 459.548L926.345 470.991L926.956 444.879L927.565 451.243L928.171 454.135L929.376 474.576L929.976 523.555"/>
		</g>
		<text transform="translate(495.391 8)" font-size="13" font-family="Microsoft YaHei, 微软雅黑" x="-389.22876, -380.53247, -377.40308, -371.99487, -362.28931, -356.27173, -348.89575, -343.93188, -337.91431, -332.5061, -327.35815, -319.98218, -315.47534, -310.96851, -306.00464, -298.62866, -291.7478, -286.3396, -276.43726, -269.06128, -263.0437, -255.96606, -251.1228, -242.85815, -234.55542, -229.14722, -221.52368, -213.90015, -206.27661, -198.65308, -195.52368, -187.90015, -180.27661, -174.86841, -167.41626, -159.79272, -153.96558, -150.14429, -141.448, -133.94507, -128.53687, -121.08472, -113.46118, -107.63403, -103.81274, -95.116455, -87.613525, -82.205322, -74.581787, -66.958252, -61.131104, -53.678955, -46.05542, -37.359131, -29.094482, -16.91333, -8.6105957, -0.59985352, 4.2434082, 11.619385, 16.583252, 21.991455, 25.812744, 34.509033, 42.011963, 47.839111, 54.510498, 65.104736, 74.772217, 84.439697, 89.8479, 98.334717, 105.71069, 111.72827, 120.03101, 128.29565, 136.3064, 142.32397, 149.69995, 157.32349, 160.45288, 166.47046, 173.84644, 178.35327, 181.48267, 185.32935, 192.00073, 199.37671, 207.38745, 217.02954, 224.65308, 227.78247, 235.40601, 241.42358, 244.55298, 248.39966, 255.30591, 261.32349, 270.96558, 278.58911, 286.21265, 293.83618, 301.45972, 311.5144, 317.90649, 321.03589, 324.88257, 335.45142, 342.35767, 349.26392, 356.71606, 366.35815, 373.98169, 381.60522, " y="13.755371, ">
				C:\Users\Jeffrey\Desktop\2023.07\T7_ICS\T7_ICS\86_T7Computer\ICS_LOGG\Response2.sef, Len=2.0s, Fs=1000Hz, NFFT=712
		</text>
		<rect fill="none" stroke="black" stroke-width="1" stroke-miterlimit="10" stroke-opacity="0.73725492" x="61.404785" y="39.736572" width="867.97168" height="412.948"/>
		<rect fill="white" fill-opacity="0.39215687" x="630.48077" y="54.736572" width="283.89569" height="44.31543"/>
		<clipPath id="cl_1d">
			<rect x="630.48077" y="54.736572" width="283.89569" height="44.31543"/>
		</clipPath>
		<g clip-path="url(#cl_1d)">
			<text transform="translate(677.481 59.7366)" font-size="13" font-family="Microsoft YaHei, 微软雅黑" x="0, 4.3417969, 8.6835938, 16.135742, 23.321289, 28.285156, 36.600586, 43.976563, 48.819824, 54.443848, 60.067871, 65.691895, 75.594238, 79.053711, 85.071289, 88.917969, 96.763672, 103.94922, " y="13.755371, ">
					[]Target---Dis Yaw
			</text>
			<text transform="translate(793.694 59.7366)" font-size="13" font-family="Microsoft YaHei, 微软雅黑" x="0, 5.8271484, 13.279297, 20.902832, 25.244629, 29.586426, " y="13.755371, ">
					_T7(()
			</text>
			<text transform="translate(827.622 59.7366)" font-size="8.0600004" font-family="Microsoft YaHei, 微软雅黑" x="2.3849416, " y="8.5283308, ">
					2
			</text>
			<text transform="translate(836.734 59.7366)" font-size="13" font-family="Microsoft YaHei, 微软雅黑" x="0, 5.5541992, 9.4008789, 19.455566, 25.847656, 30.189453, 34.036133, 38.37793, " y="13.755371, ">
					/ Hz) ()
			</text>
			<path fill="none" stroke="#2CA02C" stroke-width="1.5" stroke-miterlimit="10" d="M635.481 68.3154L665.481 68.3154"/>
			<text transform="translate(677.481 76.8943)" font-size="13" font-family="Microsoft YaHei, 微软雅黑" x="0, 4.3417969, 8.6835938, 17.830566, 24.349609, 29.192871, 37.203613, 44.38916, 47.848633, 53.472656, 59.09668, 64.720703, 72.674316, 80.938965, 86.956543, 90.416016, 95.259277, 98.71875, 106.9834, 114.99414, 118.84082, 126.68652, 133.87207, " y="13.755371, ">
					[]Actual---Position Yaw
			</text>
			<text transform="translate(823.617 76.8943)" font-size="13" font-family="Microsoft YaHei, 微软雅黑" x="0, 5.8271484, 13.279297, 20.902832, 25.244629, 29.586426, " y="13.755371, ">
					_T7(()
			</text>
			<text transform="translate(857.545 76.8943)" font-size="8.0600004" font-family="Microsoft YaHei, 微软雅黑" x="2.3849416, " y="8.5283308, ">
					2
			</text>
			<text transform="translate(866.657 76.8943)" font-size="13" font-family="Microsoft YaHei, 微软雅黑" x="0, 5.5541992, 9.4008789, 19.455566, 25.847656, 30.189453, 34.036133, 38.37793, " y="13.755371, ">
					/ Hz) ()
			</text>
			<path fill="none" stroke="#FF0037" stroke-width="1.5" stroke-miterlimit="10" d="M635.481 85.4731L665.481 85.4731"/>
		</g>
	</g>
</svg>
