<?xml version="1.0" encoding="utf-8" ?>
<svg xmlns="http://www.w3.org/2000/svg" xmlns:xlink="http://www.w3.org/1999/xlink" width="945" height="503">
	<rect fill="white" width="945" height="503"/>
	<clipPath id="cl_2a">
		<rect width="945" height="503"/>
	</clipPath>
	<g clip-path="url(#cl_2a)">
		<path fill="none" stroke="#00008B" stroke-width="1" stroke-miterlimit="10" stroke-opacity="0.078431375" d="M61.4048 39.7366L61.4048 452.685M94.4597 39.7366L94.4597 452.685M122.407 39.7366L122.407 452.685M146.616 39.7366L146.616 452.685M167.97 39.7366L167.97 452.685M187.072 39.7366L187.072 452.685M312.74 39.7366L312.74 452.685M386.251 39.7366L386.251 452.685M438.407 39.7366L438.407 452.685M478.863 39.7366L478.863 452.685M511.918 39.7366L511.918 452.685M539.866 39.7366L539.866 452.685M564.075 39.7366L564.075 452.685M585.429 39.7366L585.429 452.685M604.531 39.7366L604.531 452.685M730.198 39.7366L730.198 452.685M803.709 39.7366L803.709 452.685M855.866 39.7366L855.866 452.685M896.322 39.7366L896.322 452.685M929.376 39.7366L929.376 452.685"/>
		<path fill="none" stroke="#D9D9D9" stroke-width="1" stroke-miterlimit="10" d="M61.4048 448.685L61.4048 452.685M94.4597 448.685L94.4597 452.685M122.407 448.685L122.407 452.685M146.616 448.685L146.616 452.685M167.97 448.685L167.97 452.685M187.072 448.685L187.072 452.685M312.74 448.685L312.74 452.685M386.251 448.685L386.251 452.685M438.407 448.685L438.407 452.685M478.863 448.685L478.863 452.685M511.918 448.685L511.918 452.685M539.866 448.685L539.866 452.685M564.075 448.685L564.075 452.685M585.429 448.685L585.429 452.685M604.531 448.685L604.531 452.685M730.198 448.685L730.198 452.685M803.709 448.685L803.709 452.685M855.866 448.685L855.866 452.685M896.322 448.685L896.322 452.685M929.376 448.685L929.376 452.685"/>
		<path fill="none" stroke="#00008B" stroke-width="1" stroke-miterlimit="10" stroke-opacity="0.078431375" d="M61.4048 447.333L929.376 447.333M61.4048 441.344L929.376 441.344M61.4048 435.987L929.376 435.987M61.4048 400.742L929.376 400.742M61.4048 380.126L929.376 380.126M61.4048 365.498L929.376 365.498M61.4048 354.152L929.376 354.152M61.4048 344.881L929.376 344.881M61.4048 337.043L929.376 337.043M61.4048 330.254L929.376 330.254M61.4048 324.265L929.376 324.265M61.4048 318.908L929.376 318.908M61.4048 283.663L929.376 283.663M61.4048 263.047L929.376 263.047M61.4048 248.419L929.376 248.419M61.4048 237.073L929.376 237.073M61.4048 227.802L929.376 227.802M61.4048 219.964L929.376 219.964M61.4048 213.175L929.376 213.175M61.4048 207.186L929.376 207.186M61.4048 201.828L929.376 201.828M61.4048 166.584L929.376 166.584M61.4048 145.967L929.376 145.967M61.4048 131.34L929.376 131.34M61.4048 119.994L929.376 119.994M61.4048 110.723L929.376 110.723M61.4048 102.885L929.376 102.885M61.4048 96.0954L929.376 96.0954M61.4048 90.1065L929.376 90.1065M61.4048 84.7492L929.376 84.7492M61.4048 49.5049L929.376 49.5049"/>
		<path fill="none" stroke="#D9D9D9" stroke-width="1" stroke-miterlimit="10" d="M65.4048 447.333L61.4048 447.333M65.4048 441.344L61.4048 441.344M65.4048 435.987L61.4048 435.987M65.4048 400.742L61.4048 400.742M65.4048 380.126L61.4048 380.126M65.4048 365.498L61.4048 365.498M65.4048 354.152L61.4048 354.152M65.4048 344.881L61.4048 344.881M65.4048 337.043L61.4048 337.043M65.4048 330.254L61.4048 330.254M65.4048 324.265L61.4048 324.265M65.4048 318.908L61.4048 318.908M65.4048 283.663L61.4048 283.663M65.4048 263.047L61.4048 263.047M65.4048 248.419L61.4048 248.419M65.4048 237.073L61.4048 237.073M65.4048 227.802L61.4048 227.802M65.4048 219.964L61.4048 219.964M65.4048 213.175L61.4048 213.175M65.4048 207.186L61.4048 207.186M65.4048 201.828L61.4048 201.828M65.4048 166.584L61.4048 166.584M65.4048 145.967L61.4048 145.967M65.4048 131.34L61.4048 131.34M65.4048 119.994L61.4048 119.994M65.4048 110.723L61.4048 110.723M65.4048 102.885L61.4048 102.885M65.4048 96.0954L61.4048 96.0954M65.4048 90.1065L61.4048 90.1065M65.4048 84.7492L61.4048 84.7492M65.4048 49.5049L61.4048 49.5049"/>
		<text transform="translate(187.072 456.685)" font-size="13" font-family="Microsoft YaHei, 微软雅黑" x="-3.8117676, " y="13.755371, ">
				1
		</text>
		<text transform="translate(604.531 456.685)" font-size="13" font-family="Microsoft YaHei, 微软雅黑" x="-7.6235352, 0, " y="13.755371, ">
				10
		</text>
		<path fill="none" stroke="#00008B" stroke-width="1" stroke-miterlimit="10" stroke-opacity="0.11764706" d="M187.072 39.7366L187.072 452.685M604.531 39.7366L604.531 452.685"/>
		<path fill="none" stroke="#D9D9D9" stroke-width="1" stroke-miterlimit="10" d="M187.072 445.685L187.072 452.685M604.531 445.685L604.531 452.685"/>
		<text transform="translate(495.391 491)" font-size="13" font-family="Microsoft YaHei, 微软雅黑" x="-46.667969, -39.761719, -34.797852, -27.421875, -19.106445, -11.095703, -3.7197266, 4.2910156, 10.810059, 17.690918, 21.537598, 25.879395, 35.934082, 42.326172, " y="-3.4023438, ">
				Frequency (Hz)
		</text>
		<text transform="translate(57.4048 435.987)" font-size="13" font-family="Microsoft YaHei, 微软雅黑" x="-28.24707, -20.623535, -13.247559, -7.6235352, " y="5.1765137, ">
				1e-7
		</text>
		<text transform="translate(57.4048 318.908)" font-size="13" font-family="Microsoft YaHei, 微软雅黑" x="-28.24707, -20.623535, -13.247559, -7.6235352, " y="5.1765137, ">
				1e-6
		</text>
		<text transform="translate(57.4048 201.828)" font-size="13" font-family="Microsoft YaHei, 微软雅黑" x="-28.24707, -20.623535, -13.247559, -7.6235352, " y="5.1765137, ">
				1e-5
		</text>
		<text transform="translate(57.4048 84.7492)" font-size="13" font-family="Microsoft YaHei, 微软雅黑" x="-28.24707, -20.623535, -13.247559, -7.6235352, " y="5.1765137, ">
				1e-4
		</text>
		<path fill="none" stroke="#00008B" stroke-width="1" stroke-miterlimit="10" stroke-opacity="0.11764706" d="M61.4048 435.987L929.376 435.987M61.4048 318.908L929.376 318.908M61.4048 201.828L929.376 201.828M61.4048 84.7492L929.376 84.7492"/>
		<path fill="none" stroke="#D9D9D9" stroke-width="1" stroke-miterlimit="10" d="M68.4048 435.987L61.4048 435.987M68.4048 318.908L61.4048 318.908M68.4048 201.828L61.4048 201.828M68.4048 84.7492L61.4048 84.7492"/>
		<text transform="matrix(0 -1 1 0 12 246.211)" font-size="13" font-family="Microsoft YaHei, 微软雅黑" x="-40.977295, -31.074951, -27.615479, -21.5979, -17.751221, -9.9055176, -2.7199707, 7.5441895, 13.371338, 20.823486, 28.447021, 32.293701, 36.635498, " y="13.755371, ">
				Dis Yaw_T7 ()
		</text>
		<clipPath id="cl_2b">
			<rect x="61.404785" y="39.736572" width="867.97168" height="412.948"/>
		</clipPath>
		<g clip-path="url(#cl_2b)">
			<path fill="none" stroke="#2CA02C" stroke-width="1.5" stroke-linejoin="bevel" d="M-64.2627 161.771L61.4048 133.378L134.916 128.835L187.072 136.306L227.528 130.741L260.583 131.425L288.531 125.164L312.74 139.362L334.094 136.781L353.196 123.169L370.475 131.441L386.251 139.623L400.762 156.654L414.198 145.699L426.706 136.022L438.407 145.309L449.399 143.682L459.761 153.216L469.564 156.487L478.863 167.444L487.709 170.176L496.143 173.376L504.202 178.259L511.918 187.554L519.319 184.267L526.43 178.043L533.272 180.147L539.866 187.773L546.228 193.818L552.374 192.302L558.319 213.616L564.075 209.25L569.654 204.062L575.066 218.857L580.321 222.478L585.429 220.321L590.396 208.78L595.231 201.025L599.941 207.893L604.531 219.685L609.007 224.689L613.376 223.374L617.642 232.951L621.81 232.723L625.885 228.277L629.87 234.582L633.769 231.719L637.586 222.622L641.324 223.448L644.987 240.326L648.577 228.611L652.097 220.664L655.551 232.201L658.94 230.363L662.266 216.592L665.533 207.226L668.742 220.359L671.895 219.429L674.994 207.504L678.041 212.279L681.038 215.317L683.986 224.747L686.887 215.555L689.742 207.825L692.553 206.088L695.321 209.625L698.048 220.271L700.734 233.03L703.38 236.336L705.989 232.201L708.561 213.398L711.096 214.175L713.597 219.781L716.064 225.138L718.497 232.952L720.899 224.349L723.269 221.634L725.608 229.923L727.918 234.157L730.198 235.445L732.45 230.506L734.675 255.185L736.873 244.373L739.044 243.323L741.189 238.292L743.31 230.915L745.406 232.514L747.478 236.381L749.527 229.207L751.552 224.333L753.556 248.435L755.537 232.841L757.497 227.686L759.436 241.334L761.355 251.492L763.253 232.635L765.132 238.935L766.991 243.095L768.832 241.709L770.654 252.273L772.458 245.855L774.244 249.268L777.765 261.692L779.5 265.647L781.218 250.222L782.921 246.132L784.607 235.102L786.278 244.289L787.934 251.67L791.201 248.778L792.812 262.381L794.409 267.977L795.993 265.206L797.563 259.858L799.119 247.798L800.662 258.918L802.192 261.028L803.709 265.676L805.214 284.292L806.706 274.388L809.654 269.595L811.11 258.639L812.555 250.724L813.988 267.136L815.41 268.992L816.821 280.522L818.221 289.202L819.61 291.507L820.989 279.094L823.715 278.655L825.063 275.296L826.401 289.524L827.729 308.507L829.048 282.484L830.357 275.917L832.947 289.645L834.228 307.295L835.5 326.461L836.764 306.398L838.018 293.871L840.502 298.89L842.952 309.019L844.165 328.369L845.37 326.015L846.566 320.013L847.755 311.997L850.11 317.225L851.276 321.547L852.434 318.459L854.729 317.639L855.866 334.446L856.995 338.64L858.118 330.172L859.234 326.018L860.342 335.269L861.445 342.735L862.54 339.881L863.629 342.71L864.711 350.101L866.857 349.775L867.92 356.604L868.977 372.754L870.028 375.8L871.073 361.393L872.112 357.093L873.145 374.447L874.173 370.96L875.194 368.102L876.21 369.959L877.22 364.259L878.224 371.886L879.223 378.748L880.216 385.945L881.205 388.466L882.187 366.91L883.165 369.897L884.137 381.662L885.104 378.098L886.065 381.545L887.022 389.284L887.974 406.636L888.921 403.648L889.862 409.994L890.799 384.571L891.731 380.838L892.659 396.531L894.499 395.202L895.413 402.238L896.322 389.578L898.126 397.268L899.021 402.315L899.912 414.252L900.798 398.287L902.559 414.643L903.432 405.725L904.302 398.179L905.167 412.744L906.029 423.153L906.886 433.907L907.739 441.878L908.588 434.251L909.433 425.25L910.275 409.41L911.946 420.195L912.775 443.147L913.601 435.297L914.424 426.755L915.242 415.239L916.057 423.979L916.868 429.294L918.48 404.777L919.28 401.247L920.077 415.189L920.87 418.529L921.66 411.276L922.447 426.73L924.01 431.12L924.786 427.193L925.56 433.74L926.329 447.283L927.859 448.975L928.619 438.999L929.376 466.522L930.13 541.462"/>
			<path fill="none" stroke="#FF0037" stroke-width="1.5" stroke-linejoin="bevel" d="M-64.2627 132.532L61.4048 121.464L134.916 118.82L187.072 129.625L227.528 130.267L260.583 133.037L288.531 124.96L312.74 136.497L334.094 131.995L353.196 122.332L370.475 133.128L386.251 140.065L400.762 160.932L414.198 152.865L426.706 140.775L438.407 147.182L449.399 149.89L459.761 156.081L469.564 152.656L478.863 169.879L487.709 180.047L496.143 174.557L504.202 177.625L511.918 180.036L519.319 174.555L526.43 175.177L533.272 183.009L539.866 194.325L546.228 196.334L552.374 193.275L558.319 217.304L564.075 200.972L569.654 193.536L575.066 206.98L580.321 214.959L585.429 213.862L590.396 200.616L595.231 195.682L599.941 201.604L604.531 220.969L609.007 219.643L613.376 209.893L617.642 221.554L621.81 222.501L625.885 221.708L629.87 223.987L633.769 222.87L637.586 216.284L641.324 219.006L644.987 229.464L648.577 211.588L652.097 208.064L655.551 227.03L658.94 231.387L662.266 213.682L665.533 200.05L668.742 216.526L671.895 211.58L674.994 198.844L678.041 202.218L681.038 204.613L683.986 211.409L686.887 215.58L689.742 202.742L692.553 200.033L695.321 201.083L698.048 210.898L700.734 210.412L703.38 205.525L705.989 215.194L708.561 203.684L711.096 202.173L713.597 204.451L716.064 204.829L718.497 189.617L720.899 179.039L723.269 184.333L725.608 181.563L727.918 174.984L730.198 184.439L732.45 172.092L734.675 155.616L736.873 142.899L739.044 134.281L741.189 116.609L743.31 116.205L745.406 125.794L747.478 152.579L749.527 172.058L751.552 180.017L753.556 194.038L755.537 197.216L757.497 208.365L759.436 218.554L761.355 236.77L763.253 223.35L765.132 228.766L766.991 243.826L768.832 240.106L770.654 250.745L772.458 249.696L776.013 249.662L777.765 258.481L779.5 262.86L781.218 253.547L784.607 241.16L786.278 248.225L787.934 253.7L789.575 260.194L791.201 255.18L792.812 269.368L794.409 275.311L795.993 270.763L797.563 264.428L799.119 257.234L800.662 268.157L802.192 263.853L803.709 268.858L805.214 287.013L806.706 282.195L808.186 285.946L809.654 281.38L811.11 270.135L812.555 260.891L813.988 279.428L816.821 286.82L818.221 294.563L819.61 299.853L820.989 288.646L823.715 288.376L825.063 282.49L826.401 298.596L827.729 318.069L829.048 292.209L830.357 285.291L832.947 299.794L834.228 317.399L835.5 337.103L836.764 318.613L838.018 306.687L840.502 308.22L842.952 318.837L844.165 339.948L845.37 337.027L846.566 328.965L847.755 320.756L848.936 322.656L850.11 328.794L851.276 336.543L853.585 331.601L854.729 328.169L855.866 342.899L856.995 347.635L858.118 342.468L859.234 338.158L860.342 342.592L862.54 339.415L863.629 346.867L864.711 353.259L866.857 356.493L867.92 363.998L868.977 378.181L870.028 380.515L871.073 363.259L872.112 357.857L873.145 373.16L874.173 370.393L875.194 373.347L876.21 376.382L877.22 373.5L878.224 386.718L879.223 390.329L880.216 394.961L882.187 377.21L883.165 385.343L884.137 400.478L885.104 395.141L887.022 401.278L887.974 420.608L889.862 419.772L890.799 395.92L891.731 392.696L892.659 405.375L895.413 414.918L896.322 405.281L897.226 402.579L898.126 408.405L899.021 412.849L899.912 420.55L900.798 407.462L902.559 424.391L903.432 416.336L904.302 410.786L905.167 426.498L906.029 434.916L906.886 437.326L907.739 444.509L908.588 442.238L909.433 436.308L910.275 420.409L911.946 429.197L912.775 452.568L913.601 442.818L914.424 433.63L915.242 425.009L916.057 430.521L916.868 435.738L918.48 413.502L919.28 409.796L920.077 424.907L920.87 429.344L921.66 422.721L922.447 436.954L923.23 439.659L924.01 444.852L924.786 438.499L925.56 442.531L926.329 457.055L927.859 461.435L928.619 453.786L929.376 487.56L930.13 587.961"/>
		</g>
		<text transform="translate(495.391 8)" font-size="13" font-family="Microsoft YaHei, 微软雅黑" x="-389.22876, -380.53247, -377.40308, -371.99487, -362.28931, -356.27173, -348.89575, -343.93188, -337.91431, -332.5061, -327.35815, -319.98218, -315.47534, -310.96851, -306.00464, -298.62866, -291.7478, -286.3396, -276.43726, -269.06128, -263.0437, -255.96606, -251.1228, -242.85815, -234.55542, -229.14722, -221.52368, -213.90015, -206.27661, -198.65308, -195.52368, -187.90015, -180.27661, -174.86841, -167.41626, -159.79272, -153.96558, -150.14429, -141.448, -133.94507, -128.53687, -121.08472, -113.46118, -107.63403, -103.81274, -95.116455, -87.613525, -82.205322, -74.581787, -66.958252, -61.131104, -53.678955, -46.05542, -37.359131, -29.094482, -16.91333, -8.6105957, -0.59985352, 4.2434082, 11.619385, 16.583252, 21.991455, 25.812744, 34.509033, 42.011963, 47.839111, 54.510498, 65.104736, 74.772217, 84.439697, 89.8479, 98.334717, 105.71069, 111.72827, 120.03101, 128.29565, 136.3064, 142.32397, 149.69995, 157.32349, 160.45288, 166.47046, 173.84644, 178.35327, 181.48267, 185.32935, 192.00073, 199.37671, 207.38745, 217.02954, 224.65308, 227.78247, 235.40601, 241.42358, 244.55298, 248.39966, 255.30591, 261.32349, 270.96558, 278.58911, 286.21265, 293.83618, 301.45972, 311.5144, 317.90649, 321.03589, 324.88257, 335.45142, 342.35767, 349.26392, 356.71606, 366.35815, 373.98169, 381.60522, " y="13.755371, ">
				C:\Users\Jeffrey\Desktop\2023.07\T7_ICS\T7_ICS\99_T7Computer\ICS_LOGG\Response2.sef, Len=2.0s, Fs=1000Hz, NFFT=712
		</text>
		<rect fill="none" stroke="black" stroke-width="1" stroke-miterlimit="10" stroke-opacity="0.73725492" x="61.404785" y="39.736572" width="867.97168" height="412.948"/>
		<rect fill="white" fill-opacity="0.39215687" x="635.78107" y="54.736572" width="278.5954" height="44.31543"/>
		<clipPath id="cl_2c">
			<rect x="635.78107" y="54.736572" width="278.5954" height="44.31543"/>
		</clipPath>
		<g clip-path="url(#cl_2c)">
			<text transform="translate(682.781 59.7366)" font-size="13" font-family="Microsoft YaHei, 微软雅黑" x="0, 4.3417969, 8.6835938, 16.135742, 23.321289, 28.285156, 36.600586, 43.976563, 48.819824, 54.443848, 60.067871, 65.691895, 75.594238, 79.053711, 85.071289, 88.917969, 96.763672, 103.94922, " y="13.755371, ">
					[]Target---Dis Yaw
			</text>
			<text transform="translate(798.994 59.7366)" font-size="13" font-family="Microsoft YaHei, 微软雅黑" x="0, 5.8271484, 13.279297, 20.902832, 25.244629, 29.586426, " y="13.755371, ">
					_T7(()
			</text>
			<text transform="translate(832.923 59.7366)" font-size="8.0600004" font-family="Microsoft YaHei, 微软雅黑" x="2.3849416, " y="8.5283308, ">
					2
			</text>
			<text transform="translate(842.034 59.7366)" font-size="13" font-family="Microsoft YaHei, 微软雅黑" x="0, 5.5541992, 9.4008789, 19.455566, 25.847656, 30.189453, 34.036133, 38.37793, " y="13.755371, ">
					/ Hz) ()
			</text>
			<path fill="none" stroke="#2CA02C" stroke-width="1.5" stroke-miterlimit="10" d="M640.781 68.3154L670.781 68.3154"/>
			<text transform="translate(682.781 76.8943)" font-size="13" font-family="Microsoft YaHei, 微软雅黑" x="0, 4.3417969, 8.6835938, 17.830566, 24.349609, 29.192871, 37.203613, 44.38916, 47.848633, 53.472656, 59.09668, 64.720703, 74.623047, 78.08252, 84.100098, 92.402832, 99.550293, 105.56787, 110.41113, 113.54053, 121.38623, 128.57178, " y="13.755371, ">
					[]Actual---DispEst.Yaw
			</text>
			<text transform="translate(823.617 76.8943)" font-size="13" font-family="Microsoft YaHei, 微软雅黑" x="0, 5.8271484, 13.279297, 20.902832, 25.244629, 29.586426, " y="13.755371, ">
					_T7(()
			</text>
			<text transform="translate(857.545 76.8943)" font-size="8.0600004" font-family="Microsoft YaHei, 微软雅黑" x="2.3849416, " y="8.5283308, ">
					2
			</text>
			<text transform="translate(866.657 76.8943)" font-size="13" font-family="Microsoft YaHei, 微软雅黑" x="0, 5.5541992, 9.4008789, 19.455566, 25.847656, 30.189453, 34.036133, 38.37793, " y="13.755371, ">
					/ Hz) ()
			</text>
			<path fill="none" stroke="#FF0037" stroke-width="1.5" stroke-miterlimit="10" d="M640.781 85.4731L670.781 85.4731"/>
		</g>
	</g>
</svg>
