<?xml version="1.0" encoding="utf-8" ?>
<svg xmlns="http://www.w3.org/2000/svg" xmlns:xlink="http://www.w3.org/1999/xlink" width="945" height="503">
	<rect fill="white" width="945" height="503"/>
	<clipPath id="cl_30">
		<rect width="945" height="503"/>
	</clipPath>
	<g clip-path="url(#cl_30)">
		<path fill="none" stroke="#D9D9D9" stroke-width="1" stroke-miterlimit="10" d="M86.8266 448.685L86.8266 452.685M115.88 448.685L115.88 452.685M144.933 448.685L144.933 452.685M173.987 448.685L173.987 452.685M232.094 448.685L232.094 452.685M261.147 448.685L261.147 452.685M290.201 448.685L290.201 452.685M319.254 448.685L319.254 452.685M377.361 448.685L377.361 452.685M406.414 448.685L406.414 452.685M435.468 448.685L435.468 452.685M464.521 448.685L464.521 452.685M522.628 448.685L522.628 452.685M551.682 448.685L551.682 452.685M580.735 448.685L580.735 452.685M609.789 448.685L609.789 452.685M667.895 448.685L667.895 452.685M696.949 448.685L696.949 452.685M726.002 448.685L726.002 452.685M755.056 448.685L755.056 452.685M813.163 448.685L813.163 452.685M842.216 448.685L842.216 452.685M871.27 448.685L871.27 452.685M900.323 448.685L900.323 452.685"/>
		<path fill="none" stroke="#00008B" stroke-width="1" stroke-miterlimit="10" stroke-opacity="0.078431375" d="M61.4048 434.62L929.376 434.62M61.4048 417.118L929.376 417.118M61.4048 404.7L929.376 404.7M61.4048 395.067L929.376 395.067M61.4048 387.197L929.376 387.197M61.4048 380.543L929.376 380.543M61.4048 374.779L929.376 374.779M61.4048 369.695L929.376 369.695M61.4048 365.147L929.376 365.147M61.4048 335.226L929.376 335.226M61.4048 317.723L929.376 317.723M61.4048 305.305L929.376 305.305M61.4048 295.673L929.376 295.673M61.4048 287.803L929.376 287.803M61.4048 281.149L929.376 281.149M61.4048 275.385L929.376 275.385M61.4048 270.3L929.376 270.3M61.4048 265.752L929.376 265.752M61.4048 235.832L929.376 235.832M61.4048 218.329L929.376 218.329M61.4048 205.911L929.376 205.911M61.4048 196.279L929.376 196.279M61.4048 188.408L929.376 188.408M61.4048 181.754L929.376 181.754M61.4048 175.99L929.376 175.99M61.4048 170.906L929.376 170.906M61.4048 166.358L929.376 166.358M61.4048 136.437L929.376 136.437M61.4048 118.935L929.376 118.935M61.4048 106.517L929.376 106.517M61.4048 96.8843L929.376 96.8843M61.4048 89.0141L929.376 89.0141M61.4048 82.3599L929.376 82.3599M61.4048 76.5959L929.376 76.5959M61.4048 71.5116L929.376 71.5116M61.4048 66.9636L929.376 66.9636"/>
		<path fill="none" stroke="#D9D9D9" stroke-width="1" stroke-miterlimit="10" d="M65.4048 434.62L61.4048 434.62M65.4048 417.118L61.4048 417.118M65.4048 404.7L61.4048 404.7M65.4048 395.067L61.4048 395.067M65.4048 387.197L61.4048 387.197M65.4048 380.543L61.4048 380.543M65.4048 374.779L61.4048 374.779M65.4048 369.695L61.4048 369.695M65.4048 365.147L61.4048 365.147M65.4048 335.226L61.4048 335.226M65.4048 317.723L61.4048 317.723M65.4048 305.305L61.4048 305.305M65.4048 295.673L61.4048 295.673M65.4048 287.803L61.4048 287.803M65.4048 281.149L61.4048 281.149M65.4048 275.385L61.4048 275.385M65.4048 270.3L61.4048 270.3M65.4048 265.752L61.4048 265.752M65.4048 235.832L61.4048 235.832M65.4048 218.329L61.4048 218.329M65.4048 205.911L61.4048 205.911M65.4048 196.279L61.4048 196.279M65.4048 188.408L61.4048 188.408M65.4048 181.754L61.4048 181.754M65.4048 175.99L61.4048 175.99M65.4048 170.906L61.4048 170.906M65.4048 166.358L61.4048 166.358M65.4048 136.437L61.4048 136.437M65.4048 118.935L61.4048 118.935M65.4048 106.517L61.4048 106.517M65.4048 96.8843L61.4048 96.8843M65.4048 89.0141L61.4048 89.0141M65.4048 82.3599L61.4048 82.3599M65.4048 76.5959L61.4048 76.5959M65.4048 71.5116L61.4048 71.5116M65.4048 66.9636L61.4048 66.9636"/>
		<text transform="translate(203.04 456.685)" font-size="13" font-family="Microsoft YaHei, 微软雅黑" x="-7.6235352, 0, " y="13.755371, ">
				10
		</text>
		<text transform="translate(348.308 456.685)" font-size="13" font-family="Microsoft YaHei, 微软雅黑" x="-7.6235352, 0, " y="13.755371, ">
				20
		</text>
		<text transform="translate(493.575 456.685)" font-size="13" font-family="Microsoft YaHei, 微软雅黑" x="-7.6235352, 0, " y="13.755371, ">
				30
		</text>
		<text transform="translate(638.842 456.685)" font-size="13" font-family="Microsoft YaHei, 微软雅黑" x="-7.6235352, 0, " y="13.755371, ">
				40
		</text>
		<text transform="translate(784.109 456.685)" font-size="13" font-family="Microsoft YaHei, 微软雅黑" x="-7.6235352, 0, " y="13.755371, ">
				50
		</text>
		<text transform="translate(929.376 456.685)" font-size="13" font-family="Microsoft YaHei, 微软雅黑" x="-7.6235352, 0, " y="13.755371, ">
				60
		</text>
		<path fill="none" stroke="#00008B" stroke-width="1" stroke-miterlimit="10" stroke-opacity="0.11764706" d="M203.04 39.7366L203.04 452.685M348.308 39.7366L348.308 452.685M493.575 39.7366L493.575 452.685M638.842 39.7366L638.842 452.685M784.109 39.7366L784.109 452.685M929.376 39.7366L929.376 452.685"/>
		<path fill="none" stroke="#D9D9D9" stroke-width="1" stroke-miterlimit="10" d="M203.04 445.685L203.04 452.685M348.308 445.685L348.308 452.685M493.575 445.685L493.575 452.685M638.842 445.685L638.842 452.685M784.109 445.685L784.109 452.685M929.376 445.685L929.376 452.685"/>
		<text transform="translate(495.391 491)" font-size="13" font-family="Microsoft YaHei, 微软雅黑" x="-46.667969, -39.761719, -34.797852, -27.421875, -19.106445, -11.095703, -3.7197266, 4.2910156, 10.810059, 17.690918, 21.537598, 25.879395, 35.934082, 42.326172, " y="-3.4023438, ">
				Frequency (Hz)
		</text>
		<text transform="translate(57.4048 365.147)" font-size="13" font-family="Microsoft YaHei, 微软雅黑" x="-28.24707, -20.623535, -13.247559, -7.6235352, " y="5.1765137, ">
				1e-7
		</text>
		<text transform="translate(57.4048 265.752)" font-size="13" font-family="Microsoft YaHei, 微软雅黑" x="-28.24707, -20.623535, -13.247559, -7.6235352, " y="5.1765137, ">
				1e-6
		</text>
		<text transform="translate(57.4048 166.358)" font-size="13" font-family="Microsoft YaHei, 微软雅黑" x="-28.24707, -20.623535, -13.247559, -7.6235352, " y="5.1765137, ">
				1e-5
		</text>
		<text transform="translate(57.4048 66.9636)" font-size="13" font-family="Microsoft YaHei, 微软雅黑" x="-28.24707, -20.623535, -13.247559, -7.6235352, " y="5.1765137, ">
				1e-4
		</text>
		<path fill="none" stroke="#00008B" stroke-width="1" stroke-miterlimit="10" stroke-opacity="0.11764706" d="M61.4048 365.147L929.376 365.147M61.4048 265.752L929.376 265.752M61.4048 166.358L929.376 166.358M61.4048 66.9636L929.376 66.9636"/>
		<path fill="none" stroke="#D9D9D9" stroke-width="1" stroke-miterlimit="10" d="M68.4048 365.147L61.4048 365.147M68.4048 265.752L61.4048 265.752M68.4048 166.358L61.4048 166.358M68.4048 66.9636L61.4048 66.9636"/>
		<text transform="matrix(0 -1 1 0 12 246.211)" font-size="13" font-family="Microsoft YaHei, 微软雅黑" x="-40.977295, -31.074951, -27.615479, -21.5979, -17.751221, -9.9055176, -2.7199707, 7.5441895, 13.371338, 20.823486, 28.447021, 32.293701, 36.635498, " y="13.755371, ">
				Dis Yaw_T7 ()
		</text>
		<clipPath id="cl_31">
			<rect x="61.404785" y="39.736572" width="867.97168" height="412.948"/>
		</clipPath>
		<g clip-path="url(#cl_31)">
			<path fill="none" stroke="#2CA02C" stroke-width="1.5" stroke-linejoin="bevel" d="M57.7731 226.245L61.4048 142.819L65.0365 72.175L68.6681 49.4358L72.2998 50.622L75.9315 46.1894L79.5632 46.7624L83.1949 41.4333L86.8266 53.4796L90.4582 51.2903L94.0899 39.7366L97.7216 46.7633L101.353 53.7082L104.985 68.1677L108.617 58.866L112.248 50.6505L115.88 58.5335L119.512 57.1538L123.143 65.2463L126.775 68.0247L130.407 77.3256L134.038 79.6455L137.67 82.3615L141.302 86.5079L144.933 94.398L148.565 91.608L152.197 86.3238L155.828 88.1102L159.46 94.5839L163.092 99.7165L166.724 98.4294L170.355 116.523L173.987 112.817L177.619 108.413L181.25 120.973L184.882 124.047L188.514 122.216L192.145 112.418L195.777 105.834L199.409 111.665L203.04 121.676L206.672 125.924L210.304 124.808L213.935 132.938L217.567 132.745L221.199 128.971L224.83 134.322L228.462 131.892L232.094 124.17L235.725 124.871L239.357 139.199L242.989 129.253L246.62 122.507L250.252 132.301L253.884 130.741L257.516 119.05L261.147 111.099L264.779 122.248L268.411 121.458L272.042 111.335L275.674 115.388L279.306 117.967L282.937 125.973L286.569 118.17L290.201 111.607L293.832 110.132L297.464 113.136L301.096 122.173L304.727 133.005L308.359 135.811L311.991 132.302L315.622 116.338L319.254 116.999L322.886 121.758L326.517 126.305L330.149 132.939L333.781 125.636L337.413 123.331L341.044 130.367L344.676 133.962L348.308 135.055L351.939 130.862L355.571 151.814L359.203 142.635L362.834 141.743L366.466 137.472L370.098 131.209L373.729 132.567L377.361 135.85L380.993 129.76L384.624 125.621L388.256 146.083L391.888 132.844L395.519 128.469L399.151 140.054L402.783 148.678L406.414 132.67L410.046 138.018L413.678 141.55L417.309 140.373L420.941 149.341L424.573 143.893L428.205 146.79L431.836 147.525L435.468 157.338L439.1 160.695L442.731 147.601L446.363 144.128L449.995 134.764L453.626 142.564L457.258 148.83L460.89 149.519L464.521 146.374L468.153 157.922L471.785 162.673L475.416 160.321L479.048 155.781L482.68 145.542L486.311 154.983L489.943 156.774L493.575 160.72L497.206 176.524L500.838 168.116L504.47 167.732L508.102 164.047L511.733 154.746L515.365 148.026L518.997 161.959L522.628 163.536L526.26 173.324L529.892 180.692L533.523 182.649L537.155 172.111L540.787 171.222L544.418 171.738L548.05 168.887L551.682 180.966L555.313 197.081L558.945 174.989L562.577 169.414L566.208 169.114L569.84 181.069L573.472 196.052L577.103 212.324L580.735 195.291L584.367 184.656L587.998 185.657L591.63 188.917L595.262 188.444L598.893 197.516L602.525 213.943L606.157 211.945L609.789 206.849L613.42 200.044L617.052 200.883L620.684 204.483L624.315 208.152L627.947 205.53L631.579 206.276L635.21 204.834L638.842 219.102L642.474 222.662L646.105 215.474L649.737 211.948L653.369 219.801L657 226.139L660.632 223.716L664.264 226.118L667.895 232.392L671.527 232.88L675.159 232.116L678.791 237.913L682.422 251.624L686.054 254.21L689.686 241.979L693.317 238.329L696.949 253.061L700.581 250.101L704.212 247.674L707.844 249.251L711.476 244.412L715.107 250.887L718.739 256.712L722.371 262.823L726.002 264.963L729.634 246.662L733.266 249.198L736.897 259.187L740.529 256.161L744.161 259.087L747.792 265.657L751.424 280.388L755.056 277.852L758.688 283.239L762.319 261.656L765.951 258.487L769.583 271.81L773.214 273.21L776.846 270.681L780.478 276.655L784.109 265.907L787.741 264.62L791.373 272.435L795.004 276.719L798.636 286.854L802.268 273.3L805.899 272.148L809.531 287.185L813.163 279.614L816.794 273.208L820.426 285.574L824.058 294.41L827.689 303.539L831.321 310.307L834.953 303.832L838.584 296.19L842.216 282.743L845.848 283.827L849.479 291.898L853.111 311.384L856.743 304.72L860.375 297.467L864.006 287.692L867.638 295.111L871.27 299.624L874.901 298.447L878.533 278.81L882.165 275.813L885.796 287.651L889.428 290.484L893.06 284.325L896.691 297.448L900.323 298.147L903.955 301.179L907.586 297.837L911.218 303.405L914.85 314.922L918.481 313.343L922.113 316.41L925.745 304.546L929.376 306.373L933.008 311.945"/>
			<path fill="none" stroke="#FF0037" stroke-width="1.5" stroke-linejoin="bevel" d="M57.7731 293.684L61.4048 168.229L65.0365 83.7928L68.6681 54.5043L72.2998 54.2632L75.9315 50.5528L79.5632 50.6798L83.1949 46.1144L86.8266 59.3435L90.4582 57.6327L94.0899 46.0573L97.7216 52.0846L101.353 58.6237L104.985 72.8036L108.617 63.653L112.248 55.6034L115.88 64.2403L119.512 61.845L123.143 69.6171L126.775 71.984L130.407 83.7156L134.038 86.1519L137.67 89.6407L141.302 95.0781L144.933 102.337L148.565 97.9424L152.197 93.0285L155.828 92.9782L159.46 100.494L163.092 106.368L166.724 106.341L170.355 123.667L173.987 120.954L177.619 116.12L181.25 126.095L184.882 129.011L188.514 131.428L192.145 122.6L195.777 115.223L199.409 118.388L203.04 128.739L206.672 133.305L210.304 133.733L213.935 139.985L217.567 143.278L221.199 139.157L224.83 144.707L228.462 139.56L232.094 131.757L235.725 131.258L239.357 143.581L242.989 136.439L246.62 130.152L250.252 140.925L253.884 138.046L257.516 127.3L261.147 120.04L264.779 131.275L268.411 129.216L272.042 119.54L275.674 124.941L279.306 127.854L282.937 136.983L286.569 129.913L290.201 123.305L293.832 121.06L297.464 123.22L301.096 133.917L304.727 146.053L308.359 149.799L311.991 146.106L315.622 127.078L319.254 126.189L322.886 131.448L326.517 130.534L330.149 138.568L333.781 136.398L337.413 133.51L341.044 133.941L344.676 135.384L348.308 138.155L351.939 136.758L355.571 151.71L359.203 141.443L362.834 140.27L366.466 140.744L370.098 143.046L373.729 151.046L377.361 155.102L380.993 152.572L384.624 152.44L388.256 171.525L391.888 157.025L395.519 153.825L399.151 165.561L402.783 176.781L406.414 158.876L410.046 160.172L413.678 165.779L417.309 166.326L420.941 175.41L424.573 172.271L428.205 179.182L431.836 183.413L435.468 196.686L439.1 209.739L442.731 227.619L446.363 261.657L449.995 266.016L453.626 273.33L457.258 283.5L460.89 256.338L464.521 210.922L468.153 198.566L471.785 194.718L475.416 193.674L479.048 192.426L482.68 182.192L486.311 185.396L489.943 177.796L493.575 177.047L497.206 192.462L500.838 184.242L504.47 184.356L508.102 181.043L511.733 171.225L515.365 165.819L518.997 181.961L522.628 184.53L526.26 192.577L529.892 198.704L533.523 201.88L537.155 192.747L540.787 191.982L544.418 192.019L548.05 189.587L551.682 201.545L555.313 216.046L558.945 191.83L562.577 184.879L566.208 184.214L569.84 197.927L573.472 215.814L577.103 231.431L580.735 212.906L584.367 202.214L587.998 205.941L591.63 210.256L595.262 208.877L598.893 217.741L602.525 232.796L606.157 230.091L609.789 227.536L613.42 224.516L617.052 226.073L620.684 227.791L624.315 230.507L627.947 230.462L631.579 230.328L635.21 234.088L638.842 252.885L642.474 255.842L646.105 243.091L649.737 238.67L653.369 245.3L657 245.299L660.632 240.553L664.264 244.529L667.895 252.91L671.527 247.784L675.159 240.643L678.791 248.461L682.422 261.634L686.054 272.615L689.686 263.629L693.317 248.361L696.949 254.683L700.581 251.406L704.212 255.718L707.844 262.883L711.476 252.656L715.107 250.878L718.739 255.541L722.371 264.277L726.002 257.011L729.634 237.211L733.266 248.995L736.897 255.287L740.529 250.738L744.161 262.822L747.792 277.328L751.424 284.451L755.056 275.449L758.688 279.565L762.319 263.687L765.951 268.612L769.583 284.81L773.214 286.79L776.846 281.882L780.478 288.503L784.109 282.82L787.741 277.86L791.373 277.91L795.004 288.279L798.636 303.654L802.268 287.363L805.899 287.045L809.531 302.767L813.163 293.793L816.794 290.336L820.426 297.593L824.058 302.38L827.689 318.797L831.321 326.394L834.953 323.723L838.584 318.173L842.216 303.464L845.848 302.355L849.479 307.533L853.111 305.831L856.743 304.722L860.375 296.661L864.006 280.937L867.638 275.066L871.27 280.261L874.901 282.897L878.533 283.729L882.165 288.125L885.796 300.875L889.428 306.966L893.06 296.22L896.691 268.582L900.323 247.632L903.955 228.394L907.586 229.703L911.218 248.085L914.85 286.632L918.481 267.236L922.113 234.909L925.745 229.232L929.376 241.841L933.008 262.584"/>
		</g>
		<text transform="translate(495.391 8)" font-size="13" font-family="Microsoft YaHei, 微软雅黑" x="-393.04053, -384.34424, -381.21484, -375.80664, -366.10107, -360.0835, -352.70752, -347.74365, -341.72607, -336.31787, -331.16992, -323.79395, -319.28711, -314.78027, -309.81641, -302.44043, -295.55957, -290.15137, -280.24902, -272.87305, -266.85547, -259.77783, -254.93457, -246.66992, -238.36719, -232.95898, -225.33545, -217.71191, -210.08838, -202.46484, -199.33545, -191.71191, -184.08838, -178.68018, -171.22803, -163.60449, -157.77734, -153.95605, -145.25977, -137.75684, -132.34863, -124.89648, -117.27295, -111.4458, -107.62451, -98.928223, -91.425293, -86.01709, -78.393555, -70.77002, -64.942871, -57.490723, -49.867188, -41.170898, -32.90625, -20.725098, -12.422363, -4.4116211, 0.43164063, 7.8076172, 12.771484, 18.179688, 22.000977, 30.697266, 38.200195, 44.027344, 50.69873, 61.292969, 70.960449, 80.62793, 86.036133, 94.522949, 101.89893, 107.9165, 116.21924, 124.48389, 132.49463, 138.51221, 145.88818, 153.51172, 156.64111, 162.65869, 170.03467, 174.5415, 177.6709, 181.51758, 188.18896, 195.56494, 203.57568, 213.21777, 220.84131, 223.9707, 231.59424, 237.61182, 240.74121, 244.58789, 251.49414, 257.51172, 267.15381, 274.77734, 282.40088, 290.02441, 297.64795, 307.70264, 314.09473, 317.22412, 321.0708, 331.63965, 338.5459, 345.45215, 352.9043, 362.54639, 370.16992, 377.79346, 385.41699, " y="13.755371, ">
				C:\Users\Jeffrey\Desktop\2023.07\T7_ICS\T7_ICS\86_T7Computer\ICS_LOGG\Response2.sef, Len=2.0s, Fs=1000Hz, NFFT=2000
		</text>
		<rect fill="none" stroke="black" stroke-width="1" stroke-miterlimit="10" stroke-opacity="0.73725492" x="61.404785" y="39.736572" width="867.97168" height="412.948"/>
		<rect fill="white" fill-opacity="0.39215687" x="630.48077" y="54.736572" width="283.89569" height="44.31543"/>
		<clipPath id="cl_32">
			<rect x="630.48077" y="54.736572" width="283.89569" height="44.31543"/>
		</clipPath>
		<g clip-path="url(#cl_32)">
			<text transform="translate(677.481 59.7366)" font-size="13" font-family="Microsoft YaHei, 微软雅黑" x="0, 4.3417969, 8.6835938, 16.135742, 23.321289, 28.285156, 36.600586, 43.976563, 48.819824, 54.443848, 60.067871, 65.691895, 75.594238, 79.053711, 85.071289, 88.917969, 96.763672, 103.94922, " y="13.755371, ">
					[]Target---Dis Yaw
			</text>
			<text transform="translate(793.694 59.7366)" font-size="13" font-family="Microsoft YaHei, 微软雅黑" x="0, 5.8271484, 13.279297, 20.902832, 25.244629, 29.586426, " y="13.755371, ">
					_T7(()
			</text>
			<text transform="translate(827.622 59.7366)" font-size="8.0600004" font-family="Microsoft YaHei, 微软雅黑" x="2.3849416, " y="8.5283308, ">
					2
			</text>
			<text transform="translate(836.734 59.7366)" font-size="13" font-family="Microsoft YaHei, 微软雅黑" x="0, 5.5541992, 9.4008789, 19.455566, 25.847656, 30.189453, 34.036133, 38.37793, " y="13.755371, ">
					/ Hz) ()
			</text>
			<path fill="none" stroke="#2CA02C" stroke-width="1.5" stroke-miterlimit="10" d="M635.481 68.3154L665.481 68.3154"/>
			<text transform="translate(677.481 76.8943)" font-size="13" font-family="Microsoft YaHei, 微软雅黑" x="0, 4.3417969, 8.6835938, 17.830566, 24.349609, 29.192871, 37.203613, 44.38916, 47.848633, 53.472656, 59.09668, 64.720703, 72.674316, 80.938965, 86.956543, 90.416016, 95.259277, 98.71875, 106.9834, 114.99414, 118.84082, 126.68652, 133.87207, " y="13.755371, ">
					[]Actual---Position Yaw
			</text>
			<text transform="translate(823.617 76.8943)" font-size="13" font-family="Microsoft YaHei, 微软雅黑" x="0, 5.8271484, 13.279297, 20.902832, 25.244629, 29.586426, " y="13.755371, ">
					_T7(()
			</text>
			<text transform="translate(857.545 76.8943)" font-size="8.0600004" font-family="Microsoft YaHei, 微软雅黑" x="2.3849416, " y="8.5283308, ">
					2
			</text>
			<text transform="translate(866.657 76.8943)" font-size="13" font-family="Microsoft YaHei, 微软雅黑" x="0, 5.5541992, 9.4008789, 19.455566, 25.847656, 30.189453, 34.036133, 38.37793, " y="13.755371, ">
					/ Hz) ()
			</text>
			<path fill="none" stroke="#FF0037" stroke-width="1.5" stroke-miterlimit="10" d="M635.481 85.4731L665.481 85.4731"/>
		</g>
	</g>
</svg>
