<?xml version="1.0" encoding="utf-8" ?>
<svg xmlns="http://www.w3.org/2000/svg" xmlns:xlink="http://www.w3.org/1999/xlink" width="945" height="503">
	<rect fill="white" width="945" height="503"/>
	<clipPath id="cl_3c">
		<rect width="945" height="503"/>
	</clipPath>
	<g clip-path="url(#cl_3c)">
		<path fill="none" stroke="#00008B" stroke-width="1" stroke-miterlimit="10" stroke-opacity="0.078431375" d="M61.4048 39.7366L61.4048 452.685M94.4597 39.7366L94.4597 452.685M122.407 39.7366L122.407 452.685M146.616 39.7366L146.616 452.685M167.97 39.7366L167.97 452.685M187.072 39.7366L187.072 452.685M312.74 39.7366L312.74 452.685M386.251 39.7366L386.251 452.685M438.407 39.7366L438.407 452.685M478.863 39.7366L478.863 452.685M511.918 39.7366L511.918 452.685M539.866 39.7366L539.866 452.685M564.075 39.7366L564.075 452.685M585.429 39.7366L585.429 452.685M604.531 39.7366L604.531 452.685M730.198 39.7366L730.198 452.685M803.709 39.7366L803.709 452.685M855.866 39.7366L855.866 452.685M896.322 39.7366L896.322 452.685M929.376 39.7366L929.376 452.685"/>
		<path fill="none" stroke="#D9D9D9" stroke-width="1" stroke-miterlimit="10" d="M61.4048 448.685L61.4048 452.685M94.4597 448.685L94.4597 452.685M122.407 448.685L122.407 452.685M146.616 448.685L146.616 452.685M167.97 448.685L167.97 452.685M187.072 448.685L187.072 452.685M312.74 448.685L312.74 452.685M386.251 448.685L386.251 452.685M438.407 448.685L438.407 452.685M478.863 448.685L478.863 452.685M511.918 448.685L511.918 452.685M539.866 448.685L539.866 452.685M564.075 448.685L564.075 452.685M585.429 448.685L585.429 452.685M604.531 448.685L604.531 452.685M730.198 448.685L730.198 452.685M803.709 448.685L803.709 452.685M855.866 448.685L855.866 452.685M896.322 448.685L896.322 452.685M929.376 448.685L929.376 452.685"/>
		<path fill="none" stroke="#00008B" stroke-width="1" stroke-miterlimit="10" stroke-opacity="0.078431375" d="M61.4048 447.103L929.376 447.103M61.4048 434.397L929.376 434.397M61.4048 424.015L929.376 424.015M61.4048 415.237L929.376 415.237M61.4048 407.634L929.376 407.634M61.4048 400.927L929.376 400.927M61.4048 394.927L929.376 394.927M61.4048 355.458L929.376 355.458M61.4048 332.369L929.376 332.369M61.4048 315.988L929.376 315.988M61.4048 303.281L929.376 303.281M61.4048 292.9L929.376 292.9M61.4048 284.122L929.376 284.122M61.4048 276.518L929.376 276.518M61.4048 269.811L929.376 269.811M61.4048 263.812L929.376 263.812M61.4048 224.342L929.376 224.342M61.4048 201.254L929.376 201.254M61.4048 184.872L929.376 184.872M61.4048 172.166L929.376 172.166M61.4048 161.784L929.376 161.784M61.4048 153.006L929.376 153.006M61.4048 145.403L929.376 145.403M61.4048 138.696L929.376 138.696M61.4048 132.696L929.376 132.696M61.4048 93.2266L929.376 93.2266M61.4048 70.1383L929.376 70.1383M61.4048 53.7569L929.376 53.7569M61.4048 41.0505L929.376 41.0505"/>
		<path fill="none" stroke="#D9D9D9" stroke-width="1" stroke-miterlimit="10" d="M65.4048 447.103L61.4048 447.103M65.4048 434.397L61.4048 434.397M65.4048 424.015L61.4048 424.015M65.4048 415.237L61.4048 415.237M65.4048 407.634L61.4048 407.634M65.4048 400.927L61.4048 400.927M65.4048 394.927L61.4048 394.927M65.4048 355.458L61.4048 355.458M65.4048 332.369L61.4048 332.369M65.4048 315.988L61.4048 315.988M65.4048 303.281L61.4048 303.281M65.4048 292.9L61.4048 292.9M65.4048 284.122L61.4048 284.122M65.4048 276.518L61.4048 276.518M65.4048 269.811L61.4048 269.811M65.4048 263.812L61.4048 263.812M65.4048 224.342L61.4048 224.342M65.4048 201.254L61.4048 201.254M65.4048 184.872L61.4048 184.872M65.4048 172.166L61.4048 172.166M65.4048 161.784L61.4048 161.784M65.4048 153.006L61.4048 153.006M65.4048 145.403L61.4048 145.403M65.4048 138.696L61.4048 138.696M65.4048 132.696L61.4048 132.696M65.4048 93.2266L61.4048 93.2266M65.4048 70.1383L61.4048 70.1383M65.4048 53.7569L61.4048 53.7569M65.4048 41.0505L61.4048 41.0505"/>
		<text transform="translate(187.072 456.685)" font-size="13" font-family="Microsoft YaHei, 微软雅黑" x="-3.8117676, " y="13.755371, ">
				1
		</text>
		<text transform="translate(604.531 456.685)" font-size="13" font-family="Microsoft YaHei, 微软雅黑" x="-7.6235352, 0, " y="13.755371, ">
				10
		</text>
		<path fill="none" stroke="#00008B" stroke-width="1" stroke-miterlimit="10" stroke-opacity="0.11764706" d="M187.072 39.7366L187.072 452.685M604.531 39.7366L604.531 452.685"/>
		<path fill="none" stroke="#D9D9D9" stroke-width="1" stroke-miterlimit="10" d="M187.072 445.685L187.072 452.685M604.531 445.685L604.531 452.685"/>
		<text transform="translate(495.391 491)" font-size="13" font-family="Microsoft YaHei, 微软雅黑" x="-46.667969, -39.761719, -34.797852, -27.421875, -19.106445, -11.095703, -3.7197266, 4.2910156, 10.810059, 17.690918, 21.537598, 25.879395, 35.934082, 42.326172, " y="-3.4023438, ">
				Frequency (Hz)
		</text>
		<text transform="translate(57.4048 394.927)" font-size="13" font-family="Microsoft YaHei, 微软雅黑" x="-28.24707, -20.623535, -13.247559, -7.6235352, " y="5.1765137, ">
				1e-7
		</text>
		<text transform="translate(57.4048 263.812)" font-size="13" font-family="Microsoft YaHei, 微软雅黑" x="-28.24707, -20.623535, -13.247559, -7.6235352, " y="5.1765137, ">
				1e-6
		</text>
		<text transform="translate(57.4048 132.696)" font-size="13" font-family="Microsoft YaHei, 微软雅黑" x="-28.24707, -20.623535, -13.247559, -7.6235352, " y="5.1765137, ">
				1e-5
		</text>
		<path fill="none" stroke="#00008B" stroke-width="1" stroke-miterlimit="10" stroke-opacity="0.11764706" d="M61.4048 394.927L929.376 394.927M61.4048 263.812L929.376 263.812M61.4048 132.696L929.376 132.696"/>
		<path fill="none" stroke="#D9D9D9" stroke-width="1" stroke-miterlimit="10" d="M68.4048 394.927L61.4048 394.927M68.4048 263.812L61.4048 263.812M68.4048 132.696L61.4048 132.696"/>
		<text transform="matrix(0 -1 1 0 12 246.211)" font-size="13" font-family="Microsoft YaHei, 微软雅黑" x="-40.977295, -31.074951, -27.615479, -21.5979, -17.751221, -9.9055176, -2.7199707, 7.5441895, 13.371338, 20.823486, 28.447021, 32.293701, 36.635498, " y="13.755371, ">
				Dis Yaw_T7 ()
		</text>
		<clipPath id="cl_3d">
			<rect x="61.404785" y="39.736572" width="867.97168" height="412.948"/>
		</clipPath>
		<g clip-path="url(#cl_3d)">
			<path fill="none" stroke="#2CA02C" stroke-width="1.5" stroke-linejoin="bevel" d="M-64.2627 87.8371L61.4048 56.0399L134.916 50.952L187.072 59.3185L227.528 53.0866L260.583 53.8523L288.531 46.8411L312.74 62.7409L334.094 59.8503L353.196 44.6066L370.475 53.8708L386.251 63.0336L400.762 82.1058L414.198 69.8373L426.706 59.0001L438.407 69.4006L449.399 67.5792L459.761 78.256L469.564 81.9195L478.863 94.1897L487.709 97.2493L496.143 100.833L504.202 106.301L511.918 116.71L519.319 113.03L526.43 106.059L533.272 108.415L539.866 116.956L546.228 123.726L552.374 122.028L558.319 145.897L564.075 141.008L569.654 135.198L575.066 151.767L580.321 155.822L585.429 153.406L590.396 140.481L595.231 131.796L599.941 139.488L604.531 152.694L609.007 158.298L613.376 156.825L617.642 167.55L621.81 167.295L625.885 162.316L629.87 169.376L633.769 166.17L637.586 155.983L641.324 156.908L644.987 175.81L648.577 162.689L652.097 153.79L655.551 166.71L658.94 164.652L662.266 149.23L665.533 138.741L668.742 153.448L671.895 152.407L674.994 139.052L678.041 144.4L681.038 147.802L683.986 158.362L686.887 148.068L689.742 139.412L692.553 137.466L695.321 141.428L698.048 153.35L700.734 167.638L703.38 171.34L705.989 166.71L708.561 145.653L711.096 146.524L713.597 152.802L716.064 158.8L718.497 167.551L720.899 157.917L723.269 154.876L725.608 164.159L727.918 168.901L730.198 170.343L732.45 164.812L734.675 192.45L736.873 180.342L739.044 179.165L741.189 173.531L743.31 165.27L745.406 167.061L747.478 171.392L749.527 163.358L751.552 157.898L753.556 184.89L755.537 167.427L757.497 161.654L759.436 176.938L761.355 188.314L763.253 167.196L765.132 174.251L766.991 178.91L768.832 177.358L770.654 189.188L772.458 182.001L774.244 185.823L776.013 186.792L777.765 199.737L779.5 204.166L781.218 186.892L782.921 182.311L784.607 169.959L786.278 180.248L787.934 188.514L791.201 185.275L792.812 200.508L794.409 206.775L795.993 203.672L797.563 197.683L799.119 184.177L800.662 196.63L802.192 198.993L803.709 204.198L805.214 225.046L806.706 213.954L809.654 208.588L811.11 196.318L812.555 187.454L813.988 205.833L815.41 207.913L816.821 220.824L818.221 230.545L819.61 233.126L820.989 219.225L823.715 218.733L825.063 214.972L826.401 230.905L827.729 252.164L829.048 223.021L830.357 215.667L832.947 231.041L834.228 250.807L835.5 272.271L836.764 249.802L838.018 235.774L840.502 241.395L842.952 252.737L844.165 274.407L845.37 271.772L846.566 265.049L847.755 256.073L850.11 261.928L851.276 266.768L852.434 263.309L854.729 262.392L855.866 281.213L856.995 285.91L858.118 276.427L859.234 271.775L860.342 282.134L861.445 290.495L862.54 287.3L863.629 290.468L864.711 298.745L866.857 298.38L867.92 306.027L868.977 324.113L870.028 327.525L871.073 311.391L872.112 306.576L873.145 326.009L874.173 322.104L875.194 318.904L876.21 320.984L877.22 314.6L878.224 323.141L879.223 330.826L880.216 338.887L881.205 341.71L882.187 317.569L883.165 320.914L884.137 334.09L885.104 330.099L886.065 333.959L887.022 342.625L887.974 362.058L888.921 358.712L889.862 365.818L890.799 337.348L891.731 333.167L892.659 350.742L893.581 352.589L894.499 349.253L895.413 357.133L896.322 342.955L898.126 351.566L899.021 357.218L899.912 370.587L900.798 352.707L902.559 371.025L903.432 361.037L904.302 352.587L905.167 368.899L906.029 380.555L906.886 392.598L907.739 401.525L908.588 392.984L909.433 382.903L910.275 365.164L911.946 377.242L912.775 402.946L913.601 394.154L914.424 384.589L915.242 371.692L916.057 381.48L916.868 387.433L918.48 359.976L919.28 356.022L920.077 371.636L920.87 375.377L921.66 367.254L922.447 384.561L924.01 389.477L924.786 385.079L925.56 392.411L926.329 407.577L927.096 405.56L927.859 409.472L928.619 398.3L929.376 429.124L930.13 513.048"/>
			<path fill="none" stroke="#FF0037" stroke-width="1.5" stroke-linejoin="bevel" d="M-64.2627 55.0925L61.4048 42.6974L134.916 39.7366L187.072 51.8375L227.528 52.5553L260.583 55.6581L288.531 46.6123L312.74 59.5327L334.094 54.4908L353.196 43.6699L370.475 55.7603L386.251 63.5285L400.762 86.8967L414.198 77.8631L426.706 64.3237L438.407 71.4991L449.399 74.5316L459.761 81.4648L469.564 77.6288L478.863 96.9165L487.709 108.304L496.143 102.156L504.202 105.592L511.918 108.291L519.319 102.154L526.43 102.85L533.272 111.621L539.866 124.294L546.228 126.544L552.374 123.118L558.319 150.027L564.075 131.737L569.654 123.41L575.066 138.466L580.321 147.402L585.429 146.173L590.396 131.339L595.231 125.814L599.941 132.446L604.531 154.132L609.007 152.647L613.376 141.728L617.642 154.787L621.81 155.848L625.885 154.959L629.87 157.512L633.769 156.261L637.586 148.885L641.324 151.933L644.987 163.646L648.577 143.626L652.097 139.679L655.551 160.92L658.94 165.799L662.266 145.971L665.533 130.705L668.742 149.157L671.895 143.617L674.994 129.355L678.041 133.132L681.038 135.816L683.986 143.426L686.887 148.096L689.742 133.721L692.553 130.684L695.321 131.864L698.048 142.858L700.734 142.299L703.38 136.822L705.989 147.714L708.561 135.164L711.096 134.303L713.597 138.787L716.064 143.174L718.497 132.162L720.899 126.285L723.269 141.586L725.608 149.9L727.918 153.931L730.198 177.908L732.45 180.141L734.675 173.784L736.873 170.083L739.044 167.312L741.189 149.649L743.31 145.943L745.406 149.954L747.478 169.793L749.527 176.303L751.552 170.235L753.556 170.586L755.537 160.378L757.497 161.428L759.436 163.593L761.355 177.807L763.253 158.933L765.132 163.543L766.991 179.798L768.832 175.538L770.654 187.473L772.458 186.304L776.013 186.264L777.765 196.139L779.5 201.045L781.218 190.616L784.607 176.746L786.278 184.655L787.934 190.786L789.575 198.06L791.201 192.445L792.812 208.333L794.409 214.989L795.993 209.895L797.563 202.801L799.119 194.745L800.662 206.977L802.192 202.157L803.709 207.762L805.214 228.093L806.706 222.698L808.186 226.899L809.654 221.785L811.11 209.192L812.555 198.84L813.988 219.6L816.821 227.878L818.221 236.549L819.61 242.474L820.989 229.922L823.715 229.619L825.063 223.028L826.401 241.066L827.729 262.873L829.048 233.912L830.357 226.165L832.947 242.406L834.228 262.122L835.5 284.189L836.764 263.482L838.018 250.127L840.502 251.843L842.952 263.734L844.165 287.374L845.37 284.104L846.566 275.075L847.755 265.882L848.936 268.01L850.11 274.884L851.276 283.562L852.434 281.849L853.585 278.027L854.729 274.184L855.866 290.68L856.995 295.984L858.118 290.197L859.234 285.371L860.342 290.335L862.54 286.779L863.629 295.124L864.711 302.282L866.857 305.903L867.92 314.309L868.977 330.192L870.028 332.805L871.073 313.481L872.112 307.431L873.145 324.569L874.173 321.471L875.194 324.778L876.21 328.177L877.22 324.949L878.224 339.752L879.223 343.796L880.216 348.983L882.187 329.105L883.165 338.212L884.137 355.162L885.104 349.185L887.022 356.057L887.974 377.705L889.862 376.768L890.799 350.057L891.731 346.447L892.659 360.646L895.413 371.333L896.322 360.541L897.226 357.515L898.126 364.039L899.021 369.016L899.912 377.64L900.798 362.983L902.559 381.941L903.432 372.92L904.302 366.706L905.167 384.301L906.029 393.728L906.886 396.427L907.739 404.471L908.588 401.928L909.433 395.287L910.275 377.482L911.946 387.324L912.775 413.496L913.601 402.578L914.424 392.288L915.242 382.634L916.057 388.807L916.868 394.649L918.48 369.747L919.28 365.596L920.077 382.52L920.87 387.488L921.66 380.071L922.447 396.011L923.23 399.04L924.01 404.855L924.786 397.741L925.56 402.256L926.329 418.522L927.859 423.427L928.619 414.86L929.376 452.685L930.13 565.127"/>
		</g>
		<text transform="translate(495.391 8)" font-size="13" font-family="Microsoft YaHei, 微软雅黑" x="-359.10278, -350.40649, -347.2771, -341.8689, -332.16333, -326.14575, -318.76978, -313.80591, -307.78833, -302.38013, -297.23218, -289.8562, -280.21411, -275.25024, -267.87427, -260.99341, -255.58521, -245.68286, -238.30688, -228.66479, -223.82153, -215.55688, -207.25415, -201.84595, -194.22241, -186.59888, -176.95679, -173.82739, -166.20386, -158.58032, -153.17212, -145.71997, -138.09644, -128.45435, -124.63306, -115.93677, -108.43384, -103.02563, -95.573486, -87.949951, -78.307861, -74.486572, -65.790283, -58.287354, -52.87915, -45.255615, -37.63208, -27.98999, -23.146729, -15.770752, -10.806885, -5.3986816, -1.5773926, 7.1188965, 16.760986, 27.355225, 37.022705, 46.690186, 52.098389, 60.585205, 67.961182, 73.97876, 82.281494, 90.546143, 98.556885, 104.57446, 111.95044, 119.57397, 122.70337, 128.72095, 136.09692, 140.60376, 143.73315, 147.57983, 154.25122, 161.6272, 169.63794, 179.28003, 186.90356, 190.03296, 197.65649, 203.67407, 206.80347, 210.65015, 217.5564, 223.57397, 233.21606, 240.8396, 248.46313, 256.08667, 263.71021, 273.76489, 280.15698, 283.28638, 287.13306, 297.7019, 304.60815, 311.5144, 318.96655, 328.60864, 336.23218, 343.85571, 351.47925, " y="13.755371, ">
				C:\Users\Je~rey\De~top\20~.07\T7~ICS\T7~ICS\99~ter\IC~OGG\Response2.sef, Len=2.0s, Fs=1000Hz, NFFT=2000
		</text>
		<rect fill="none" stroke="black" stroke-width="1" stroke-miterlimit="10" stroke-opacity="0.73725492" x="61.404785" y="39.736572" width="867.97168" height="412.948"/>
		<rect fill="white" fill-opacity="0.39215687" x="635.78107" y="54.736572" width="278.5954" height="44.31543"/>
		<clipPath id="cl_3e">
			<rect x="635.78107" y="54.736572" width="278.5954" height="44.31543"/>
		</clipPath>
		<g clip-path="url(#cl_3e)">
			<text transform="translate(682.781 59.7366)" font-size="13" font-family="Microsoft YaHei, 微软雅黑" x="0, 4.3417969, 8.6835938, 16.135742, 23.321289, 28.285156, 36.600586, 43.976563, 48.819824, 54.443848, 60.067871, 65.691895, 75.594238, 79.053711, 85.071289, 88.917969, 96.763672, 103.94922, " y="13.755371, ">
					[]Target---Dis Yaw
			</text>
			<text transform="translate(798.994 59.7366)" font-size="13" font-family="Microsoft YaHei, 微软雅黑" x="0, 5.8271484, 13.279297, 20.902832, 25.244629, 29.586426, " y="13.755371, ">
					_T7(()
			</text>
			<text transform="translate(832.923 59.7366)" font-size="8.0600004" font-family="Microsoft YaHei, 微软雅黑" x="2.3849416, " y="8.5283308, ">
					2
			</text>
			<text transform="translate(842.034 59.7366)" font-size="13" font-family="Microsoft YaHei, 微软雅黑" x="0, 5.5541992, 9.4008789, 19.455566, 25.847656, 30.189453, 34.036133, 38.37793, " y="13.755371, ">
					/ Hz) ()
			</text>
			<path fill="none" stroke="#2CA02C" stroke-width="1.5" stroke-miterlimit="10" d="M640.781 68.3154L670.781 68.3154"/>
			<text transform="translate(682.781 76.8943)" font-size="13" font-family="Microsoft YaHei, 微软雅黑" x="0, 4.3417969, 8.6835938, 17.830566, 24.349609, 29.192871, 37.203613, 44.38916, 47.848633, 53.472656, 59.09668, 64.720703, 74.623047, 78.08252, 84.100098, 92.402832, 99.550293, 105.56787, 110.41113, 113.54053, 121.38623, 128.57178, " y="13.755371, ">
					[]Actual---DispEst.Yaw
			</text>
			<text transform="translate(823.617 76.8943)" font-size="13" font-family="Microsoft YaHei, 微软雅黑" x="0, 5.8271484, 13.279297, 20.902832, 25.244629, 29.586426, " y="13.755371, ">
					_T7(()
			</text>
			<text transform="translate(857.545 76.8943)" font-size="8.0600004" font-family="Microsoft YaHei, 微软雅黑" x="2.3849416, " y="8.5283308, ">
					2
			</text>
			<text transform="translate(866.657 76.8943)" font-size="13" font-family="Microsoft YaHei, 微软雅黑" x="0, 5.5541992, 9.4008789, 19.455566, 25.847656, 30.189453, 34.036133, 38.37793, " y="13.755371, ">
					/ Hz) ()
			</text>
			<path fill="none" stroke="#FF0037" stroke-width="1.5" stroke-miterlimit="10" d="M640.781 85.4731L670.781 85.4731"/>
		</g>
	</g>
</svg>
