<?xml version="1.0" encoding="utf-8" ?>
<svg xmlns="http://www.w3.org/2000/svg" xmlns:xlink="http://www.w3.org/1999/xlink" width="945" height="503">
	<rect fill="white" width="945" height="503"/>
	<clipPath id="cl_3f">
		<rect width="945" height="503"/>
	</clipPath>
	<g clip-path="url(#cl_3f)">
		<path fill="none" stroke="#00008B" stroke-width="1" stroke-miterlimit="10" stroke-opacity="0.078431375" d="M90.2791 39.7366L90.2791 452.685M135.84 39.7366L135.84 452.685M171.179 39.7366L171.179 452.685M200.053 39.7366L200.053 452.685M224.466 39.7366L224.466 452.685M245.614 39.7366L245.614 452.685M264.267 39.7366L264.267 452.685M280.953 39.7366L280.953 452.685M390.727 39.7366L390.727 452.685M454.941 39.7366L454.941 452.685M500.501 39.7366L500.501 452.685M535.841 39.7366L535.841 452.685M564.715 39.7366L564.715 452.685M589.128 39.7366L589.128 452.685M610.275 39.7366L610.275 452.685M628.929 39.7366L628.929 452.685M645.615 39.7366L645.615 452.685M755.389 39.7366L755.389 452.685M819.602 39.7366L819.602 452.685M865.163 39.7366L865.163 452.685M900.502 39.7366L900.502 452.685M929.376 39.7366L929.376 452.685"/>
		<path fill="none" stroke="#D9D9D9" stroke-width="1" stroke-miterlimit="10" d="M90.2791 448.685L90.2791 452.685M135.84 448.685L135.84 452.685M171.179 448.685L171.179 452.685M200.053 448.685L200.053 452.685M224.466 448.685L224.466 452.685M245.614 448.685L245.614 452.685M264.267 448.685L264.267 452.685M280.953 448.685L280.953 452.685M390.727 448.685L390.727 452.685M454.941 448.685L454.941 452.685M500.501 448.685L500.501 452.685M535.841 448.685L535.841 452.685M564.715 448.685L564.715 452.685M589.128 448.685L589.128 452.685M610.275 448.685L610.275 452.685M628.929 448.685L628.929 452.685M645.615 448.685L645.615 452.685M755.389 448.685L755.389 452.685M819.602 448.685L819.602 452.685M865.163 448.685L865.163 452.685M900.502 448.685L900.502 452.685M929.376 448.685L929.376 452.685"/>
		<path fill="none" stroke="#00008B" stroke-width="1" stroke-miterlimit="10" stroke-opacity="0.078431375" d="M61.4048 440.194L929.376 440.194M61.4048 422.305L929.376 422.305M61.4048 408.429L929.376 408.429M61.4048 397.091L929.376 397.091M61.4048 387.506L929.376 387.506M61.4048 379.202L929.376 379.202M61.4048 371.878L929.376 371.878M61.4048 365.326L929.376 365.326M61.4048 322.224L929.376 322.224M61.4048 297.01L929.376 297.01M61.4048 279.121L929.376 279.121M61.4048 265.245L929.376 265.245M61.4048 253.908L929.376 253.908M61.4048 244.322L929.376 244.322M61.4048 236.018L929.376 236.018M61.4048 228.694L929.376 228.694M61.4048 222.143L929.376 222.143M61.4048 179.04L929.376 179.04M61.4048 153.826L929.376 153.826M61.4048 135.937L929.376 135.937M61.4048 122.061L929.376 122.061M61.4048 110.724L929.376 110.724M61.4048 101.138L929.376 101.138M61.4048 92.8347L929.376 92.8347M61.4048 85.5105L929.376 85.5105M61.4048 78.9588L929.376 78.9588"/>
		<path fill="none" stroke="#D9D9D9" stroke-width="1" stroke-miterlimit="10" d="M65.4048 440.194L61.4048 440.194M65.4048 422.305L61.4048 422.305M65.4048 408.429L61.4048 408.429M65.4048 397.091L61.4048 397.091M65.4048 387.506L61.4048 387.506M65.4048 379.202L61.4048 379.202M65.4048 371.878L61.4048 371.878M65.4048 365.326L61.4048 365.326M65.4048 322.224L61.4048 322.224M65.4048 297.01L61.4048 297.01M65.4048 279.121L61.4048 279.121M65.4048 265.245L61.4048 265.245M65.4048 253.908L61.4048 253.908M65.4048 244.322L61.4048 244.322M65.4048 236.018L61.4048 236.018M65.4048 228.694L61.4048 228.694M65.4048 222.143L61.4048 222.143M65.4048 179.04L61.4048 179.04M65.4048 153.826L61.4048 153.826M65.4048 135.937L61.4048 135.937M65.4048 122.061L61.4048 122.061M65.4048 110.724L61.4048 110.724M65.4048 101.138L61.4048 101.138M65.4048 92.8347L61.4048 92.8347M65.4048 85.5105L61.4048 85.5105M65.4048 78.9588L61.4048 78.9588"/>
		<text transform="translate(280.953 456.685)" font-size="13" font-family="Microsoft YaHei, 微软雅黑" x="-3.8117676, " y="13.755371, ">
				1
		</text>
		<text transform="translate(645.615 456.685)" font-size="13" font-family="Microsoft YaHei, 微软雅黑" x="-7.6235352, 0, " y="13.755371, ">
				10
		</text>
		<path fill="none" stroke="#00008B" stroke-width="1" stroke-miterlimit="10" stroke-opacity="0.11764706" d="M280.953 39.7366L280.953 452.685M645.615 39.7366L645.615 452.685"/>
		<path fill="none" stroke="#D9D9D9" stroke-width="1" stroke-miterlimit="10" d="M280.953 445.685L280.953 452.685M645.615 445.685L645.615 452.685"/>
		<text transform="translate(495.391 491)" font-size="13" font-family="Microsoft YaHei, 微软雅黑" x="-46.667969, -39.761719, -34.797852, -27.421875, -19.106445, -11.095703, -3.7197266, 4.2910156, 10.810059, 17.690918, 21.537598, 25.879395, 35.934082, 42.326172, " y="-3.4023438, ">
				Frequency (Hz)
		</text>
		<text transform="translate(57.4048 365.326)" font-size="13" font-family="Microsoft YaHei, 微软雅黑" x="-28.24707, -20.623535, -13.247559, -7.6235352, " y="5.1765137, ">
				1e-6
		</text>
		<text transform="translate(57.4048 222.143)" font-size="13" font-family="Microsoft YaHei, 微软雅黑" x="-28.24707, -20.623535, -13.247559, -7.6235352, " y="5.1765137, ">
				1e-5
		</text>
		<text transform="translate(57.4048 78.9588)" font-size="13" font-family="Microsoft YaHei, 微软雅黑" x="-28.24707, -20.623535, -13.247559, -7.6235352, " y="5.1765137, ">
				1e-4
		</text>
		<path fill="none" stroke="#00008B" stroke-width="1" stroke-miterlimit="10" stroke-opacity="0.11764706" d="M61.4048 365.326L929.376 365.326M61.4048 222.143L929.376 222.143M61.4048 78.9588L929.376 78.9588"/>
		<path fill="none" stroke="#D9D9D9" stroke-width="1" stroke-miterlimit="10" d="M68.4048 365.326L61.4048 365.326M68.4048 222.143L61.4048 222.143M68.4048 78.9588L61.4048 78.9588"/>
		<text transform="matrix(0 -1 1 0 12 246.211)" font-size="13" font-family="Microsoft YaHei, 微软雅黑" x="-40.977295, -31.074951, -27.615479, -21.5979, -17.751221, -9.9055176, -2.7199707, 7.5441895, 13.371338, 20.823486, 28.447021, 32.293701, 36.635498, " y="13.755371, ">
				Dis Yaw_T7 ()
		</text>
		<clipPath id="cl_40">
			<rect x="61.404785" y="39.736572" width="867.97168" height="412.948"/>
		</clipPath>
		<g clip-path="url(#cl_40)">
			<path fill="none" stroke="#2CA02C" stroke-width="1.5" stroke-linejoin="bevel" d="M61.4048 188.233L171.179 86.4661L235.393 53.7089L280.953 55.4178L316.292 49.0323L345.167 49.8577L369.58 42.1808L390.727 59.5343L409.38 56.3804L426.066 39.7366L441.161 49.8591L454.941 59.8635L467.617 80.6934L479.354 67.2938L490.28 55.4588L500.501 66.8148L510.102 64.8272L519.154 76.485L527.717 80.4874L535.841 93.886L543.567 97.2279L550.935 101.14L557.975 107.114L564.715 118.48L571.18 114.461L577.391 106.848L583.368 109.422L589.128 118.748L594.685 126.141L600.054 124.287L605.247 150.353L610.275 145.014L615.149 138.669L619.876 156.763L624.467 161.191L628.929 158.553L633.268 144.439L637.491 134.954L641.605 143.355L645.615 157.775L649.525 163.895L653.341 162.287L657.068 173.999L660.709 173.721L664.268 168.284L667.749 175.993L671.155 172.492L674.489 161.368L677.754 162.378L680.954 183.019L684.09 168.691L687.165 158.972L690.182 173.082L693.142 170.834L696.048 153.993L698.902 142.539L701.705 158.6L704.459 157.462L707.167 142.878L709.828 148.718L712.446 152.433L715.021 163.966L717.555 152.724L720.049 143.271L722.505 141.146L724.923 145.473L727.304 158.492L729.65 174.095L731.962 178.138L734.241 173.082L736.488 150.086L738.703 151.037L740.887 157.893L743.042 164.444L745.168 174.001L747.265 163.48L749.336 160.159L751.379 170.296L753.397 175.475L755.389 177.049L757.356 171.009L759.299 201.191L761.219 187.968L763.116 186.683L764.99 180.531L766.842 171.509L768.673 173.465L770.483 178.194L772.273 169.421L774.042 163.459L775.792 192.935L777.523 173.864L779.235 167.561L780.929 184.251L782.605 196.674L784.263 173.613L785.904 181.317L787.529 186.405L789.136 184.71L790.728 197.629L792.304 189.78L793.864 193.954L796.939 209.148L798.455 213.985L799.956 195.122L801.443 190.119L802.916 176.63L804.376 187.865L805.822 196.892L808.676 193.355L810.084 209.99L811.479 216.834L812.862 213.446L814.233 206.905L815.593 192.156L816.941 205.756L818.277 208.336L819.602 214.02L820.917 236.787L822.22 224.675L824.795 218.814L826.067 205.415L827.329 195.735L828.581 215.806L829.823 218.077L831.056 232.177L832.279 242.792L833.492 245.611L834.697 230.43L837.078 229.893L838.256 225.786L839.425 243.186L840.585 266.401L841.737 234.576L842.88 226.545L845.143 243.334L846.262 264.919L847.373 288.359L848.477 263.822L849.573 248.502L851.742 254.641L853.882 267.027L854.942 290.692L855.994 287.814L857.039 280.473L858.078 270.669L860.135 277.063L861.153 282.349L862.165 278.572L864.17 277.57L865.163 298.124L866.149 303.253L867.13 292.898L868.105 287.817L869.073 299.13L870.036 308.261L870.993 304.771L871.944 308.231L872.89 317.269L875.693 325.222L876.616 344.973L877.534 348.699L878.447 331.08L879.355 325.821L880.257 347.043L881.154 342.779L882.047 339.284L882.934 341.556L883.816 334.584L884.693 343.911L885.566 352.303L886.434 361.106L887.297 364.189L888.155 337.826L889.009 341.479L889.858 355.868L890.703 351.509L891.543 355.725L892.379 365.189L893.21 386.41L894.037 382.756L894.86 390.517L895.678 359.425L896.492 354.859L897.303 374.052L898.109 376.069L898.91 372.427L899.708 381.032L900.502 365.549L901.292 363.695L902.078 374.953L902.86 381.125L903.638 395.724L904.413 376.199L905.95 396.202L906.714 385.295L907.473 376.067L908.229 393.88L908.981 406.61L909.73 419.761L910.475 429.51L911.217 420.182L911.956 409.174L912.69 389.802L914.15 402.991L914.875 431.062L915.596 421.461L916.315 411.014L917.03 396.932L917.741 407.619L918.45 414.121L919.858 384.136L920.557 379.819L921.253 396.873L921.946 400.954L922.636 392.081L923.323 410.986L924.689 416.36L925.367 411.546L926.042 419.567L926.715 436.159L927.384 433.884L928.051 438.302L928.715 421.211L929.376 423.844L930.035 431.869"/>
			<path fill="none" stroke="#FF0037" stroke-width="1.5" stroke-linejoin="bevel" d="M61.4048 224.837L171.179 103.202L235.393 61.0105L280.953 60.663L316.292 55.318L345.167 55.5009L369.58 48.9243L390.727 67.9816L409.38 65.5171L426.066 48.842L441.161 57.5247L454.941 66.9447L467.617 87.3716L479.354 74.1896L490.28 62.5937L500.501 75.0357L510.102 71.5851L519.154 82.7813L527.717 86.191L535.841 103.091L543.567 106.601L550.935 111.627L557.975 119.46L564.715 129.916L571.18 123.586L577.391 116.507L583.368 116.434L589.128 127.261L594.685 135.723L600.054 135.685L605.247 160.644L610.275 156.736L615.149 149.772L619.876 164.142L624.467 168.341L628.929 171.823L633.268 159.107L637.491 148.479L641.605 153.039L645.615 167.951L649.525 174.528L653.341 175.144L657.068 184.151L660.709 188.895L664.268 182.958L667.749 190.953L671.155 183.538L674.489 172.298L677.754 171.579L680.954 189.331L684.09 179.043L687.165 169.986L690.182 185.505L693.142 181.357L696.048 165.877L698.902 155.418L701.705 171.603L704.459 168.637L707.167 154.699L709.828 162.479L712.446 166.675L715.021 179.826L717.555 169.641L720.049 160.122L722.505 156.888L724.923 160L727.304 175.41L729.65 192.892L731.962 198.288L734.241 192.969L736.488 165.557L738.703 164.277L740.887 171.852L743.042 170.536L745.168 182.109L747.265 178.984L749.336 174.823L751.379 175.444L753.397 177.522L755.389 181.515L757.356 179.502L759.299 201.041L761.219 186.251L763.116 184.561L766.842 188.56L768.673 200.084L770.483 205.928L772.273 202.283L775.792 229.585L777.523 208.698L779.235 204.088L780.929 220.995L782.605 237.158L784.263 211.364L785.904 213.231L787.529 221.308L790.728 235.182L792.304 230.661L793.864 240.617L795.409 246.712L796.939 265.832L798.455 284.635L799.956 310.393L801.443 359.427L802.916 365.706L804.376 376.242L805.822 390.892L807.256 351.764L808.676 286.339L810.084 268.541L811.479 262.997L812.862 261.492L814.233 259.696L815.593 244.952L816.941 249.568L818.277 238.62L820.917 259.747L822.22 247.906L824.795 243.297L826.067 229.154L827.329 221.366L828.581 244.619L829.823 248.321L831.056 259.912L832.279 268.738L833.492 273.315L834.697 260.158L837.078 259.109L838.256 255.605L839.425 272.831L840.585 293.721L841.737 258.837L842.88 248.823L845.143 267.62L846.262 293.387L847.373 315.885L848.477 289.198L849.573 273.795L850.661 279.165L851.742 285.38L852.816 283.395L853.882 296.162L854.942 317.851L855.994 313.953L857.039 310.273L858.078 305.923L859.11 308.166L860.135 310.64L861.153 314.553L863.171 314.295L864.17 319.711L865.163 346.79L866.149 351.05L867.13 332.681L868.105 326.313L869.073 335.863L870.993 329.025L871.944 334.753L872.89 346.826L873.83 339.442L874.764 329.155L875.693 340.416L876.616 359.393L877.534 375.213L878.447 362.267L879.355 340.273L880.257 349.38L881.154 344.66L882.047 350.871L882.934 361.192L883.816 346.461L884.693 343.9L885.566 350.616L886.434 363.201L887.297 352.734L888.155 324.211L889.009 341.186L889.858 350.25L890.703 343.697L891.543 361.105L892.379 382.002L893.21 392.263L894.037 379.296L894.86 385.225L895.678 362.351L896.492 369.445L897.303 392.78L898.109 395.633L898.91 388.562L899.708 398.1L900.502 389.913L901.292 382.768L902.86 397.777L903.638 419.926L904.413 396.457L905.95 418.648L906.714 405.721L907.473 400.741L908.229 411.194L908.981 418.091L909.73 441.741L910.475 452.685L911.217 448.836L911.956 440.842L912.69 419.652L914.15 425.513L914.875 423.063L916.315 409.853L917.03 387.201L917.741 378.743L918.45 386.227L919.155 390.025L920.557 397.555L921.253 415.922L921.946 424.698L922.636 409.217L923.323 369.403L924.007 339.223L924.689 311.51L925.367 313.395L926.042 339.875L926.715 395.404L927.384 367.463L928.051 320.895L928.715 312.717L929.376 330.88L930.035 360.763"/>
		</g>
		<text transform="translate(495.391 8)" font-size="13" font-family="Microsoft YaHei, 微软雅黑" x="-393.04053, -384.34424, -381.21484, -375.80664, -366.10107, -360.0835, -352.70752, -347.74365, -341.72607, -336.31787, -331.16992, -323.79395, -319.28711, -314.78027, -309.81641, -302.44043, -295.55957, -290.15137, -280.24902, -272.87305, -266.85547, -259.77783, -254.93457, -246.66992, -238.36719, -232.95898, -225.33545, -217.71191, -210.08838, -202.46484, -199.33545, -191.71191, -184.08838, -178.68018, -171.22803, -163.60449, -157.77734, -153.95605, -145.25977, -137.75684, -132.34863, -124.89648, -117.27295, -111.4458, -107.62451, -98.928223, -91.425293, -86.01709, -78.393555, -70.77002, -64.942871, -57.490723, -49.867188, -41.170898, -32.90625, -20.725098, -12.422363, -4.4116211, 0.43164063, 7.8076172, 12.771484, 18.179688, 22.000977, 30.697266, 38.200195, 44.027344, 50.69873, 61.292969, 70.960449, 80.62793, 86.036133, 94.522949, 101.89893, 107.9165, 116.21924, 124.48389, 132.49463, 138.51221, 145.88818, 153.51172, 156.64111, 162.65869, 170.03467, 174.5415, 177.6709, 181.51758, 188.18896, 195.56494, 203.57568, 213.21777, 220.84131, 223.9707, 231.59424, 237.61182, 240.74121, 244.58789, 251.49414, 257.51172, 267.15381, 274.77734, 282.40088, 290.02441, 297.64795, 307.70264, 314.09473, 317.22412, 321.0708, 331.63965, 338.5459, 345.45215, 352.9043, 362.54639, 370.16992, 377.79346, 385.41699, " y="13.755371, ">
				C:\Users\Jeffrey\Desktop\2023.07\T7_ICS\T7_ICS\86_T7Computer\ICS_LOGG\Response2.sef, Len=2.0s, Fs=1000Hz, NFFT=2000
		</text>
		<rect fill="none" stroke="black" stroke-width="1" stroke-miterlimit="10" stroke-opacity="0.73725492" x="61.404785" y="39.736572" width="867.97168" height="412.948"/>
		<rect fill="white" fill-opacity="0.39215687" x="630.48077" y="54.736572" width="283.89569" height="44.31543"/>
		<clipPath id="cl_41">
			<rect x="630.48077" y="54.736572" width="283.89569" height="44.31543"/>
		</clipPath>
		<g clip-path="url(#cl_41)">
			<text transform="translate(677.481 59.7366)" font-size="13" font-family="Microsoft YaHei, 微软雅黑" x="0, 4.3417969, 8.6835938, 16.135742, 23.321289, 28.285156, 36.600586, 43.976563, 48.819824, 54.443848, 60.067871, 65.691895, 75.594238, 79.053711, 85.071289, 88.917969, 96.763672, 103.94922, " y="13.755371, ">
					[]Target---Dis Yaw
			</text>
			<text transform="translate(793.694 59.7366)" font-size="13" font-family="Microsoft YaHei, 微软雅黑" x="0, 5.8271484, 13.279297, 20.902832, 25.244629, 29.586426, " y="13.755371, ">
					_T7(()
			</text>
			<text transform="translate(827.622 59.7366)" font-size="8.0600004" font-family="Microsoft YaHei, 微软雅黑" x="2.3849416, " y="8.5283308, ">
					2
			</text>
			<text transform="translate(836.734 59.7366)" font-size="13" font-family="Microsoft YaHei, 微软雅黑" x="0, 5.5541992, 9.4008789, 19.455566, 25.847656, 30.189453, 34.036133, 38.37793, " y="13.755371, ">
					/ Hz) ()
			</text>
			<path fill="none" stroke="#2CA02C" stroke-width="1.5" stroke-miterlimit="10" d="M635.481 68.3154L665.481 68.3154"/>
			<text transform="translate(677.481 76.8943)" font-size="13" font-family="Microsoft YaHei, 微软雅黑" x="0, 4.3417969, 8.6835938, 17.830566, 24.349609, 29.192871, 37.203613, 44.38916, 47.848633, 53.472656, 59.09668, 64.720703, 72.674316, 80.938965, 86.956543, 90.416016, 95.259277, 98.71875, 106.9834, 114.99414, 118.84082, 126.68652, 133.87207, " y="13.755371, ">
					[]Actual---Position Yaw
			</text>
			<text transform="translate(823.617 76.8943)" font-size="13" font-family="Microsoft YaHei, 微软雅黑" x="0, 5.8271484, 13.279297, 20.902832, 25.244629, 29.586426, " y="13.755371, ">
					_T7(()
			</text>
			<text transform="translate(857.545 76.8943)" font-size="8.0600004" font-family="Microsoft YaHei, 微软雅黑" x="2.3849416, " y="8.5283308, ">
					2
			</text>
			<text transform="translate(866.657 76.8943)" font-size="13" font-family="Microsoft YaHei, 微软雅黑" x="0, 5.5541992, 9.4008789, 19.455566, 25.847656, 30.189453, 34.036133, 38.37793, " y="13.755371, ">
					/ Hz) ()
			</text>
			<path fill="none" stroke="#FF0037" stroke-width="1.5" stroke-miterlimit="10" d="M635.481 85.4731L665.481 85.4731"/>
		</g>
	</g>
</svg>
