<?xml version="1.0" encoding="utf-8" ?>
<svg xmlns="http://www.w3.org/2000/svg" xmlns:xlink="http://www.w3.org/1999/xlink" width="945" height="503">
	<rect fill="white" width="945" height="503"/>
	<clipPath id="cl_18">
		<rect width="945" height="503"/>
	</clipPath>
	<g clip-path="url(#cl_18)">
		<path fill="none" stroke="#00008B" stroke-width="1" stroke-miterlimit="10" stroke-opacity="0.078431375" d="M89.8635 39.7366L89.8635 452.685M134.768 39.7366L134.768 452.685M169.599 39.7366L169.599 452.685M198.057 39.7366L198.057 452.685M222.119 39.7366L222.119 452.685M242.962 39.7366L242.962 452.685M261.347 39.7366L261.347 452.685M277.793 39.7366L277.793 452.685M385.987 39.7366L385.987 452.685M449.276 39.7366L449.276 452.685M494.181 39.7366L494.181 452.685M529.011 39.7366L529.011 452.685M557.47 39.7366L557.47 452.685M581.531 39.7366L581.531 452.685M602.375 39.7366L602.375 452.685M620.759 39.7366L620.759 452.685M637.205 39.7366L637.205 452.685M745.399 39.7366L745.399 452.685M808.689 39.7366L808.689 452.685M853.593 39.7366L853.593 452.685M888.424 39.7366L888.424 452.685M916.883 39.7366L916.883 452.685"/>
		<path fill="none" stroke="#D9D9D9" stroke-width="1" stroke-miterlimit="10" d="M89.8635 448.685L89.8635 452.685M134.768 448.685L134.768 452.685M169.599 448.685L169.599 452.685M198.057 448.685L198.057 452.685M222.119 448.685L222.119 452.685M242.962 448.685L242.962 452.685M261.347 448.685L261.347 452.685M277.793 448.685L277.793 452.685M385.987 448.685L385.987 452.685M449.276 448.685L449.276 452.685M494.181 448.685L494.181 452.685M529.011 448.685L529.011 452.685M557.47 448.685L557.47 452.685M581.531 448.685L581.531 452.685M602.375 448.685L602.375 452.685M620.759 448.685L620.759 452.685M637.205 448.685L637.205 452.685M745.399 448.685L745.399 452.685M808.689 448.685L808.689 452.685M853.593 448.685L853.593 452.685M888.424 448.685L888.424 452.685M916.883 448.685L916.883 452.685"/>
		<path fill="none" stroke="#00008B" stroke-width="1" stroke-miterlimit="10" stroke-opacity="0.078431375" d="M61.4048 448.883L929.376 448.883M61.4048 435.71L929.376 435.71M61.4048 425.493L929.376 425.493M61.4048 417.146L929.376 417.146M61.4048 410.087L929.376 410.087M61.4048 403.973L929.376 403.973M61.4048 398.581L929.376 398.581M61.4048 393.756L929.376 393.756M61.4048 362.019L929.376 362.019M61.4048 343.454L929.376 343.454M61.4048 330.282L929.376 330.282M61.4048 320.065L929.376 320.065M61.4048 311.717L929.376 311.717M61.4048 304.659L929.376 304.659M61.4048 298.545L929.376 298.545M61.4048 293.152L929.376 293.152M61.4048 288.328L929.376 288.328M61.4048 256.591L929.376 256.591M61.4048 238.026L929.376 238.026M61.4048 224.854L929.376 224.854M61.4048 214.637L929.376 214.637M61.4048 206.289L929.376 206.289M61.4048 199.231L929.376 199.231M61.4048 193.117L929.376 193.117M61.4048 187.724L929.376 187.724M61.4048 182.9L929.376 182.9M61.4048 151.163L929.376 151.163M61.4048 132.598L929.376 132.598M61.4048 119.426L929.376 119.426M61.4048 109.209L929.376 109.209M61.4048 100.861L929.376 100.861M61.4048 93.8028L929.376 93.8028M61.4048 87.6888L929.376 87.6888M61.4048 82.2959L929.376 82.2959M61.4048 77.4718L929.376 77.4718M61.4048 45.7347L929.376 45.7347"/>
		<path fill="none" stroke="#D9D9D9" stroke-width="1" stroke-miterlimit="10" d="M65.4048 448.883L61.4048 448.883M65.4048 435.71L61.4048 435.71M65.4048 425.493L61.4048 425.493M65.4048 417.146L61.4048 417.146M65.4048 410.087L61.4048 410.087M65.4048 403.973L61.4048 403.973M65.4048 398.581L61.4048 398.581M65.4048 393.756L61.4048 393.756M65.4048 362.019L61.4048 362.019M65.4048 343.454L61.4048 343.454M65.4048 330.282L61.4048 330.282M65.4048 320.065L61.4048 320.065M65.4048 311.717L61.4048 311.717M65.4048 304.659L61.4048 304.659M65.4048 298.545L61.4048 298.545M65.4048 293.152L61.4048 293.152M65.4048 288.328L61.4048 288.328M65.4048 256.591L61.4048 256.591M65.4048 238.026L61.4048 238.026M65.4048 224.854L61.4048 224.854M65.4048 214.637L61.4048 214.637M65.4048 206.289L61.4048 206.289M65.4048 199.231L61.4048 199.231M65.4048 193.117L61.4048 193.117M65.4048 187.724L61.4048 187.724M65.4048 182.9L61.4048 182.9M65.4048 151.163L61.4048 151.163M65.4048 132.598L61.4048 132.598M65.4048 119.426L61.4048 119.426M65.4048 109.209L61.4048 109.209M65.4048 100.861L61.4048 100.861M65.4048 93.8028L61.4048 93.8028M65.4048 87.6888L61.4048 87.6888M65.4048 82.2959L61.4048 82.2959M65.4048 77.4718L61.4048 77.4718M65.4048 45.7347L61.4048 45.7347"/>
		<text transform="translate(277.793 456.685)" font-size="13" font-family="Microsoft YaHei, 微软雅黑" x="-3.8117676, " y="13.755371, ">
				1
		</text>
		<text transform="translate(637.205 456.685)" font-size="13" font-family="Microsoft YaHei, 微软雅黑" x="-7.6235352, 0, " y="13.755371, ">
				10
		</text>
		<path fill="none" stroke="#00008B" stroke-width="1" stroke-miterlimit="10" stroke-opacity="0.11764706" d="M277.793 39.7366L277.793 452.685M637.205 39.7366L637.205 452.685"/>
		<path fill="none" stroke="#D9D9D9" stroke-width="1" stroke-miterlimit="10" d="M277.793 445.685L277.793 452.685M637.205 445.685L637.205 452.685"/>
		<text transform="translate(495.391 491)" font-size="13" font-family="Microsoft YaHei, 微软雅黑" x="-46.667969, -39.761719, -34.797852, -27.421875, -19.106445, -11.095703, -3.7197266, 4.2910156, 10.810059, 17.690918, 21.537598, 25.879395, 35.934082, 42.326172, " y="-3.4023438, ">
				Frequency (Hz)
		</text>
		<text transform="translate(57.4048 393.756)" font-size="13" font-family="Microsoft YaHei, 微软雅黑" x="-28.24707, -20.623535, -13.247559, -7.6235352, " y="5.1765137, ">
				1e-7
		</text>
		<text transform="translate(57.4048 288.328)" font-size="13" font-family="Microsoft YaHei, 微软雅黑" x="-28.24707, -20.623535, -13.247559, -7.6235352, " y="5.1765137, ">
				1e-6
		</text>
		<text transform="translate(57.4048 182.9)" font-size="13" font-family="Microsoft YaHei, 微软雅黑" x="-28.24707, -20.623535, -13.247559, -7.6235352, " y="5.1765137, ">
				1e-5
		</text>
		<text transform="translate(57.4048 77.4718)" font-size="13" font-family="Microsoft YaHei, 微软雅黑" x="-28.24707, -20.623535, -13.247559, -7.6235352, " y="5.1765137, ">
				1e-4
		</text>
		<path fill="none" stroke="#00008B" stroke-width="1" stroke-miterlimit="10" stroke-opacity="0.11764706" d="M61.4048 393.756L929.376 393.756M61.4048 288.328L929.376 288.328M61.4048 182.9L929.376 182.9M61.4048 77.4718L929.376 77.4718"/>
		<path fill="none" stroke="#D9D9D9" stroke-width="1" stroke-miterlimit="10" d="M68.4048 393.756L61.4048 393.756M68.4048 288.328L61.4048 288.328M68.4048 182.9L61.4048 182.9M68.4048 77.4718L61.4048 77.4718"/>
		<text transform="matrix(0 -1 1 0 12 246.211)" font-size="13" font-family="Microsoft YaHei, 微软雅黑" x="-40.977295, -31.074951, -27.615479, -21.5979, -17.751221, -9.9055176, -2.7199707, 7.5441895, 13.371338, 20.823486, 28.447021, 32.293701, 36.635498, " y="13.755371, ">
				Dis Yaw_T7 ()
		</text>
		<clipPath id="cl_19">
			<rect x="61.404785" y="39.736572" width="867.97168" height="412.948"/>
		</clipPath>
		<g clip-path="url(#cl_19)">
			<path fill="none" stroke="#2CA02C" stroke-width="1.5" stroke-linejoin="bevel" d="M61.4048 146.829L169.599 121.262L232.888 117.17L277.793 123.898L312.623 118.887L341.082 119.503L365.144 113.865L385.987 126.65L404.371 124.325L420.817 112.068L435.694 119.517L449.276 126.885L461.77 142.221L473.338 132.356L484.107 123.642L494.181 132.005L503.644 130.54L512.565 139.125L521.005 142.071L529.011 151.937L536.627 154.398L543.888 157.279L550.827 161.676L557.47 170.046L563.842 167.086L569.964 161.482L575.855 163.376L581.531 170.243L587.009 175.687L592.301 174.322L597.419 193.514L602.375 189.583L607.178 184.911L611.838 198.234L616.362 201.495L620.759 199.552L625.036 189.16L629.199 182.176L633.253 188.361L637.205 198.98L641.06 203.486L644.821 202.301L648.494 210.925L652.082 210.72L655.59 206.717L659.021 212.394L662.378 209.816L665.664 201.625L668.882 202.369L672.036 217.567L675.127 207.017L678.158 199.861L681.131 210.25L684.049 208.595L686.913 196.195L689.725 187.761L692.488 199.587L695.203 198.749L697.871 188.011L700.495 192.31L703.075 195.046L705.613 203.538L708.11 195.26L710.568 188.3L712.989 186.735L715.372 189.921L717.719 199.507L720.031 210.996L722.31 213.973L724.556 210.25L726.77 193.318L728.953 194.018L731.106 199.066L733.23 203.89L735.325 210.927L737.393 203.18L739.433 200.735L741.447 208.198L743.436 212.012L745.399 213.171L747.338 208.724L749.253 230.947L751.146 221.211L753.015 220.265L754.862 215.735L756.688 209.092L758.492 210.532L760.276 214.015L762.04 207.554L763.784 203.165L765.509 224.868L767.215 210.826L768.902 206.185L770.572 218.474L772.223 227.621L773.858 210.641L775.475 216.314L777.076 220.06L778.661 218.812L780.23 228.325L781.783 222.545L783.321 225.619L786.352 236.806L787.846 240.367L789.325 226.478L790.791 222.795L792.243 212.862L793.681 221.135L795.107 227.782L797.919 225.177L799.307 237.426L800.682 242.466L802.045 239.97L803.397 235.155L804.737 224.295L806.065 234.308L807.382 236.208L808.689 240.394L809.984 257.157L811.269 248.239L813.807 243.923L815.061 234.057L816.304 226.93L817.538 241.709L818.762 243.38L819.977 253.763L821.182 261.579L822.379 263.654L823.566 252.476L825.913 252.081L827.073 249.057L828.225 261.868L829.369 278.963L830.504 255.529L831.631 249.615L833.861 261.978L834.964 277.871L836.06 295.13L837.147 277.063L838.228 265.783L840.366 270.303L842.475 279.423L843.519 296.848L844.556 294.729L845.587 289.323L846.61 282.105L848.637 286.813L849.641 290.705L850.639 287.924L852.615 287.186L853.593 302.32L854.566 306.097L855.532 298.472L856.493 294.731L857.447 303.061L858.396 309.784L859.339 307.215L860.277 309.762L861.209 316.417L863.972 322.273L864.882 336.816L865.787 339.559L866.686 326.586L867.581 322.714L868.47 338.34L869.355 335.2L870.234 332.627L871.978 329.167L872.843 336.034L873.703 342.213L874.558 348.695L875.409 350.965L876.255 331.554L877.096 334.243L877.933 344.838L878.766 341.629L879.594 344.733L880.417 351.701L881.237 367.326L882.052 364.636L882.863 370.35L883.669 347.457L884.472 344.095L885.27 358.227L887.641 363.367L888.424 351.966L889.977 358.89L890.748 363.435L891.515 374.185L892.278 359.808L893.794 374.536L894.546 366.506L895.294 359.711L896.039 372.827L896.781 382.199L897.519 391.884L898.254 399.062L898.985 392.194L899.712 384.088L900.437 369.824L901.875 379.536L902.59 400.204L903.301 393.135L904.009 385.443L904.713 375.073L905.415 382.944L906.113 387.73L907.501 365.652L908.19 362.473L908.876 375.028L909.559 378.036L910.239 371.505L910.917 385.421L912.262 389.374L912.931 385.838L913.596 391.733L914.259 403.928L915.576 405.452L916.231 396.469L916.883 421.253L917.532 488.735L918.178 611.068L918.822 803.34L919.463 916.463L920.101 972.628L920.737 1019.54L921.37 1068.89L922.001 1088.87L922.629 1118.22L923.254 1148.2L923.878 1167.65L924.498 1186.99L925.116 1206.6L925.732 1222.97L926.345 1240.29L926.956 1252.93L927.565 1266.76L928.171 1283.54L928.775 1289.27L929.376 1307.48L929.976 1313.9"/>
			<path fill="none" stroke="#FF0037" stroke-width="1.5" stroke-linejoin="bevel" d="M61.4048 120.5L169.599 110.533L232.888 108.152L277.793 117.882L312.623 118.459L341.082 120.954L365.144 113.681L385.987 124.07L404.371 120.016L420.817 111.315L435.694 121.036L449.276 127.283L461.77 146.073L473.338 138.809L484.107 127.922L494.181 133.692L503.644 136.13L512.565 141.705L521.005 138.621L529.011 154.13L536.627 163.286L543.888 158.342L550.827 161.106L557.47 163.276L563.842 158.341L569.964 158.901L575.855 165.954L581.531 176.143L587.009 177.953L592.301 175.198L597.419 196.835L602.375 182.129L607.178 175.432L611.838 187.539L616.362 194.724L620.759 193.736L625.036 181.808L629.199 177.366L633.253 182.698L637.205 200.136L641.06 198.942L644.821 190.162L648.494 200.663L652.082 201.516L655.59 200.801L659.021 202.854L662.378 201.848L665.664 195.917L668.882 198.368L672.036 207.786L675.127 191.688L678.158 188.515L681.131 205.594L684.049 209.517L686.913 193.574L689.725 181.299L692.488 196.135L695.203 191.681L697.871 180.213L700.495 183.251L703.075 185.408L705.613 191.527L708.11 195.283L710.568 183.723L712.989 181.284L715.372 182.229L717.719 191.067L720.031 190.629L722.31 186.229L724.556 194.936L726.77 184.571L728.953 183.21L731.106 185.261L733.23 185.602L735.325 171.904L737.393 162.378L739.433 167.145L741.447 164.651L743.436 158.727L745.399 167.241L747.338 156.123L749.253 141.286L751.146 129.835L753.015 122.074L754.862 106.161L758.492 114.432L760.276 138.552L762.04 156.092L763.784 163.259L765.509 175.885L767.215 178.747L768.902 188.786L770.572 197.962L772.223 214.364L773.858 202.28L775.475 207.157L777.076 220.718L778.661 217.369L780.23 226.948L783.321 226.252L786.352 233.914L787.846 237.858L789.325 229.471L792.243 218.317L793.681 224.679L795.107 229.609L796.519 235.458L797.919 230.943L799.307 243.719L800.682 249.07L802.045 244.975L803.397 239.27L804.737 232.792L806.065 242.628L807.382 238.753L808.689 243.259L809.984 259.607L811.269 255.269L812.543 258.647L813.807 254.535L815.061 244.409L816.304 236.085L817.538 252.777L819.977 259.434L821.182 266.406L822.379 271.17L823.566 261.078L825.913 260.835L827.073 255.535L828.225 270.038L829.369 287.573L830.504 264.286L831.631 258.057L833.861 271.116L834.964 286.969L836.06 304.713L837.147 288.063L838.228 277.324L840.366 278.704L842.475 288.265L843.519 307.274L844.556 304.645L845.587 297.385L846.61 289.993L848.637 297.231L849.641 304.209L851.63 299.759L852.615 296.668L853.593 309.932L854.566 314.197L855.532 309.544L856.493 305.663L857.447 309.655L859.339 306.795L860.277 313.505L861.209 319.262L863.056 322.173L863.972 328.932L864.882 341.703L865.787 343.805L866.686 328.266L867.581 323.402L868.47 337.182L869.355 334.691L870.234 337.35L871.108 340.083L871.978 337.488L872.843 349.39L873.703 352.642L874.558 356.813L876.255 340.829L877.096 348.152L877.933 361.781L878.766 356.976L880.417 362.501L881.237 379.908L883.669 357.676L884.472 354.774L885.27 366.191L887.641 374.784L888.424 366.107L889.202 363.673L889.977 368.919L890.748 372.921L891.515 379.855L892.278 368.07L893.794 383.314L894.546 376.061L895.294 371.064L896.039 385.212L896.781 392.792L897.519 394.962L898.254 401.43L898.985 399.385L899.712 394.046L900.437 379.729L901.875 387.642L902.59 408.687L903.301 399.908L904.009 391.634L904.713 383.871L905.415 388.835L906.113 393.533L907.501 373.509L908.19 370.172L908.876 383.779L909.559 387.775L910.239 381.81L910.917 394.627L911.591 397.063L912.262 401.739L912.931 396.019L913.596 399.649L914.259 412.728L915.576 416.672L916.231 409.784L916.883 440.198L917.532 530.607L918.178 695.304L918.822 865.846L919.463 944.68L920.101 999.978L920.737 1043.46L921.37 1079.32L922.001 1109.71L922.629 1137.3L923.254 1161L923.878 1182.62L924.498 1202.52L925.116 1220.62L925.732 1237.05L926.345 1252.52L926.956 1267.34L927.565 1280.55L928.171 1293.27L928.775 1305.7L929.376 1316.72L929.976 1327.73"/>
		</g>
		<text transform="translate(495.391 8)" font-size="13" font-family="Microsoft YaHei, 微软雅黑" x="-389.22876, -380.53247, -377.40308, -371.99487, -362.28931, -356.27173, -348.89575, -343.93188, -337.91431, -332.5061, -327.35815, -319.98218, -315.47534, -310.96851, -306.00464, -298.62866, -291.7478, -286.3396, -276.43726, -269.06128, -263.0437, -255.96606, -251.1228, -242.85815, -234.55542, -229.14722, -221.52368, -213.90015, -206.27661, -198.65308, -195.52368, -187.90015, -180.27661, -174.86841, -167.41626, -159.79272, -153.96558, -150.14429, -141.448, -133.94507, -128.53687, -121.08472, -113.46118, -107.63403, -103.81274, -95.116455, -87.613525, -82.205322, -74.581787, -66.958252, -61.131104, -53.678955, -46.05542, -37.359131, -29.094482, -16.91333, -8.6105957, -0.59985352, 4.2434082, 11.619385, 16.583252, 21.991455, 25.812744, 34.509033, 42.011963, 47.839111, 54.510498, 65.104736, 74.772217, 84.439697, 89.8479, 98.334717, 105.71069, 111.72827, 120.03101, 128.29565, 136.3064, 142.32397, 149.69995, 157.32349, 160.45288, 166.47046, 173.84644, 178.35327, 181.48267, 185.32935, 192.00073, 199.37671, 207.38745, 217.02954, 224.65308, 227.78247, 235.40601, 241.42358, 244.55298, 248.39966, 255.30591, 261.32349, 270.96558, 278.58911, 286.21265, 293.83618, 301.45972, 311.5144, 317.90649, 321.03589, 324.88257, 335.45142, 342.35767, 349.26392, 356.71606, 366.35815, 373.98169, 381.60522, " y="13.755371, ">
				C:\Users\Jeffrey\Desktop\2023.07\T7_ICS\T7_ICS\99_T7Computer\ICS_LOGG\Response2.sef, Len=2.0s, Fs=1000Hz, NFFT=712
		</text>
		<rect fill="none" stroke="black" stroke-width="1" stroke-miterlimit="10" stroke-opacity="0.73725492" x="61.404785" y="39.736572" width="867.97168" height="412.948"/>
		<rect fill="white" fill-opacity="0.39215687" x="635.78107" y="54.736572" width="278.5954" height="44.31543"/>
		<clipPath id="cl_1a">
			<rect x="635.78107" y="54.736572" width="278.5954" height="44.31543"/>
		</clipPath>
		<g clip-path="url(#cl_1a)">
			<text transform="translate(682.781 59.7366)" font-size="13" font-family="Microsoft YaHei, 微软雅黑" x="0, 4.3417969, 8.6835938, 16.135742, 23.321289, 28.285156, 36.600586, 43.976563, 48.819824, 54.443848, 60.067871, 65.691895, 75.594238, 79.053711, 85.071289, 88.917969, 96.763672, 103.94922, " y="13.755371, ">
					[]Target---Dis Yaw
			</text>
			<text transform="translate(798.994 59.7366)" font-size="13" font-family="Microsoft YaHei, 微软雅黑" x="0, 5.8271484, 13.279297, 20.902832, 25.244629, 29.586426, " y="13.755371, ">
					_T7(()
			</text>
			<text transform="translate(832.923 59.7366)" font-size="8.0600004" font-family="Microsoft YaHei, 微软雅黑" x="2.3849416, " y="8.5283308, ">
					2
			</text>
			<text transform="translate(842.034 59.7366)" font-size="13" font-family="Microsoft YaHei, 微软雅黑" x="0, 5.5541992, 9.4008789, 19.455566, 25.847656, 30.189453, 34.036133, 38.37793, " y="13.755371, ">
					/ Hz) ()
			</text>
			<path fill="none" stroke="#2CA02C" stroke-width="1.5" stroke-miterlimit="10" d="M640.781 68.3154L670.781 68.3154"/>
			<text transform="translate(682.781 76.8943)" font-size="13" font-family="Microsoft YaHei, 微软雅黑" x="0, 4.3417969, 8.6835938, 17.830566, 24.349609, 29.192871, 37.203613, 44.38916, 47.848633, 53.472656, 59.09668, 64.720703, 74.623047, 78.08252, 84.100098, 92.402832, 99.550293, 105.56787, 110.41113, 113.54053, 121.38623, 128.57178, " y="13.755371, ">
					[]Actual---DispEst.Yaw
			</text>
			<text transform="translate(823.617 76.8943)" font-size="13" font-family="Microsoft YaHei, 微软雅黑" x="0, 5.8271484, 13.279297, 20.902832, 25.244629, 29.586426, " y="13.755371, ">
					_T7(()
			</text>
			<text transform="translate(857.545 76.8943)" font-size="8.0600004" font-family="Microsoft YaHei, 微软雅黑" x="2.3849416, " y="8.5283308, ">
					2
			</text>
			<text transform="translate(866.657 76.8943)" font-size="13" font-family="Microsoft YaHei, 微软雅黑" x="0, 5.5541992, 9.4008789, 19.455566, 25.847656, 30.189453, 34.036133, 38.37793, " y="13.755371, ">
					/ Hz) ()
			</text>
			<path fill="none" stroke="#FF0037" stroke-width="1.5" stroke-miterlimit="10" d="M640.781 85.4731L670.781 85.4731"/>
		</g>
	</g>
</svg>
