<?xml version="1.0" encoding="utf-8" ?>
<svg xmlns="http://www.w3.org/2000/svg" xmlns:xlink="http://www.w3.org/1999/xlink" width="945" height="503">
	<rect fill="white" width="945" height="503"/>
	<clipPath id="cl_15">
		<rect width="945" height="503"/>
	</clipPath>
	<g clip-path="url(#cl_15)">
		<path fill="none" stroke="#D9D9D9" stroke-width="1" stroke-miterlimit="10" d="M102.537 448.685L102.537 452.685M130.396 448.685L130.396 452.685M158.255 448.685L158.255 452.685M186.114 448.685L186.114 452.685M241.832 448.685L241.832 452.685M269.691 448.685L269.691 452.685M297.55 448.685L297.55 452.685M325.409 448.685L325.409 452.685M381.127 448.685L381.127 452.685M408.986 448.685L408.986 452.685M436.845 448.685L436.845 452.685M464.704 448.685L464.704 452.685M520.422 448.685L520.422 452.685M548.281 448.685L548.281 452.685M576.14 448.685L576.14 452.685M603.999 448.685L603.999 452.685M659.717 448.685L659.717 452.685M687.576 448.685L687.576 452.685M715.435 448.685L715.435 452.685M743.294 448.685L743.294 452.685M799.012 448.685L799.012 452.685M826.871 448.685L826.871 452.685M854.729 448.685L854.729 452.685M882.589 448.685L882.589 452.685"/>
		<path fill="none" stroke="#00008B" stroke-width="1" stroke-miterlimit="10" stroke-opacity="0.078431375" d="M61.4048 439.341L929.376 439.341M61.4048 426.966L929.376 426.966M61.4048 416.854L929.376 416.854M61.4048 408.305L929.376 408.305M61.4048 400.9L929.376 400.9M61.4048 394.368L929.376 394.368M61.4048 388.525L929.376 388.525M61.4048 350.083L929.376 350.083M61.4048 327.597L929.376 327.597M61.4048 311.642L929.376 311.642M61.4048 299.267L929.376 299.267M61.4048 289.155L929.376 289.155M61.4048 280.606L929.376 280.606M61.4048 273.201L929.376 273.201M61.4048 266.669L929.376 266.669M61.4048 260.825L929.376 260.825M61.4048 222.384L929.376 222.384M61.4048 199.897L929.376 199.897M61.4048 183.943L929.376 183.943M61.4048 171.567L929.376 171.567M61.4048 161.456L929.376 161.456M61.4048 152.907L929.376 152.907M61.4048 145.502L929.376 145.502M61.4048 138.969L929.376 138.969M61.4048 133.126L929.376 133.126M61.4048 94.6849L929.376 94.6849M61.4048 72.1982L929.376 72.1982M61.4048 56.2437L929.376 56.2437M61.4048 43.8683L929.376 43.8683"/>
		<path fill="none" stroke="#D9D9D9" stroke-width="1" stroke-miterlimit="10" d="M65.4048 439.341L61.4048 439.341M65.4048 426.966L61.4048 426.966M65.4048 416.854L61.4048 416.854M65.4048 408.305L61.4048 408.305M65.4048 400.9L61.4048 400.9M65.4048 394.368L61.4048 394.368M65.4048 388.525L61.4048 388.525M65.4048 350.083L61.4048 350.083M65.4048 327.597L61.4048 327.597M65.4048 311.642L61.4048 311.642M65.4048 299.267L61.4048 299.267M65.4048 289.155L61.4048 289.155M65.4048 280.606L61.4048 280.606M65.4048 273.201L61.4048 273.201M65.4048 266.669L61.4048 266.669M65.4048 260.825L61.4048 260.825M65.4048 222.384L61.4048 222.384M65.4048 199.897L61.4048 199.897M65.4048 183.943L61.4048 183.943M65.4048 171.567L61.4048 171.567M65.4048 161.456L61.4048 161.456M65.4048 152.907L61.4048 152.907M65.4048 145.502L61.4048 145.502M65.4048 138.969L61.4048 138.969M65.4048 133.126L61.4048 133.126M65.4048 94.6849L61.4048 94.6849M65.4048 72.1982L61.4048 72.1982M65.4048 56.2437L61.4048 56.2437M65.4048 43.8683L61.4048 43.8683"/>
		<text transform="translate(74.6779 456.685)" font-size="13" font-family="Microsoft YaHei, 微软雅黑" x="-3.8117676, " y="13.755371, ">
				0
		</text>
		<text transform="translate(213.973 456.685)" font-size="13" font-family="Microsoft YaHei, 微软雅黑" x="-7.6235352, 0, " y="13.755371, ">
				10
		</text>
		<text transform="translate(353.268 456.685)" font-size="13" font-family="Microsoft YaHei, 微软雅黑" x="-7.6235352, 0, " y="13.755371, ">
				20
		</text>
		<text transform="translate(492.563 456.685)" font-size="13" font-family="Microsoft YaHei, 微软雅黑" x="-7.6235352, 0, " y="13.755371, ">
				30
		</text>
		<text transform="translate(631.858 456.685)" font-size="13" font-family="Microsoft YaHei, 微软雅黑" x="-7.6235352, 0, " y="13.755371, ">
				40
		</text>
		<text transform="translate(771.153 456.685)" font-size="13" font-family="Microsoft YaHei, 微软雅黑" x="-7.6235352, 0, " y="13.755371, ">
				50
		</text>
		<text transform="translate(910.448 456.685)" font-size="13" font-family="Microsoft YaHei, 微软雅黑" x="-7.6235352, 0, " y="13.755371, ">
				60
		</text>
		<path fill="none" stroke="#00008B" stroke-width="1" stroke-miterlimit="10" stroke-opacity="0.11764706" d="M74.6779 39.7366L74.6779 452.685M213.973 39.7366L213.973 452.685M353.268 39.7366L353.268 452.685M492.563 39.7366L492.563 452.685M631.858 39.7366L631.858 452.685M771.153 39.7366L771.153 452.685M910.448 39.7366L910.448 452.685"/>
		<path fill="none" stroke="#D9D9D9" stroke-width="1" stroke-miterlimit="10" d="M74.6779 445.685L74.6779 452.685M213.973 445.685L213.973 452.685M353.268 445.685L353.268 452.685M492.563 445.685L492.563 452.685M631.858 445.685L631.858 452.685M771.153 445.685L771.153 452.685M910.448 445.685L910.448 452.685"/>
		<text transform="translate(495.391 491)" font-size="13" font-family="Microsoft YaHei, 微软雅黑" x="-46.667969, -39.761719, -34.797852, -27.421875, -19.106445, -11.095703, -3.7197266, 4.2910156, 10.810059, 17.690918, 21.537598, 25.879395, 35.934082, 42.326172, " y="-3.4023438, ">
				Frequency (Hz)
		</text>
		<text transform="translate(57.4048 388.525)" font-size="13" font-family="Microsoft YaHei, 微软雅黑" x="-28.24707, -20.623535, -13.247559, -7.6235352, " y="5.1765137, ">
				1e-7
		</text>
		<text transform="translate(57.4048 260.825)" font-size="13" font-family="Microsoft YaHei, 微软雅黑" x="-28.24707, -20.623535, -13.247559, -7.6235352, " y="5.1765137, ">
				1e-6
		</text>
		<text transform="translate(57.4048 133.126)" font-size="13" font-family="Microsoft YaHei, 微软雅黑" x="-28.24707, -20.623535, -13.247559, -7.6235352, " y="5.1765137, ">
				1e-5
		</text>
		<path fill="none" stroke="#00008B" stroke-width="1" stroke-miterlimit="10" stroke-opacity="0.11764706" d="M61.4048 388.525L929.376 388.525M61.4048 260.825L929.376 260.825M61.4048 133.126L929.376 133.126"/>
		<path fill="none" stroke="#D9D9D9" stroke-width="1" stroke-miterlimit="10" d="M68.4048 388.525L61.4048 388.525M68.4048 260.825L61.4048 260.825M68.4048 133.126L61.4048 133.126"/>
		<text transform="matrix(0 -1 1 0 12 246.211)" font-size="13" font-family="Microsoft YaHei, 微软雅黑" x="-40.977295, -31.074951, -27.615479, -21.5979, -17.751221, -9.9055176, -2.7199707, 7.5441895, 13.371338, 20.823486, 28.447021, 32.293701, 36.635498, " y="13.755371, ">
				Dis Yaw_T7 ()
		</text>
		<clipPath id="cl_16">
			<rect x="61.404785" y="39.736572" width="867.97168" height="412.948"/>
		</clipPath>
		<g clip-path="url(#cl_16)">
			<path fill="none" stroke="#2CA02C" stroke-width="1.5" stroke-linejoin="bevel" d="M74.6779 94.9246L78.1603 89.4358L81.6427 58.4671L85.125 53.5118L88.6074 61.6604L92.0898 55.5909L95.5722 56.3366L99.0545 49.5081L102.537 64.9935L106.019 62.1782L109.502 47.3317L112.984 56.3546L116.466 65.2786L119.949 83.8539L123.431 71.905L126.914 61.3502L130.396 71.4797L133.878 69.7058L137.361 80.1044L140.843 83.6724L144.325 95.6229L147.808 98.6028L151.29 102.093L154.773 107.419L158.255 117.557L161.737 113.972L165.22 107.183L168.702 109.478L172.184 117.796L175.667 124.39L179.149 122.736L182.631 145.983L186.114 141.221L189.596 135.563L193.079 151.7L196.561 155.649L200.043 153.296L203.526 140.708L207.008 132.249L210.49 139.741L213.973 152.602L217.455 158.06L220.938 156.626L224.42 167.072L227.902 166.823L231.385 161.974L234.867 168.851L238.349 165.728L241.832 155.806L245.314 156.707L248.797 175.116L252.279 162.338L255.761 153.67L259.244 166.254L262.726 164.249L266.208 149.229L269.691 139.014L273.173 153.338L276.656 152.323L280.138 139.316L283.62 144.524L287.103 147.838L290.585 158.124L294.067 148.098L297.55 139.667L301.032 137.772L304.515 141.63L307.997 153.242L311.479 167.158L314.962 170.764L318.444 166.254L321.926 145.745L325.409 146.593L328.891 152.708L332.374 158.55L335.856 167.073L339.338 157.69L342.821 154.728L346.303 163.769L349.785 168.388L353.268 169.792L356.75 164.405L360.233 191.323L363.715 179.53L367.197 178.384L370.68 172.897L374.162 164.851L377.644 166.595L381.127 170.813L384.609 162.989L388.092 157.672L391.574 183.96L395.056 166.952L398.539 161.33L402.021 176.215L405.503 187.294L408.986 166.727L412.468 173.599L415.951 178.136L419.433 176.625L422.915 188.146L426.398 181.146L429.88 184.869L433.362 185.813L436.845 198.42L440.327 202.733L443.809 185.91L447.292 181.448L450.774 169.418L454.257 179.439L457.739 187.489L461.221 188.375L464.704 184.335L468.186 199.171L471.668 205.275L475.151 202.252L478.633 196.42L482.116 183.265L485.598 195.394L489.08 197.695L492.563 202.765L496.045 223.07L499.527 212.267L503.01 211.774L506.492 207.04L509.975 195.09L513.457 186.457L516.939 204.358L520.422 206.383L523.904 218.958L527.386 228.425L530.869 230.939L534.351 217.4L537.834 216.258L541.316 216.921L544.798 213.258L548.281 228.776L551.763 249.481L555.245 221.098L558.728 213.935L562.21 213.55L565.693 228.909L569.175 248.159L572.657 269.064L576.14 247.181L579.622 233.518L583.104 234.804L586.587 238.992L590.069 238.384L593.552 250.04L597.034 271.145L600.516 268.578L603.999 262.031L607.481 253.288L610.963 254.366L614.446 258.99L617.928 263.704L621.411 260.336L624.893 261.295L628.375 259.442L631.858 277.773L635.34 282.347L638.822 273.112L642.305 268.581L645.787 278.671L649.27 286.814L652.752 283.701L656.234 286.787L659.717 294.848L663.199 295.474L666.681 294.493L670.164 301.941L673.646 319.556L677.128 322.878L680.611 307.165L684.093 302.475L687.576 321.402L691.058 317.599L694.54 314.482L698.023 316.508L701.505 310.291L704.987 318.609L708.47 326.093L711.952 333.944L715.435 336.694L718.917 313.182L722.399 316.44L725.882 329.272L729.364 325.385L732.846 329.145L736.329 337.585L739.811 356.511L743.294 353.253L746.776 360.174L750.258 332.445L753.741 328.373L757.223 345.49L760.705 347.289L764.188 344.04L767.67 351.715L771.153 337.906L774.635 336.253L778.117 346.293L781.6 351.798L785.082 364.818L788.564 347.405L792.047 345.925L795.529 365.245L799.012 355.518L802.494 347.287L805.976 363.174L809.459 374.526L812.941 386.256L816.423 394.95L819.906 386.632L823.388 376.813L826.871 359.537L830.353 360.929L833.835 371.3L837.318 396.334L840.8 387.772L844.282 378.456L847.765 365.895L851.247 375.428L854.729 381.225L858.212 379.713L861.694 354.484L865.177 350.633L868.659 365.84L872.141 369.484L875.624 361.572L879.106 378.429L882.589 379.329L886.071 383.216L889.553 378.933L893.036 386.074L896.518 400.845L900 398.88L903.483 402.691L906.965 391.81L910.448 421.83L913.93 503.567L917.412 651.742L920.895 884.63L924.377 1021.65L927.859 1089.68L931.342 1146.5"/>
			<path fill="none" stroke="#FF0037" stroke-width="1.5" stroke-linejoin="bevel" d="M74.6779 61.0729L78.1603 57.5442L81.6427 45.472L85.125 42.5884L88.6074 54.3739L92.0898 55.0731L95.5722 58.095L99.0545 49.2849L102.537 61.8687L106.019 56.9582L109.502 46.4192L112.984 58.1945L116.466 65.7604L119.949 88.5197L123.431 79.7215L126.914 66.5349L130.396 73.5233L133.878 76.4768L137.361 83.2293L140.843 79.4932L144.325 98.2784L147.808 109.369L151.29 103.381L154.773 106.728L158.255 109.357L161.737 103.379L165.22 104.057L168.702 112.6L172.184 124.942L175.667 127.134L179.149 123.797L182.631 150.005L186.114 132.192L189.596 124.081L193.079 138.745L196.561 147.448L200.043 146.252L203.526 131.804L207.008 126.423L210.49 132.882L213.973 154.003L217.455 152.557L220.938 141.923L224.42 154.641L227.902 155.674L231.385 154.809L234.867 157.295L238.349 156.076L241.832 148.893L245.314 151.862L248.797 163.269L252.279 143.771L255.761 139.927L259.244 160.614L262.726 165.366L266.208 146.055L269.691 131.187L273.173 149.157L276.656 143.762L280.138 129.871L283.62 133.551L287.103 136.164L290.585 143.576L294.067 148.125L297.55 134.123L301.032 131.168L304.515 132.313L307.997 143.018L311.479 142.488L314.962 137.158L318.444 147.704L321.926 135.151L325.409 133.502L328.891 135.986L332.374 136.399L335.856 119.807L339.338 108.27L342.821 114.044L346.303 111.022L349.785 103.847L353.268 114.16L356.75 100.693L360.233 82.7221L363.715 68.8517L367.197 59.4517L370.68 40.1766L374.162 39.7366L377.644 50.1951L381.127 79.41L384.609 100.656L388.092 109.336L391.574 124.629L395.056 128.095L398.539 140.256L402.021 151.369L405.503 171.237L408.986 156.6L412.468 162.508L415.951 178.933L419.433 174.876L422.915 186.479L426.398 185.336L429.88 185.636L433.362 185.299L436.845 194.917L440.327 199.694L443.809 189.536L447.292 190.194L450.774 176.025L454.257 183.731L457.739 189.703L461.221 196.786L464.704 191.317L468.186 206.792L471.668 213.275L475.151 208.314L478.633 201.404L482.116 193.558L485.598 205.471L489.08 200.777L492.563 206.235L496.045 226.037L499.527 220.783L503.01 224.874L506.492 219.893L509.975 207.628L513.457 197.546L516.939 217.765L520.422 217.661L523.904 225.827L527.386 234.273L530.869 240.043L534.351 227.819L537.834 226.968L541.316 227.524L544.798 221.104L548.281 238.672L551.763 259.911L555.245 231.705L558.728 224.159L562.21 223.162L565.693 239.978L569.175 259.18L572.657 280.671L576.14 260.504L579.622 247.496L583.104 246.211L586.587 249.168L590.069 248.297L593.552 260.749L597.034 283.774L600.516 280.589L603.999 271.795L607.481 262.841L610.963 264.914L614.446 271.609L617.928 280.061L621.411 278.392L624.893 274.67L628.375 270.927L631.858 286.993L635.34 292.159L638.822 286.523L642.305 281.822L645.787 286.658L649.27 287.003L652.752 283.194L656.234 291.321L659.717 298.293L663.199 299.131L666.681 301.82L670.164 310.006L673.646 325.476L677.128 328.021L680.611 309.2L684.093 303.308L687.576 319.999L691.058 316.981L694.54 320.203L698.023 323.513L701.505 320.37L704.987 334.786L708.47 338.726L711.952 343.777L715.435 344.296L718.917 324.417L722.399 333.287L725.882 349.795L729.364 343.974L732.846 345.65L736.329 350.667L739.811 371.751L743.294 370.554L746.776 370.839L750.258 344.823L753.741 341.307L757.223 355.136L760.705 354.971L764.188 355.048L767.67 365.544L771.153 355.034L774.635 352.087L778.117 358.441L781.6 363.288L785.082 371.687L788.564 357.412L792.047 357.607L795.529 375.877L799.012 367.091L802.494 361.038L805.976 378.175L809.459 387.356L812.941 389.985L816.423 397.82L819.906 395.343L823.388 388.875L826.871 371.533L830.353 372.603L833.835 381.119L837.318 406.61L840.8 395.976L844.282 385.954L847.765 376.552L851.247 382.563L854.729 388.254L858.212 389.291L861.694 364.001L865.177 359.958L868.659 376.44L872.141 381.279L875.624 374.055L879.106 389.579L882.589 392.53L886.071 398.194L889.553 391.265L893.036 395.662L896.518 411.504L900 412.566L903.483 416.281L906.965 407.938L910.448 444.776L913.93 554.284L917.412 753.772L920.895 960.34L924.377 1055.83L927.859 1122.81L931.342 1175.47"/>
		</g>
		<text transform="translate(495.391 8)" font-size="13" font-family="Microsoft YaHei, 微软雅黑" x="-389.22876, -380.53247, -377.40308, -371.99487, -362.28931, -356.27173, -348.89575, -343.93188, -337.91431, -332.5061, -327.35815, -319.98218, -315.47534, -310.96851, -306.00464, -298.62866, -291.7478, -286.3396, -276.43726, -269.06128, -263.0437, -255.96606, -251.1228, -242.85815, -234.55542, -229.14722, -221.52368, -213.90015, -206.27661, -198.65308, -195.52368, -187.90015, -180.27661, -174.86841, -167.41626, -159.79272, -153.96558, -150.14429, -141.448, -133.94507, -128.53687, -121.08472, -113.46118, -107.63403, -103.81274, -95.116455, -87.613525, -82.205322, -74.581787, -66.958252, -61.131104, -53.678955, -46.05542, -37.359131, -29.094482, -16.91333, -8.6105957, -0.59985352, 4.2434082, 11.619385, 16.583252, 21.991455, 25.812744, 34.509033, 42.011963, 47.839111, 54.510498, 65.104736, 74.772217, 84.439697, 89.8479, 98.334717, 105.71069, 111.72827, 120.03101, 128.29565, 136.3064, 142.32397, 149.69995, 157.32349, 160.45288, 166.47046, 173.84644, 178.35327, 181.48267, 185.32935, 192.00073, 199.37671, 207.38745, 217.02954, 224.65308, 227.78247, 235.40601, 241.42358, 244.55298, 248.39966, 255.30591, 261.32349, 270.96558, 278.58911, 286.21265, 293.83618, 301.45972, 311.5144, 317.90649, 321.03589, 324.88257, 335.45142, 342.35767, 349.26392, 356.71606, 366.35815, 373.98169, 381.60522, " y="13.755371, ">
				C:\Users\Jeffrey\Desktop\2023.07\T7_ICS\T7_ICS\99_T7Computer\ICS_LOGG\Response2.sef, Len=2.0s, Fs=1000Hz, NFFT=712
		</text>
		<rect fill="none" stroke="black" stroke-width="1" stroke-miterlimit="10" stroke-opacity="0.73725492" x="61.404785" y="39.736572" width="867.97168" height="412.948"/>
		<rect fill="white" fill-opacity="0.39215687" x="635.78107" y="54.736572" width="278.5954" height="44.31543"/>
		<clipPath id="cl_17">
			<rect x="635.78107" y="54.736572" width="278.5954" height="44.31543"/>
		</clipPath>
		<g clip-path="url(#cl_17)">
			<text transform="translate(682.781 59.7366)" font-size="13" font-family="Microsoft YaHei, 微软雅黑" x="0, 4.3417969, 8.6835938, 16.135742, 23.321289, 28.285156, 36.600586, 43.976563, 48.819824, 54.443848, 60.067871, 65.691895, 75.594238, 79.053711, 85.071289, 88.917969, 96.763672, 103.94922, " y="13.755371, ">
					[]Target---Dis Yaw
			</text>
			<text transform="translate(798.994 59.7366)" font-size="13" font-family="Microsoft YaHei, 微软雅黑" x="0, 5.8271484, 13.279297, 20.902832, 25.244629, 29.586426, " y="13.755371, ">
					_T7(()
			</text>
			<text transform="translate(832.923 59.7366)" font-size="8.0600004" font-family="Microsoft YaHei, 微软雅黑" x="2.3849416, " y="8.5283308, ">
					2
			</text>
			<text transform="translate(842.034 59.7366)" font-size="13" font-family="Microsoft YaHei, 微软雅黑" x="0, 5.5541992, 9.4008789, 19.455566, 25.847656, 30.189453, 34.036133, 38.37793, " y="13.755371, ">
					/ Hz) ()
			</text>
			<path fill="none" stroke="#2CA02C" stroke-width="1.5" stroke-miterlimit="10" d="M640.781 68.3154L670.781 68.3154"/>
			<text transform="translate(682.781 76.8943)" font-size="13" font-family="Microsoft YaHei, 微软雅黑" x="0, 4.3417969, 8.6835938, 17.830566, 24.349609, 29.192871, 37.203613, 44.38916, 47.848633, 53.472656, 59.09668, 64.720703, 74.623047, 78.08252, 84.100098, 92.402832, 99.550293, 105.56787, 110.41113, 113.54053, 121.38623, 128.57178, " y="13.755371, ">
					[]Actual---DispEst.Yaw
			</text>
			<text transform="translate(823.617 76.8943)" font-size="13" font-family="Microsoft YaHei, 微软雅黑" x="0, 5.8271484, 13.279297, 20.902832, 25.244629, 29.586426, " y="13.755371, ">
					_T7(()
			</text>
			<text transform="translate(857.545 76.8943)" font-size="8.0600004" font-family="Microsoft YaHei, 微软雅黑" x="2.3849416, " y="8.5283308, ">
					2
			</text>
			<text transform="translate(866.657 76.8943)" font-size="13" font-family="Microsoft YaHei, 微软雅黑" x="0, 5.5541992, 9.4008789, 19.455566, 25.847656, 30.189453, 34.036133, 38.37793, " y="13.755371, ">
					/ Hz) ()
			</text>
			<path fill="none" stroke="#FF0037" stroke-width="1.5" stroke-miterlimit="10" d="M640.781 85.4731L670.781 85.4731"/>
		</g>
	</g>
</svg>
