<?xml version="1.0" encoding="utf-8" ?>
<svg xmlns="http://www.w3.org/2000/svg" xmlns:xlink="http://www.w3.org/1999/xlink" width="945" height="503">
	<rect fill="white" width="945" height="503"/>
	<clipPath id="cl_27">
		<rect width="945" height="503"/>
	</clipPath>
	<g clip-path="url(#cl_27)">
		<path fill="none" stroke="#00008B" stroke-width="1" stroke-miterlimit="10" stroke-opacity="0.078431375" d="M61.4048 39.7366L61.4048 452.685M93.9161 39.7366L93.9161 452.685M121.404 39.7366L121.404 452.685M145.215 39.7366L145.215 452.685M166.218 39.7366L166.218 452.685M185.006 39.7366L185.006 452.685M308.607 39.7366L308.607 452.685M380.909 39.7366L380.909 452.685M432.208 39.7366L432.208 452.685M471.998 39.7366L471.998 452.685M504.51 39.7366L504.51 452.685M531.998 39.7366L531.998 452.685M555.809 39.7366L555.809 452.685M576.812 39.7366L576.812 452.685M595.599 39.7366L595.599 452.685M719.2 39.7366L719.2 452.685M791.502 39.7366L791.502 452.685M842.801 39.7366L842.801 452.685M882.592 39.7366L882.592 452.685M915.103 39.7366L915.103 452.685"/>
		<path fill="none" stroke="#D9D9D9" stroke-width="1" stroke-miterlimit="10" d="M61.4048 448.685L61.4048 452.685M93.9161 448.685L93.9161 452.685M121.404 448.685L121.404 452.685M145.215 448.685L145.215 452.685M166.218 448.685L166.218 452.685M185.006 448.685L185.006 452.685M308.607 448.685L308.607 452.685M380.909 448.685L380.909 452.685M432.208 448.685L432.208 452.685M471.998 448.685L471.998 452.685M504.51 448.685L504.51 452.685M531.998 448.685L531.998 452.685M555.809 448.685L555.809 452.685M576.812 448.685L576.812 452.685M595.599 448.685L595.599 452.685M719.2 448.685L719.2 452.685M791.502 448.685L791.502 452.685M842.801 448.685L842.801 452.685M882.592 448.685L882.592 452.685M915.103 448.685L915.103 452.685"/>
		<path fill="none" stroke="#00008B" stroke-width="1" stroke-miterlimit="10" stroke-opacity="0.078431375" d="M61.4048 442.819L929.376 442.819M61.4048 431.732L929.376 431.732M61.4048 423.132L929.376 423.132M61.4048 416.105L929.376 416.105M61.4048 410.163L929.376 410.163M61.4048 405.017L929.376 405.017M61.4048 400.477L929.376 400.477M61.4048 396.417L929.376 396.417M61.4048 369.702L929.376 369.702M61.4048 354.075L929.376 354.075M61.4048 342.987L929.376 342.987M61.4048 334.387L929.376 334.387M61.4048 327.36L929.376 327.36M61.4048 321.418L929.376 321.418M61.4048 316.272L929.376 316.272M61.4048 311.732L929.376 311.732M61.4048 307.672L929.376 307.672M61.4048 280.957L929.376 280.957M61.4048 265.33L929.376 265.33M61.4048 254.242L929.376 254.242M61.4048 245.642L929.376 245.642M61.4048 238.615L929.376 238.615M61.4048 232.673L929.376 232.673M61.4048 227.527L929.376 227.527M61.4048 222.987L929.376 222.987M61.4048 218.927L929.376 218.927M61.4048 192.212L929.376 192.212M61.4048 176.585L929.376 176.585M61.4048 165.497L929.376 165.497M61.4048 156.897L929.376 156.897M61.4048 149.87L929.376 149.87M61.4048 143.929L929.376 143.929M61.4048 138.782L929.376 138.782M61.4048 134.243L929.376 134.243M61.4048 130.182L929.376 130.182M61.4048 103.467L929.376 103.467M61.4048 87.8397L929.376 87.8397M61.4048 76.752L929.376 76.752M61.4048 68.1517L929.376 68.1517M61.4048 61.1248L929.376 61.1248M61.4048 55.1836L929.376 55.1836M61.4048 50.0371L929.376 50.0371M61.4048 45.4975L929.376 45.4975M61.4048 41.4368L929.376 41.4368"/>
		<path fill="none" stroke="#D9D9D9" stroke-width="1" stroke-miterlimit="10" d="M65.4048 442.819L61.4048 442.819M65.4048 431.732L61.4048 431.732M65.4048 423.132L61.4048 423.132M65.4048 416.105L61.4048 416.105M65.4048 410.163L61.4048 410.163M65.4048 405.017L61.4048 405.017M65.4048 400.477L61.4048 400.477M65.4048 396.417L61.4048 396.417M65.4048 369.702L61.4048 369.702M65.4048 354.075L61.4048 354.075M65.4048 342.987L61.4048 342.987M65.4048 334.387L61.4048 334.387M65.4048 327.36L61.4048 327.36M65.4048 321.418L61.4048 321.418M65.4048 316.272L61.4048 316.272M65.4048 311.732L61.4048 311.732M65.4048 307.672L61.4048 307.672M65.4048 280.957L61.4048 280.957M65.4048 265.33L61.4048 265.33M65.4048 254.242L61.4048 254.242M65.4048 245.642L61.4048 245.642M65.4048 238.615L61.4048 238.615M65.4048 232.673L61.4048 232.673M65.4048 227.527L61.4048 227.527M65.4048 222.987L61.4048 222.987M65.4048 218.927L61.4048 218.927M65.4048 192.212L61.4048 192.212M65.4048 176.585L61.4048 176.585M65.4048 165.497L61.4048 165.497M65.4048 156.897L61.4048 156.897M65.4048 149.87L61.4048 149.87M65.4048 143.929L61.4048 143.929M65.4048 138.782L61.4048 138.782M65.4048 134.243L61.4048 134.243M65.4048 130.182L61.4048 130.182M65.4048 103.467L61.4048 103.467M65.4048 87.8397L61.4048 87.8397M65.4048 76.752L61.4048 76.752M65.4048 68.1517L61.4048 68.1517M65.4048 61.1248L61.4048 61.1248M65.4048 55.1836L61.4048 55.1836M65.4048 50.0371L61.4048 50.0371M65.4048 45.4975L61.4048 45.4975M65.4048 41.4368L61.4048 41.4368"/>
		<text transform="translate(185.006 456.685)" font-size="13" font-family="Microsoft YaHei, 微软雅黑" x="-3.8117676, " y="13.755371, ">
				1
		</text>
		<text transform="translate(595.599 456.685)" font-size="13" font-family="Microsoft YaHei, 微软雅黑" x="-7.6235352, 0, " y="13.755371, ">
				10
		</text>
		<path fill="none" stroke="#00008B" stroke-width="1" stroke-miterlimit="10" stroke-opacity="0.11764706" d="M185.006 39.7366L185.006 452.685M595.599 39.7366L595.599 452.685"/>
		<path fill="none" stroke="#D9D9D9" stroke-width="1" stroke-miterlimit="10" d="M185.006 445.685L185.006 452.685M595.599 445.685L595.599 452.685"/>
		<text transform="translate(495.391 491)" font-size="13" font-family="Microsoft YaHei, 微软雅黑" x="-46.667969, -39.761719, -34.797852, -27.421875, -19.106445, -11.095703, -3.7197266, 4.2910156, 10.810059, 17.690918, 21.537598, 25.879395, 35.934082, 42.326172, " y="-3.4023438, ">
				Frequency (Hz)
		</text>
		<text transform="translate(57.4048 396.417)" font-size="13" font-family="Microsoft YaHei, 微软雅黑" x="-28.24707, -20.623535, -13.247559, -7.6235352, " y="5.1765137, ">
				1e-7
		</text>
		<text transform="translate(57.4048 307.672)" font-size="13" font-family="Microsoft YaHei, 微软雅黑" x="-28.24707, -20.623535, -13.247559, -7.6235352, " y="5.1765137, ">
				1e-6
		</text>
		<text transform="translate(57.4048 218.927)" font-size="13" font-family="Microsoft YaHei, 微软雅黑" x="-28.24707, -20.623535, -13.247559, -7.6235352, " y="5.1765137, ">
				1e-5
		</text>
		<text transform="translate(57.4048 130.182)" font-size="13" font-family="Microsoft YaHei, 微软雅黑" x="-28.24707, -20.623535, -13.247559, -7.6235352, " y="5.1765137, ">
				1e-4
		</text>
		<text transform="translate(57.4048 41.4368)" font-size="13" font-family="Microsoft YaHei, 微软雅黑" x="-28.24707, -20.623535, -13.247559, -7.6235352, " y="5.1765137, ">
				1e-3
		</text>
		<path fill="none" stroke="#00008B" stroke-width="1" stroke-miterlimit="10" stroke-opacity="0.11764706" d="M61.4048 396.417L929.376 396.417M61.4048 307.672L929.376 307.672M61.4048 218.927L929.376 218.927M61.4048 130.182L929.376 130.182M61.4048 41.4368L929.376 41.4368"/>
		<path fill="none" stroke="#D9D9D9" stroke-width="1" stroke-miterlimit="10" d="M68.4048 396.417L61.4048 396.417M68.4048 307.672L61.4048 307.672M68.4048 218.927L61.4048 218.927M68.4048 130.182L61.4048 130.182M68.4048 41.4368L61.4048 41.4368"/>
		<text transform="matrix(0 -1 1 0 12 246.211)" font-size="13" font-family="Microsoft YaHei, 微软雅黑" x="-40.977295, -31.074951, -27.615479, -21.5979, -17.751221, -9.9055176, -2.7199707, 7.5441895, 13.371338, 20.823486, 28.447021, 32.293701, 36.635498, " y="13.755371, ">
				Dis Yaw_T7 ()
		</text>
		<clipPath id="cl_28">
			<rect x="61.404785" y="39.736572" width="867.97168" height="412.948"/>
		</clipPath>
		<g clip-path="url(#cl_28)">
			<path fill="none" stroke="#2CA02C" stroke-width="1.5" stroke-linejoin="bevel" d="M-62.1962 197.909L61.4048 134.835L133.707 114.532L185.006 115.591L224.796 111.633L257.308 112.145L284.796 107.387L308.607 118.143L329.61 116.188L348.397 105.872L365.393 112.146L380.909 118.347L395.182 131.257L408.397 122.952L420.699 115.617L432.208 122.655L443.018 121.423L453.211 128.649L462.852 131.129L471.998 139.434L480.699 141.505L488.994 143.93L496.921 147.632L504.51 154.677L511.789 152.186L518.783 147.468L525.513 149.063L531.998 154.843L538.255 159.425L544.3 158.276L550.147 174.432L555.809 171.122L561.296 167.19L566.619 178.405L571.788 181.149L576.812 179.514L581.697 170.766L586.453 164.888L591.085 170.094L595.599 179.032L600.003 182.825L604.3 181.828L608.496 189.087L612.595 188.915L616.602 185.545L620.522 190.324L624.357 188.154L628.111 181.259L631.788 181.885L635.39 194.678L638.921 185.798L642.384 179.774L645.78 188.519L649.114 187.126L652.386 176.688L655.599 169.589L658.755 179.543L661.856 178.838L664.904 169.799L667.901 173.418L670.849 175.721L673.748 182.869L676.602 175.901L679.41 170.042L682.174 168.725L684.897 171.407L687.578 179.476L690.22 189.147L692.823 191.653L695.389 188.519L697.919 174.266L700.413 174.856L702.872 179.105L705.298 183.165L707.692 189.089L710.054 182.568L712.385 180.509L714.686 186.792L716.957 190.002L719.2 190.978L721.416 187.234L723.604 205.941L725.765 197.746L727.901 196.949L730.011 193.136L732.097 187.544L734.158 188.756L736.196 191.688L738.211 186.25L740.203 182.555L742.174 200.824L744.123 189.004L746.05 185.097L747.958 195.442L749.844 203.141L751.712 188.848L753.56 193.623L755.389 196.777L757.199 195.726L758.991 203.733L760.765 198.868L762.522 201.456L765.985 210.873L767.691 213.871L769.381 202.179L771.056 199.079L772.715 190.718L774.358 197.682L775.987 203.277L779.2 201.084L780.785 211.395L782.356 215.637L783.913 213.536L785.457 209.483L786.988 200.341L788.505 208.77L790.01 210.369L791.502 213.893L792.982 228.003L794.45 220.496L797.349 216.864L798.782 208.559L800.203 202.559L801.612 215L804.398 225.146L805.775 231.725L807.142 233.472L808.498 224.063L811.179 223.73L812.505 221.185L813.821 231.969L815.128 246.358L816.424 226.633L817.712 221.655L820.259 232.061L821.52 245.44L822.771 259.968L824.014 244.759L825.248 235.264L827.69 239.069L830.1 246.746L831.293 261.414L832.478 259.63L833.655 255.08L834.824 249.004L837.14 252.967L838.287 256.243L839.426 253.902L841.683 253.281L842.801 266.02L843.912 269.199L845.017 262.781L846.114 259.632L847.205 266.644L848.289 272.303L849.366 270.14L850.437 272.284L851.502 277.886L853.612 277.639L854.658 282.815L855.698 295.057L856.731 297.366L857.759 286.446L858.781 283.186L859.797 296.34L860.807 293.697L861.812 291.531L863.804 288.618L864.792 294.399L865.775 299.6L866.752 305.056L867.724 306.967L868.69 290.627L869.651 292.891L870.607 301.809L871.559 299.108L872.505 301.721L873.445 307.586L874.382 320.739L875.313 318.475L876.239 323.285L877.161 304.014L878.077 301.184L878.99 313.08L880.8 312.072L881.698 317.406L882.592 307.81L884.366 313.638L885.247 317.464L886.123 326.512L886.995 314.411L888.726 326.808L889.586 320.048L890.441 314.329L891.292 325.369L892.139 333.259L892.982 341.41L893.822 347.452L894.657 341.671L895.488 334.848L896.316 322.842L897.959 331.016L898.775 348.415L899.588 342.464L900.396 335.989L901.201 327.261L902.003 333.885L902.801 337.915L904.386 319.33L905.173 316.654L905.957 327.224L906.737 329.753L907.514 324.254L908.288 335.972L909.825 339.302L910.589 336.319L911.349 341.29L912.106 351.573L913.611 352.902L914.359 342.309L915.845 348.915L916.583 356.738L917.319 353.281L918.051 345.296L918.78 352.347L920.23 360.904L920.95 367.033L921.668 360.775L922.383 356.452L923.095 362.044L924.51 359.371L925.213 353.418L925.914 361.345L926.612 368.968L927.307 366.931L928.689 362.171L929.376 386.106L930.061 451.374"/>
			<path fill="none" stroke="#FF0037" stroke-width="1.5" stroke-linejoin="bevel" d="M-62.1962 220.597L61.4048 145.208L133.707 119.057L185.006 118.842L224.796 115.529L257.308 115.643L284.796 111.566L308.607 123.378L329.61 121.851L348.397 111.515L365.393 116.897L380.909 122.735L395.182 135.396L408.397 127.226L420.699 120.039L432.208 127.75L443.018 125.612L453.211 132.551L462.852 134.664L471.998 145.139L480.699 147.314L488.994 150.429L496.921 155.284L504.51 161.765L511.789 157.841L518.783 153.454L525.513 153.409L531.998 160.119L538.255 165.364L544.3 165.34L550.147 180.81L555.809 178.388L561.296 174.071L566.619 182.978L571.788 185.581L576.812 187.739L581.697 179.857L586.453 173.27L591.085 176.096L595.599 185.339L600.003 189.415L604.3 189.797L608.496 195.38L612.595 198.32L616.602 194.64L620.522 199.595L624.357 195L628.111 188.033L631.788 187.587L635.39 198.59L638.921 192.214L642.384 186.6L645.78 196.219L649.114 193.648L652.386 184.053L655.599 177.571L658.755 187.603L661.856 185.764L664.904 177.125L667.901 181.947L670.849 184.548L673.748 192.699L676.602 186.386L679.41 180.487L682.174 178.482L684.897 180.411L687.578 189.962L690.22 200.798L692.823 204.142L695.389 200.845L697.919 183.855L700.413 183.062L702.872 187.757L705.298 186.941L707.692 194.114L710.054 192.177L712.385 189.598L714.686 189.983L716.957 191.271L719.2 193.746L721.416 192.498L723.604 205.848L725.765 196.681L727.901 195.634L730.011 196.057L732.097 198.113L734.158 205.255L736.196 208.877L738.211 206.618L742.174 223.54L744.123 210.594L746.05 207.737L747.958 218.215L749.844 228.233L751.712 212.246L753.56 213.404L755.389 218.41L758.991 227.009L760.765 224.206L762.522 230.377L764.262 234.155L765.985 246.005L767.691 257.66L769.381 273.624L771.056 304.015L772.715 307.907L774.358 314.437L775.987 323.518L777.6 299.266L779.2 258.716L780.785 247.684L782.356 244.248L785.457 242.202L786.988 233.064L788.505 235.925L790.01 229.139L792.982 242.234L794.45 234.895L797.349 232.038L798.782 223.273L800.203 218.446L801.612 232.858L803.011 235.152L804.398 242.336L805.775 247.807L807.142 250.643L808.498 242.489L811.179 241.838L812.505 239.667L813.821 250.344L815.128 263.291L816.424 241.67L817.712 235.463L820.259 247.114L821.52 263.084L822.771 277.028L824.014 260.487L825.248 250.941L826.473 254.269L827.69 258.121L830.1 264.804L831.293 278.247L832.478 275.831L833.655 273.55L834.824 270.854L837.14 273.777L838.287 276.202L840.558 276.043L841.683 279.4L842.801 296.183L843.912 298.823L845.017 287.438L846.114 283.491L847.205 289.41L849.366 285.173L850.437 288.722L851.502 296.205L852.56 291.629L853.612 285.253L854.658 292.233L855.698 303.994L856.731 313.799L857.759 305.776L858.781 292.144L859.797 297.788L860.807 294.863L861.812 298.713L862.811 305.109L863.804 295.979L865.775 298.554L866.752 306.354L867.724 299.867L868.69 282.188L869.651 292.709L870.607 298.327L871.559 294.266L872.505 305.055L873.445 318.008L874.382 324.367L875.313 316.33L876.239 320.005L877.161 305.828L878.077 310.225L878.99 324.687L880.8 322.073L881.698 327.985L882.592 322.91L883.481 318.482L885.247 327.785L886.123 341.512L886.995 326.967L888.726 340.72L889.586 332.708L890.441 329.622L891.292 336.101L892.139 340.375L892.982 355.033L893.822 361.816L894.657 359.431L895.488 354.476L896.316 341.343L897.959 344.975L899.588 342.466L900.396 335.269L901.201 321.229L902.003 315.988L902.801 320.626L903.595 322.98L905.173 327.647L905.957 339.031L906.737 344.47L907.514 334.875L908.288 310.198L909.058 291.493L909.825 274.316L911.349 291.897L912.106 326.314L912.86 308.996L913.611 280.133L914.359 275.064L915.103 286.322L915.845 304.843L916.583 313.172L917.319 322.173L918.051 354.619L918.78 421.927L919.507 448.401L920.23 452.263L921.668 450.687L922.383 455.571L923.804 463.513L924.51 459.548L925.914 470.991L926.612 444.879L927.307 451.243L927.999 454.135L929.376 474.576L930.061 523.555"/>
		</g>
		<text transform="translate(495.391 8)" font-size="13" font-family="Microsoft YaHei, 微软雅黑" x="-389.22876, -380.53247, -377.40308, -371.99487, -362.28931, -356.27173, -348.89575, -343.93188, -337.91431, -332.5061, -327.35815, -319.98218, -315.47534, -310.96851, -306.00464, -298.62866, -291.7478, -286.3396, -276.43726, -269.06128, -263.0437, -255.96606, -251.1228, -242.85815, -234.55542, -229.14722, -221.52368, -213.90015, -206.27661, -198.65308, -195.52368, -187.90015, -180.27661, -174.86841, -167.41626, -159.79272, -153.96558, -150.14429, -141.448, -133.94507, -128.53687, -121.08472, -113.46118, -107.63403, -103.81274, -95.116455, -87.613525, -82.205322, -74.581787, -66.958252, -61.131104, -53.678955, -46.05542, -37.359131, -29.094482, -16.91333, -8.6105957, -0.59985352, 4.2434082, 11.619385, 16.583252, 21.991455, 25.812744, 34.509033, 42.011963, 47.839111, 54.510498, 65.104736, 74.772217, 84.439697, 89.8479, 98.334717, 105.71069, 111.72827, 120.03101, 128.29565, 136.3064, 142.32397, 149.69995, 157.32349, 160.45288, 166.47046, 173.84644, 178.35327, 181.48267, 185.32935, 192.00073, 199.37671, 207.38745, 217.02954, 224.65308, 227.78247, 235.40601, 241.42358, 244.55298, 248.39966, 255.30591, 261.32349, 270.96558, 278.58911, 286.21265, 293.83618, 301.45972, 311.5144, 317.90649, 321.03589, 324.88257, 335.45142, 342.35767, 349.26392, 356.71606, 366.35815, 373.98169, 381.60522, " y="13.755371, ">
				C:\Users\Jeffrey\Desktop\2023.07\T7_ICS\T7_ICS\86_T7Computer\ICS_LOGG\Response2.sef, Len=2.0s, Fs=1000Hz, NFFT=712
		</text>
		<rect fill="none" stroke="black" stroke-width="1" stroke-miterlimit="10" stroke-opacity="0.73725492" x="61.404785" y="39.736572" width="867.97168" height="412.948"/>
		<rect fill="white" fill-opacity="0.39215687" x="630.48077" y="54.736572" width="283.89569" height="44.31543"/>
		<clipPath id="cl_29">
			<rect x="630.48077" y="54.736572" width="283.89569" height="44.31543"/>
		</clipPath>
		<g clip-path="url(#cl_29)">
			<text transform="translate(677.481 59.7366)" font-size="13" font-family="Microsoft YaHei, 微软雅黑" x="0, 4.3417969, 8.6835938, 16.135742, 23.321289, 28.285156, 36.600586, 43.976563, 48.819824, 54.443848, 60.067871, 65.691895, 75.594238, 79.053711, 85.071289, 88.917969, 96.763672, 103.94922, " y="13.755371, ">
					[]Target---Dis Yaw
			</text>
			<text transform="translate(793.694 59.7366)" font-size="13" font-family="Microsoft YaHei, 微软雅黑" x="0, 5.8271484, 13.279297, 20.902832, 25.244629, 29.586426, " y="13.755371, ">
					_T7(()
			</text>
			<text transform="translate(827.622 59.7366)" font-size="8.0600004" font-family="Microsoft YaHei, 微软雅黑" x="2.3849416, " y="8.5283308, ">
					2
			</text>
			<text transform="translate(836.734 59.7366)" font-size="13" font-family="Microsoft YaHei, 微软雅黑" x="0, 5.5541992, 9.4008789, 19.455566, 25.847656, 30.189453, 34.036133, 38.37793, " y="13.755371, ">
					/ Hz) ()
			</text>
			<path fill="none" stroke="#2CA02C" stroke-width="1.5" stroke-miterlimit="10" d="M635.481 68.3154L665.481 68.3154"/>
			<text transform="translate(677.481 76.8943)" font-size="13" font-family="Microsoft YaHei, 微软雅黑" x="0, 4.3417969, 8.6835938, 17.830566, 24.349609, 29.192871, 37.203613, 44.38916, 47.848633, 53.472656, 59.09668, 64.720703, 72.674316, 80.938965, 86.956543, 90.416016, 95.259277, 98.71875, 106.9834, 114.99414, 118.84082, 126.68652, 133.87207, " y="13.755371, ">
					[]Actual---Position Yaw
			</text>
			<text transform="translate(823.617 76.8943)" font-size="13" font-family="Microsoft YaHei, 微软雅黑" x="0, 5.8271484, 13.279297, 20.902832, 25.244629, 29.586426, " y="13.755371, ">
					_T7(()
			</text>
			<text transform="translate(857.545 76.8943)" font-size="8.0600004" font-family="Microsoft YaHei, 微软雅黑" x="2.3849416, " y="8.5283308, ">
					2
			</text>
			<text transform="translate(866.657 76.8943)" font-size="13" font-family="Microsoft YaHei, 微软雅黑" x="0, 5.5541992, 9.4008789, 19.455566, 25.847656, 30.189453, 34.036133, 38.37793, " y="13.755371, ">
					/ Hz) ()
			</text>
			<path fill="none" stroke="#FF0037" stroke-width="1.5" stroke-miterlimit="10" d="M635.481 85.4731L665.481 85.4731"/>
		</g>
	</g>
</svg>
