<?xml version="1.0" encoding="utf-8" ?>
<svg xmlns="http://www.w3.org/2000/svg" xmlns:xlink="http://www.w3.org/1999/xlink" width="945" height="503">
	<rect fill="white" width="945" height="503"/>
	<clipPath id="cl_2d">
		<rect width="945" height="503"/>
	</clipPath>
	<g clip-path="url(#cl_2d)">
		<path fill="none" stroke="#D9D9D9" stroke-width="1" stroke-miterlimit="10" d="M83.2864 448.685L83.2864 452.685M112.462 448.685L112.462 452.685M141.637 448.685L141.637 452.685M170.813 448.685L170.813 452.685M229.164 448.685L229.164 452.685M258.34 448.685L258.34 452.685M287.515 448.685L287.515 452.685M316.691 448.685L316.691 452.685M375.042 448.685L375.042 452.685M404.217 448.685L404.217 452.685M433.393 448.685L433.393 452.685M462.568 448.685L462.568 452.685M520.919 448.685L520.919 452.685M550.095 448.685L550.095 452.685M579.27 448.685L579.27 452.685M608.446 448.685L608.446 452.685M666.797 448.685L666.797 452.685M695.972 448.685L695.972 452.685M725.148 448.685L725.148 452.685M754.323 448.685L754.323 452.685M812.674 448.685L812.674 452.685M841.85 448.685L841.85 452.685M871.025 448.685L871.025 452.685M900.201 448.685L900.201 452.685"/>
		<path fill="none" stroke="#00008B" stroke-width="1" stroke-miterlimit="10" stroke-opacity="0.078431375" d="M61.4048 448.419L929.376 448.419M61.4048 427.303L929.376 427.303M61.4048 412.32L929.376 412.32M61.4048 400.698L929.376 400.698M61.4048 391.203L929.376 391.203M61.4048 383.175L929.376 383.175M61.4048 376.22L929.376 376.22M61.4048 370.086L929.376 370.086M61.4048 364.599L929.376 364.599M61.4048 328.499L929.376 328.499M61.4048 307.383L929.376 307.383M61.4048 292.4L929.376 292.4M61.4048 280.778L929.376 280.778M61.4048 271.283L929.376 271.283M61.4048 263.255L929.376 263.255M61.4048 256.3L929.376 256.3M61.4048 250.166L929.376 250.166M61.4048 244.679L929.376 244.679M61.4048 208.579L929.376 208.579M61.4048 187.462L929.376 187.462M61.4048 172.48L929.376 172.48M61.4048 160.858L929.376 160.858M61.4048 151.363L929.376 151.363M61.4048 143.335L929.376 143.335M61.4048 136.38L929.376 136.38M61.4048 130.246L929.376 130.246M61.4048 124.759L929.376 124.759M61.4048 88.6593L929.376 88.6593M61.4048 67.5424L929.376 67.5424M61.4048 52.5598L929.376 52.5598M61.4048 40.9383L929.376 40.9383"/>
		<path fill="none" stroke="#D9D9D9" stroke-width="1" stroke-miterlimit="10" d="M65.4048 448.419L61.4048 448.419M65.4048 427.303L61.4048 427.303M65.4048 412.32L61.4048 412.32M65.4048 400.698L61.4048 400.698M65.4048 391.203L61.4048 391.203M65.4048 383.175L61.4048 383.175M65.4048 376.22L61.4048 376.22M65.4048 370.086L61.4048 370.086M65.4048 364.599L61.4048 364.599M65.4048 328.499L61.4048 328.499M65.4048 307.383L61.4048 307.383M65.4048 292.4L61.4048 292.4M65.4048 280.778L61.4048 280.778M65.4048 271.283L61.4048 271.283M65.4048 263.255L61.4048 263.255M65.4048 256.3L61.4048 256.3M65.4048 250.166L61.4048 250.166M65.4048 244.679L61.4048 244.679M65.4048 208.579L61.4048 208.579M65.4048 187.462L61.4048 187.462M65.4048 172.48L61.4048 172.48M65.4048 160.858L61.4048 160.858M65.4048 151.363L61.4048 151.363M65.4048 143.335L61.4048 143.335M65.4048 136.38L61.4048 136.38M65.4048 130.246L61.4048 130.246M65.4048 124.759L61.4048 124.759M65.4048 88.6593L61.4048 88.6593M65.4048 67.5424L61.4048 67.5424M65.4048 52.5598L61.4048 52.5598M65.4048 40.9383L61.4048 40.9383"/>
		<text transform="translate(199.988 456.685)" font-size="13" font-family="Microsoft YaHei, 微软雅黑" x="-7.6235352, 0, " y="13.755371, ">
				10
		</text>
		<text transform="translate(345.866 456.685)" font-size="13" font-family="Microsoft YaHei, 微软雅黑" x="-7.6235352, 0, " y="13.755371, ">
				20
		</text>
		<text transform="translate(491.744 456.685)" font-size="13" font-family="Microsoft YaHei, 微软雅黑" x="-7.6235352, 0, " y="13.755371, ">
				30
		</text>
		<text transform="translate(637.621 456.685)" font-size="13" font-family="Microsoft YaHei, 微软雅黑" x="-7.6235352, 0, " y="13.755371, ">
				40
		</text>
		<text transform="translate(783.499 456.685)" font-size="13" font-family="Microsoft YaHei, 微软雅黑" x="-7.6235352, 0, " y="13.755371, ">
				50
		</text>
		<text transform="translate(929.376 456.685)" font-size="13" font-family="Microsoft YaHei, 微软雅黑" x="-7.6235352, 0, " y="13.755371, ">
				60
		</text>
		<path fill="none" stroke="#00008B" stroke-width="1" stroke-miterlimit="10" stroke-opacity="0.11764706" d="M199.988 39.7366L199.988 452.685M345.866 39.7366L345.866 452.685M491.744 39.7366L491.744 452.685M637.621 39.7366L637.621 452.685M783.499 39.7366L783.499 452.685M929.376 39.7366L929.376 452.685"/>
		<path fill="none" stroke="#D9D9D9" stroke-width="1" stroke-miterlimit="10" d="M199.988 445.685L199.988 452.685M345.866 445.685L345.866 452.685M491.744 445.685L491.744 452.685M637.621 445.685L637.621 452.685M783.499 445.685L783.499 452.685M929.376 445.685L929.376 452.685"/>
		<text transform="translate(495.391 491)" font-size="13" font-family="Microsoft YaHei, 微软雅黑" x="-46.667969, -39.761719, -34.797852, -27.421875, -19.106445, -11.095703, -3.7197266, 4.2910156, 10.810059, 17.690918, 21.537598, 25.879395, 35.934082, 42.326172, " y="-3.4023438, ">
				Frequency (Hz)
		</text>
		<text transform="translate(57.4048 364.599)" font-size="13" font-family="Microsoft YaHei, 微软雅黑" x="-28.24707, -20.623535, -13.247559, -7.6235352, " y="5.1765137, ">
				1e-7
		</text>
		<text transform="translate(57.4048 244.679)" font-size="13" font-family="Microsoft YaHei, 微软雅黑" x="-28.24707, -20.623535, -13.247559, -7.6235352, " y="5.1765137, ">
				1e-6
		</text>
		<text transform="translate(57.4048 124.759)" font-size="13" font-family="Microsoft YaHei, 微软雅黑" x="-28.24707, -20.623535, -13.247559, -7.6235352, " y="5.1765137, ">
				1e-5
		</text>
		<path fill="none" stroke="#00008B" stroke-width="1" stroke-miterlimit="10" stroke-opacity="0.11764706" d="M61.4048 364.599L929.376 364.599M61.4048 244.679L929.376 244.679M61.4048 124.759L929.376 124.759"/>
		<path fill="none" stroke="#D9D9D9" stroke-width="1" stroke-miterlimit="10" d="M68.4048 364.599L61.4048 364.599M68.4048 244.679L61.4048 244.679M68.4048 124.759L61.4048 124.759"/>
		<text transform="matrix(0 -1 1 0 12 246.211)" font-size="13" font-family="Microsoft YaHei, 微软雅黑" x="-40.977295, -31.074951, -27.615479, -21.5979, -17.751221, -9.9055176, -2.7199707, 7.5441895, 13.371338, 20.823486, 28.447021, 32.293701, 36.635498, " y="13.755371, ">
				Dis Yaw_T7 ()
		</text>
		<clipPath id="cl_2e">
			<rect x="61.404785" y="39.736572" width="867.97168" height="412.948"/>
		</clipPath>
		<g clip-path="url(#cl_2e)">
			<path fill="none" stroke="#2CA02C" stroke-width="1.5" stroke-linejoin="bevel" d="M57.7578 83.73L61.4048 54.6478L65.0517 49.9943L68.6987 57.6465L72.3456 51.9467L75.9925 52.647L79.6395 46.2345L83.2864 60.7766L86.9334 58.1328L90.5803 44.1907L94.2272 52.6639L97.8742 61.0443L101.521 78.488L105.168 67.2671L108.815 57.3553L112.462 66.8677L116.109 65.2018L119.756 74.967L123.403 78.3176L127.05 89.5402L130.697 92.3385L134.344 95.6159L137.991 100.618L141.637 110.138L145.284 106.772L148.931 100.396L152.578 102.551L156.225 110.362L159.872 116.555L163.519 115.002L167.166 136.832L170.813 132.36L174.46 127.047L178.107 142.201L181.754 145.91L185.401 143.7L189.048 131.879L192.695 123.935L196.342 130.971L199.988 143.049L203.635 148.174L207.282 146.827L210.929 156.636L214.576 156.403L218.223 151.85L221.87 158.307L225.517 155.375L229.164 146.057L232.811 146.903L236.458 164.191L240.105 152.191L243.752 144.051L247.399 155.868L251.046 153.986L254.693 139.881L258.34 130.288L261.986 143.739L265.633 142.786L269.28 130.572L272.927 135.463L276.574 138.574L280.221 148.233L283.868 138.818L287.515 130.901L291.162 129.121L294.809 132.745L298.456 143.649L302.103 156.717L305.75 160.103L309.397 155.869L313.044 136.609L316.691 137.405L320.338 143.148L323.984 148.634L327.631 156.638L331.278 147.826L334.925 145.045L338.572 153.535L342.219 157.872L345.866 159.191L349.513 154.132L353.16 179.41L356.807 168.336L360.454 167.26L364.101 162.107L367.748 154.551L371.395 156.189L375.042 160.15L378.689 152.802L382.335 147.809L385.982 172.496L389.629 156.524L393.276 151.244L396.923 165.223L400.57 175.627L404.217 156.313L407.864 162.766L411.511 167.027L415.158 165.607L418.805 176.427L422.452 169.853L426.099 173.349L429.746 174.236L433.393 186.075L437.04 190.126L440.687 174.327L444.333 170.137L447.98 158.84L451.627 168.25L455.274 175.81L458.921 176.642L462.568 172.848L466.215 186.78L469.862 192.512L473.509 189.674L477.156 184.197L480.803 171.844L484.45 183.234L488.097 185.394L491.744 190.155L495.391 209.223L499.038 199.079L502.685 198.615L506.331 194.17L509.978 182.948L513.625 174.841L517.272 191.651L520.919 193.553L524.566 205.362L528.213 214.252L531.86 216.613L535.507 203.899L539.154 202.827L542.801 203.449L546.448 200.009L550.095 214.582L553.742 234.026L557.389 207.371L561.036 200.645L564.682 200.283L568.329 214.706L571.976 232.785L575.623 252.416L579.27 231.865L582.917 219.035L586.564 220.242L590.211 224.176L593.858 223.604L597.505 234.55L601.152 254.37L604.799 251.959L608.446 245.811L612.093 237.6L615.74 238.613L619.387 242.956L623.034 247.383L626.68 244.219L630.327 245.12L633.974 243.38L637.621 260.594L641.268 264.89L644.915 256.217L648.562 251.962L652.209 261.437L655.856 269.084L659.503 266.161L663.15 269.059L666.797 276.629L670.444 277.217L674.091 276.295L677.738 283.29L681.385 299.832L685.031 302.952L688.678 288.196L692.325 283.791L695.972 301.566L699.619 297.994L703.266 295.067L706.913 296.969L710.56 291.131L714.207 298.942L717.854 305.971L721.501 313.343L725.148 315.925L728.795 293.846L732.442 296.905L736.089 308.956L739.736 305.306L743.383 308.837L747.029 316.763L750.676 334.536L754.323 331.476L757.97 337.975L761.617 311.936L765.264 308.112L768.911 324.186L772.558 325.876L776.205 322.825L779.852 330.032L783.499 317.064L787.146 315.512L790.793 324.94L794.44 330.11L798.087 342.337L801.734 325.984L805.38 324.595L809.027 342.737L812.674 333.603L816.321 325.874L819.968 340.793L823.615 351.453L827.262 362.469L830.909 370.633L834.556 362.821L838.203 353.601L841.85 337.377L845.497 338.685L849.144 348.424L852.791 371.933L856.438 363.892L860.085 355.143L863.732 343.348L867.378 352.3L871.025 357.744L874.672 356.324L878.319 332.632L881.966 329.016L885.613 343.297L889.26 346.718L892.907 339.288L896.554 355.118L900.201 355.963L903.848 359.614L907.495 355.592L911.142 362.298L914.789 376.169L918.436 374.324L922.083 377.902L925.73 367.684L929.376 395.876L933.023 472.633"/>
			<path fill="none" stroke="#FF0037" stroke-width="1.5" stroke-linejoin="bevel" d="M57.7578 53.7814L61.4048 42.4446L65.0517 39.7366L68.6987 50.8042L72.3456 51.4608L75.9925 54.2986L79.6395 46.0252L83.2864 57.8424L86.9334 53.231L90.5803 43.3341L94.2272 54.3921L97.8742 61.497L101.521 82.8699L105.168 74.6076L108.815 62.2243L112.462 68.7871L116.109 71.5606L119.756 77.9018L123.403 74.3933L127.05 92.0341L130.697 102.449L134.344 96.826L137.991 99.9688L141.637 102.437L145.284 96.8242L148.931 97.4612L152.578 105.483L156.225 117.074L159.872 119.132L163.519 115.998L167.166 140.61L170.813 123.882L174.46 116.265L178.107 130.036L181.754 138.209L185.401 137.085L189.048 123.518L192.695 118.464L196.342 124.53L199.988 144.364L203.635 143.006L207.282 133.02L210.929 144.964L214.576 145.934L218.223 145.121L221.87 147.456L225.517 146.311L229.164 139.565L232.811 142.353L236.458 153.065L240.105 134.755L243.752 131.145L247.399 150.572L251.046 155.035L254.693 136.9L258.34 122.938L261.986 139.814L265.633 134.747L269.28 121.703L272.927 125.157L276.574 127.612L280.221 134.572L283.868 138.843L287.515 125.696L291.162 122.919L294.809 123.997L298.456 134.053L302.103 133.542L305.75 128.532L309.397 138.494L313.044 127.016L316.691 126.229L320.338 130.329L323.984 134.342L327.631 124.27L331.278 118.895L334.925 132.889L338.572 140.494L342.219 144.181L345.866 166.11L349.513 168.152L353.16 162.338L356.807 158.954L360.454 156.419L364.101 140.264L367.748 136.875L371.395 140.543L375.042 158.688L378.689 164.642L382.335 159.092L385.982 159.413L389.629 150.077L393.276 151.037L396.923 153.018L400.57 166.018L404.217 148.755L407.864 152.972L411.511 167.839L415.158 163.942L418.805 174.859L422.452 173.789L426.099 174.075L429.746 173.753L433.393 182.785L437.04 187.272L440.687 177.733L444.333 178.348L447.98 165.047L451.627 172.281L455.274 177.889L458.921 184.541L462.568 179.405L466.215 193.938L469.862 200.025L473.509 195.366L477.156 188.877L480.803 181.51L484.45 192.697L488.097 188.289L491.744 193.415L495.391 212.01L499.038 207.076L502.685 210.918L506.331 206.241L509.978 194.723L513.625 185.255L517.272 204.242L520.919 204.144L524.566 211.814L528.213 219.744L531.86 225.163L535.507 213.683L539.154 212.885L542.801 213.406L546.448 207.378L550.095 223.875L553.742 243.82L557.389 217.333L561.036 210.247L564.682 209.31L568.329 225.101L571.976 243.134L575.623 263.316L579.27 244.377L582.917 232.162L586.564 230.955L590.211 233.732L593.858 232.914L597.505 244.607L601.152 266.23L604.799 263.239L608.446 254.981L612.093 246.572L615.74 248.518L619.387 254.806L623.034 262.743L626.68 261.176L630.327 257.681L633.974 254.165L637.621 269.253L641.268 274.104L644.915 268.811L648.562 264.397L652.209 268.938L655.856 269.262L659.503 265.685L663.15 273.317L666.797 279.865L670.444 280.651L674.091 283.176L677.738 290.864L681.385 305.391L685.031 307.781L688.678 290.107L692.325 284.574L695.972 300.248L699.619 297.414L703.266 300.44L706.913 303.548L710.56 300.596L714.207 314.135L717.854 317.834L721.501 322.578L725.148 323.065L728.795 304.397L732.442 312.726L736.089 328.229L739.736 322.763L743.383 324.337L747.029 329.048L750.676 348.847L754.323 347.723L757.97 347.991L761.617 323.56L765.264 320.258L768.911 333.245L772.558 333.09L776.205 333.162L779.852 343.019L783.499 333.149L787.146 330.381L790.793 336.348L794.44 340.9L798.087 348.787L801.734 335.382L805.38 335.565L809.027 352.722L812.674 344.471L816.321 338.787L819.968 354.88L823.615 363.502L827.262 365.971L830.909 373.328L834.556 371.002L838.203 364.928L841.85 348.643L845.497 349.647L849.144 357.644L852.791 381.583L856.438 371.596L860.085 362.185L863.732 353.356L867.378 359.001L871.025 364.345L874.672 365.319L878.319 341.569L881.966 337.773L885.613 353.251L889.26 357.795L892.907 351.011L896.554 365.59L900.201 368.361L903.848 373.679L907.495 367.172L911.142 371.302L914.789 386.179L918.436 387.176L922.083 390.665L925.73 382.829L929.376 417.425L933.023 520.266"/>
		</g>
		<text transform="translate(495.391 8)" font-size="13" font-family="Microsoft YaHei, 微软雅黑" x="-359.10278, -350.40649, -347.2771, -341.8689, -332.16333, -326.14575, -318.76978, -313.80591, -307.78833, -302.38013, -297.23218, -289.8562, -280.21411, -275.25024, -267.87427, -260.99341, -255.58521, -245.68286, -238.30688, -228.66479, -223.82153, -215.55688, -207.25415, -201.84595, -194.22241, -186.59888, -176.95679, -173.82739, -166.20386, -158.58032, -153.17212, -145.71997, -138.09644, -128.45435, -124.63306, -115.93677, -108.43384, -103.02563, -95.573486, -87.949951, -78.307861, -74.486572, -65.790283, -58.287354, -52.87915, -45.255615, -37.63208, -27.98999, -23.146729, -15.770752, -10.806885, -5.3986816, -1.5773926, 7.1188965, 16.760986, 27.355225, 37.022705, 46.690186, 52.098389, 60.585205, 67.961182, 73.97876, 82.281494, 90.546143, 98.556885, 104.57446, 111.95044, 119.57397, 122.70337, 128.72095, 136.09692, 140.60376, 143.73315, 147.57983, 154.25122, 161.6272, 169.63794, 179.28003, 186.90356, 190.03296, 197.65649, 203.67407, 206.80347, 210.65015, 217.5564, 223.57397, 233.21606, 240.8396, 248.46313, 256.08667, 263.71021, 273.76489, 280.15698, 283.28638, 287.13306, 297.7019, 304.60815, 311.5144, 318.96655, 328.60864, 336.23218, 343.85571, 351.47925, " y="13.755371, ">
				C:\Users\Je~rey\De~top\20~.07\T7~ICS\T7~ICS\99~ter\IC~OGG\Response2.sef, Len=2.0s, Fs=1000Hz, NFFT=2000
		</text>
		<rect fill="none" stroke="black" stroke-width="1" stroke-miterlimit="10" stroke-opacity="0.73725492" x="61.404785" y="39.736572" width="867.97168" height="412.948"/>
		<rect fill="white" fill-opacity="0.39215687" x="635.78107" y="54.736572" width="278.5954" height="44.31543"/>
		<clipPath id="cl_2f">
			<rect x="635.78107" y="54.736572" width="278.5954" height="44.31543"/>
		</clipPath>
		<g clip-path="url(#cl_2f)">
			<text transform="translate(682.781 59.7366)" font-size="13" font-family="Microsoft YaHei, 微软雅黑" x="0, 4.3417969, 8.6835938, 16.135742, 23.321289, 28.285156, 36.600586, 43.976563, 48.819824, 54.443848, 60.067871, 65.691895, 75.594238, 79.053711, 85.071289, 88.917969, 96.763672, 103.94922, " y="13.755371, ">
					[]Target---Dis Yaw
			</text>
			<text transform="translate(798.994 59.7366)" font-size="13" font-family="Microsoft YaHei, 微软雅黑" x="0, 5.8271484, 13.279297, 20.902832, 25.244629, 29.586426, " y="13.755371, ">
					_T7(()
			</text>
			<text transform="translate(832.923 59.7366)" font-size="8.0600004" font-family="Microsoft YaHei, 微软雅黑" x="2.3849416, " y="8.5283308, ">
					2
			</text>
			<text transform="translate(842.034 59.7366)" font-size="13" font-family="Microsoft YaHei, 微软雅黑" x="0, 5.5541992, 9.4008789, 19.455566, 25.847656, 30.189453, 34.036133, 38.37793, " y="13.755371, ">
					/ Hz) ()
			</text>
			<path fill="none" stroke="#2CA02C" stroke-width="1.5" stroke-miterlimit="10" d="M640.781 68.3154L670.781 68.3154"/>
			<text transform="translate(682.781 76.8943)" font-size="13" font-family="Microsoft YaHei, 微软雅黑" x="0, 4.3417969, 8.6835938, 17.830566, 24.349609, 29.192871, 37.203613, 44.38916, 47.848633, 53.472656, 59.09668, 64.720703, 74.623047, 78.08252, 84.100098, 92.402832, 99.550293, 105.56787, 110.41113, 113.54053, 121.38623, 128.57178, " y="13.755371, ">
					[]Actual---DispEst.Yaw
			</text>
			<text transform="translate(823.617 76.8943)" font-size="13" font-family="Microsoft YaHei, 微软雅黑" x="0, 5.8271484, 13.279297, 20.902832, 25.244629, 29.586426, " y="13.755371, ">
					_T7(()
			</text>
			<text transform="translate(857.545 76.8943)" font-size="8.0600004" font-family="Microsoft YaHei, 微软雅黑" x="2.3849416, " y="8.5283308, ">
					2
			</text>
			<text transform="translate(866.657 76.8943)" font-size="13" font-family="Microsoft YaHei, 微软雅黑" x="0, 5.5541992, 9.4008789, 19.455566, 25.847656, 30.189453, 34.036133, 38.37793, " y="13.755371, ">
					/ Hz) ()
			</text>
			<path fill="none" stroke="#FF0037" stroke-width="1.5" stroke-miterlimit="10" d="M640.781 85.4731L670.781 85.4731"/>
		</g>
	</g>
</svg>
