<?xml version="1.0" encoding="utf-8" ?>
<svg xmlns="http://www.w3.org/2000/svg" xmlns:xlink="http://www.w3.org/1999/xlink" width="945" height="503">
	<rect fill="white" width="945" height="503"/>
	<clipPath id="cl_33">
		<rect width="945" height="503"/>
	</clipPath>
	<g clip-path="url(#cl_33)">
		<path fill="none" stroke="#00008B" stroke-width="1" stroke-miterlimit="10" stroke-opacity="0.078431375" d="M65.4229 39.7366L65.4229 452.685M98.3247 39.7366L98.3247 452.685M126.143 39.7366L126.143 452.685M150.24 39.7366L150.24 452.685M171.495 39.7366L171.495 452.685M190.509 39.7366L190.509 452.685M315.594 39.7366L315.594 452.685M388.765 39.7366L388.765 452.685M440.68 39.7366L440.68 452.685M480.949 39.7366L480.949 452.685M513.851 39.7366L513.851 452.685M541.669 39.7366L541.669 452.685M565.766 39.7366L565.766 452.685M587.021 39.7366L587.021 452.685M606.034 39.7366L606.034 452.685M731.12 39.7366L731.12 452.685M804.291 39.7366L804.291 452.685M856.206 39.7366L856.206 452.685M896.475 39.7366L896.475 452.685M929.376 39.7366L929.376 452.685"/>
		<path fill="none" stroke="#D9D9D9" stroke-width="1" stroke-miterlimit="10" d="M65.4229 448.685L65.4229 452.685M98.3247 448.685L98.3247 452.685M126.143 448.685L126.143 452.685M150.24 448.685L150.24 452.685M171.495 448.685L171.495 452.685M190.509 448.685L190.509 452.685M315.594 448.685L315.594 452.685M388.765 448.685L388.765 452.685M440.68 448.685L440.68 452.685M480.949 448.685L480.949 452.685M513.851 448.685L513.851 452.685M541.669 448.685L541.669 452.685M565.766 448.685L565.766 452.685M587.021 448.685L587.021 452.685M606.034 448.685L606.034 452.685M731.12 448.685L731.12 452.685M804.291 448.685L804.291 452.685M856.206 448.685L856.206 452.685M896.475 448.685L896.475 452.685M929.376 448.685L929.376 452.685"/>
		<path fill="none" stroke="#00008B" stroke-width="1" stroke-miterlimit="10" stroke-opacity="0.078431375" d="M65.4229 417.217L929.376 417.217M65.4229 394.834L929.376 394.834M65.4229 378.952L929.376 378.952M65.4229 366.634L929.376 366.634M65.4229 356.569L929.376 356.569M65.4229 348.059L929.376 348.059M65.4229 340.688L929.376 340.688M65.4229 334.185L929.376 334.185M65.4229 328.369L929.376 328.369M65.4229 290.104L929.376 290.104M65.4229 267.721L929.376 267.721M65.4229 251.839L929.376 251.839M65.4229 239.521L929.376 239.521M65.4229 229.456L929.376 229.456M65.4229 220.946L929.376 220.946M65.4229 213.575L929.376 213.575M65.4229 207.073L929.376 207.073M65.4229 201.256L929.376 201.256M65.4229 162.991L929.376 162.991M65.4229 140.608L929.376 140.608M65.4229 124.727L929.376 124.727M65.4229 112.408L929.376 112.408M65.4229 102.343L929.376 102.343M65.4229 93.8335L929.376 93.8335M65.4229 86.462L929.376 86.462M65.4229 79.9598L929.376 79.9598M65.4229 74.1435L929.376 74.1435"/>
		<path fill="none" stroke="#D9D9D9" stroke-width="1" stroke-miterlimit="10" d="M69.4229 417.217L65.4229 417.217M69.4229 394.834L65.4229 394.834M69.4229 378.952L65.4229 378.952M69.4229 366.634L65.4229 366.634M69.4229 356.569L65.4229 356.569M69.4229 348.059L65.4229 348.059M69.4229 340.688L65.4229 340.688M69.4229 334.185L65.4229 334.185M69.4229 328.369L65.4229 328.369M69.4229 290.104L65.4229 290.104M69.4229 267.721L65.4229 267.721M69.4229 251.839L65.4229 251.839M69.4229 239.521L65.4229 239.521M69.4229 229.456L65.4229 229.456M69.4229 220.946L65.4229 220.946M69.4229 213.575L65.4229 213.575M69.4229 207.073L65.4229 207.073M69.4229 201.256L65.4229 201.256M69.4229 162.991L65.4229 162.991M69.4229 140.608L65.4229 140.608M69.4229 124.727L65.4229 124.727M69.4229 112.408L65.4229 112.408M69.4229 102.343L65.4229 102.343M69.4229 93.8335L65.4229 93.8335M69.4229 86.462L65.4229 86.462M69.4229 79.9598L65.4229 79.9598M69.4229 74.1435L65.4229 74.1435"/>
		<text transform="translate(190.509 456.685)" font-size="13" font-family="Microsoft YaHei, 微软雅黑" x="-3.8117676, " y="13.755371, ">
				1
		</text>
		<text transform="translate(606.034 456.685)" font-size="13" font-family="Microsoft YaHei, 微软雅黑" x="-7.6235352, 0, " y="13.755371, ">
				10
		</text>
		<path fill="none" stroke="#00008B" stroke-width="1" stroke-miterlimit="10" stroke-opacity="0.11764706" d="M190.509 39.7366L190.509 452.685M606.034 39.7366L606.034 452.685"/>
		<path fill="none" stroke="#D9D9D9" stroke-width="1" stroke-miterlimit="10" d="M190.509 445.685L190.509 452.685M606.034 445.685L606.034 452.685"/>
		<text transform="translate(497.4 491)" font-size="13" font-family="Microsoft YaHei, 微软雅黑" x="-59.233154, -52.326904, -47.363037, -39.987061, -31.671631, -23.660889, -16.284912, -8.2741699, -1.755127, 5.1257324, 9.4675293, 19.522217, 25.914307, 30.256104, 34.102783, 38.44458, 48.499268, 54.891357, " y="-3.4023438, ">
				Frequency(Hz) (Hz)
		</text>
		<text transform="translate(61.4229 328.369)" font-size="13" font-family="Microsoft YaHei, 微软雅黑" x="-28.24707, -20.623535, -13.247559, -7.6235352, " y="5.1765137, ">
				1e-1
		</text>
		<text transform="translate(61.4229 201.256)" font-size="13" font-family="Microsoft YaHei, 微软雅黑" x="-32.265137, -24.641602, -17.265625, -7.6235352, " y="5.1765137, ">
				1e+0
		</text>
		<text transform="translate(61.4229 74.1435)" font-size="13" font-family="Microsoft YaHei, 微软雅黑" x="-32.265137, -24.641602, -17.265625, -7.6235352, " y="5.1765137, ">
				1e+1
		</text>
		<path fill="none" stroke="#00008B" stroke-width="1" stroke-miterlimit="10" stroke-opacity="0.11764706" d="M65.4229 328.369L929.376 328.369M65.4229 201.256L929.376 201.256M65.4229 74.1435L929.376 74.1435"/>
		<path fill="none" stroke="#D9D9D9" stroke-width="1" stroke-miterlimit="10" d="M72.4229 328.369L65.4229 328.369M72.4229 201.256L65.4229 201.256M72.4229 74.1435L65.4229 74.1435"/>
		<text transform="matrix(0 -1 1 0 12 246.211)" font-size="13" font-family="Microsoft YaHei, 微软雅黑" x="-20.426758, -10.759277, -3.5737305, -0.11425781, 7.8964844, 11.743164, 16.084961, " y="13.755371, ">
				Gain ()
		</text>
		<clipPath id="cl_34">
			<rect x="65.422852" y="39.736572" width="863.95361" height="412.948"/>
		</clipPath>
		<g clip-path="url(#cl_34)">
			<path fill="none" stroke="#2CA02C" stroke-width="1.5" stroke-linejoin="bevel" d="M-59.6629 200.815L65.4229 200.85L138.593 201.025L190.509 201.769L230.777 202.703L263.679 202.07L291.497 202.544L315.594 202.797L336.85 202.517L355.863 201.91L373.063 203.187L388.765 204.424L403.209 204.613L416.583 205.719L429.033 205.555L440.68 206.528L451.62 207.358L461.935 207.68L471.692 207.476L480.949 207.336L489.753 209.347L498.148 209.536L506.17 210.171L513.851 210.492L521.217 212.1L528.295 213.146L535.106 211.869L541.669 215.581L548.001 215.072L554.119 213.997L560.036 213.956L565.766 216.603L571.319 216.976L576.706 217.147L581.937 218.081L587.021 219.215L591.966 219.491L596.778 219.636L601.466 220.643L606.034 221.582L610.491 222.869L614.839 220.795L619.086 221.392L623.234 223.323L627.29 226.163L631.256 224.304L635.137 225.58L638.936 226.753L642.657 227.787L646.303 226.13L649.877 225.726L653.381 226.043L656.818 227.276L660.192 227.18L663.503 226.702L666.754 226.946L669.949 227.87L673.087 226.871L676.172 227.84L679.205 227.905L682.188 226.903L685.122 227.443L688.01 228.29L690.852 229.821L693.65 224.831L696.405 222.19L699.118 222.538L701.792 220.855L704.426 219.929L707.023 221.981L709.583 221.871L712.107 219.189L714.596 214.714L717.051 213.475L719.474 211.963L721.864 209.469L724.223 206.89L726.551 201.568L728.85 194.673L731.12 190.694L733.362 187.054L735.576 180.334L737.764 176.396L739.925 172.091L742.061 174.907L744.171 181.369L746.258 190.407L748.32 203.015L750.359 211.897L752.375 222.61L754.37 236.369L756.342 249.691L758.293 256.914L760.223 264.686L762.132 276.496L764.022 286.505L765.892 296.222L767.743 308.088L769.575 315.978L771.389 325.643L773.185 335.402L774.962 344.145L776.723 358.468L778.467 373.52L780.194 404.987L781.904 400.337L783.599 415.708L785.277 437.933L786.941 428.187L788.589 444.633L790.222 421.338L791.84 440.735L793.444 422.854L795.034 396.695L796.61 389.737L799.722 375.067L801.258 370.935L802.781 374.926L805.788 369.616L807.274 365.967L808.747 359.516L810.208 352.877L811.657 355.679L814.522 349.551L817.342 348.593L818.735 350.325L821.49 344.782L824.204 341.021L826.878 348.595L828.2 350.232L829.512 351.911L830.815 348.719L833.393 349.86L834.669 343.372L835.935 338.98L837.193 348.866L839.682 343.053L842.137 342.986L843.352 347.894L845.758 347.895L848.133 338.638L849.309 340.637L851.637 343.909L853.936 349.103L855.075 345.347L856.206 348.127L857.33 351.604L859.558 344.587L861.759 349.886L862.849 345.66L863.933 353.218L865.011 344.529L866.082 348.604L867.146 346.655L869.257 351.947L870.303 350.234L871.343 344.015L872.377 346.053L873.406 353.059L874.428 362.738L875.445 347.472L877.461 356.921L878.461 349.069L879.455 352.152L881.427 356.998L882.406 353.845L883.378 347.85L884.346 351.231L885.309 347.43L888.165 349.652L889.108 355.189L890.045 352.124L890.978 348.965L893.747 347.579L894.661 351.206L895.57 353.116L897.375 349.192L898.27 346.598L899.161 355.082L900.048 349.854L900.931 355.116L901.809 358.404L902.683 354.122L905.279 359.43L906.137 365.315L906.99 352.653L907.839 354.89L909.526 346.569L910.363 349.84L911.197 355.495L912.026 351.716L912.852 344.939L913.674 354.985L916.119 358.518L916.926 362.555L917.73 360.245L918.53 363.713L919.327 365.574L920.12 357.252L920.91 362.673L922.479 367.13L923.259 375.775L924.035 372.201L925.577 369.983L927.107 371.448L928.623 374.748L929.376 369.414L930.127 364.029"/>
			<path fill="none" stroke="#FF0037" stroke-width="1.5" stroke-linejoin="bevel" d="M-59.6629 202.983L65.4229 206.38L138.593 210.376L190.509 210.553L230.777 212.807L263.679 213.532L291.497 213.165L315.594 212.874L336.85 213.586L355.863 213.832L373.063 213.714L388.765 214.276L403.209 214.757L416.583 213.058L429.033 211.923L440.68 213.665L451.62 213.694L461.935 213.987L471.692 214.413L480.949 214.773L489.753 215.663L498.148 215.725L506.17 215.863L513.851 215.924L521.217 215.925L528.295 216.937L535.106 216.124L541.669 216.139L548.001 216.987L554.119 217.688L560.036 218.637L565.766 219.233L571.319 218.338L576.706 217.409L581.937 216.986L587.021 218.172L591.966 219.719L596.778 220.212L601.466 219.048L606.034 219.727L610.491 218.707L614.839 217.343L619.086 217.512L623.234 217.966L627.29 219.641L631.256 217.781L635.137 217.137L638.936 218.473L642.657 218.561L646.303 220.367L649.877 221.037L653.381 219.124L656.818 217.952L660.192 216.434L663.503 214.809L666.754 214.549L669.949 213.754L673.087 214.622L676.172 215.133L679.205 213.354L682.188 211.456L685.122 208.381L688.01 207.467L690.852 206.049L693.65 201.908L696.405 202.246L699.118 202.579L701.792 202.121L704.426 196.436L707.023 195.363L709.583 191.205L712.107 188.407L714.596 182.933L717.051 179.421L719.474 183.76L721.864 176.929L724.223 168.81L726.551 165.023L728.85 157.571L731.12 150.107L733.362 138.666L735.576 136.201L737.764 131.512L739.925 128.464L742.061 127.696L744.171 132.178L746.258 140.342L748.32 151.685L750.359 161.353L752.375 166.443L754.37 172.733L756.342 184.445L758.293 187.904L760.223 188.818L762.132 200.366L764.022 205.642L765.892 211.136L767.743 215.826L769.575 220.392L771.389 224.973L774.962 229.949L776.723 236.953L778.467 242.757L781.904 244.631L783.599 251.128L785.277 257.718L788.589 260.672L790.222 266.25L791.84 260.152L793.444 264.985L795.034 270.543L796.61 268.132L798.173 274.483L801.258 275.822L802.781 280.602L804.291 287.763L807.274 288.197L808.747 289.778L811.657 293.726L813.095 298.025L814.522 301.457L817.342 305.372L818.735 306.809L820.118 309.66L821.49 307.471L822.852 311.538L824.204 320.768L825.546 318.741L828.2 317.352L829.512 321.035L832.109 322.317L834.669 330.167L835.935 326.7L837.193 330.08L839.682 332.473L840.914 339L843.352 338.111L845.758 339.148L846.95 342.87L848.133 345.987L849.309 347.607L851.637 346.021L853.936 348.298L855.075 351.709L857.33 354.552L859.558 353.602L861.759 364.312L862.849 362.466L863.933 358.488L865.011 361.155L866.082 364.211L868.205 363.041L870.303 365.134L871.343 370.334L872.377 372.104L873.406 374.017L874.428 375.784L875.445 373.104L876.456 376.648L878.461 375.03L879.455 377.534L880.444 380.796L882.406 384.398L883.378 380.295L885.309 384.363L887.218 386.153L889.108 385.175L890.045 393.869L892.829 395.298L893.747 397.717L894.661 399.711L895.57 397.624L896.475 399.596L897.375 395.891L898.27 400.549L900.048 406.75L900.931 404.452L902.683 411.168L904.418 406.018L906.137 413.03L906.99 416.256L908.684 411.624L909.526 415.195L911.197 418.131L912.026 423.575L912.852 426.674L913.674 422.817L914.493 425.1L915.307 421.471L916.119 427.263L917.73 429.651L920.12 426.962L920.91 432.318L922.479 434.626L924.035 437.602L926.343 438.826L927.866 436.512L928.623 440.602L929.376 444.525L930.127 444.857"/>
		</g>
		<text transform="translate(497.4 8)" font-size="13" font-family="Microsoft YaHei, 微软雅黑" x="-94.35791, -91.228516, -87.381836, -80.710449, -73.334473, -65.32373, -55.681641, -44.217773, -38.200195, -35.070801, -31.224121, -24.317871, -18.300293, -8.6582031, -1.034668, 9.0200195, 15.412109, 18.541504, 22.388184, 32.957031, 39.863281, 46.769531, 54.22168, 63.86377, 71.487305, 79.11084, 86.734375, " y="13.755371, ">
				, Len=∞s, Fs=0Hz, NFFT=2000
		</text>
		<rect fill="none" stroke="black" stroke-width="1" stroke-miterlimit="10" stroke-opacity="0.73725492" x="65.422852" y="39.736572" width="863.95361" height="412.948"/>
		<rect fill="white" fill-opacity="0.39215687" x="621.63574" y="54.736572" width="292.74072" height="44.31543"/>
		<clipPath id="cl_35">
			<rect x="621.63574" y="54.736572" width="292.74072" height="44.31543"/>
		</clipPath>
		<g clip-path="url(#cl_35)">
			<text transform="translate(666.636 59.7366)" font-size="13" font-family="Microsoft YaHei, 微软雅黑" x="0, 4.3417969, 8.6835938, 16.637207, 24.901855, 30.919434, 34.378906, 39.222168, 42.681641, 50.946289, 58.957031, 62.803711, 70.649414, 77.834961, 88.099121, 93.92627, 101.37842, 109.00195, 114.62598, 120.25, 129.89209, 137.8457, 146.11035, 152.12793, 155.5874, 160.43066, 163.89014, 172.15479, 180.16553, 184.01221, 191.85791, 199.04346, 209.30762, 215.13477, 222.58691, 230.21045, 234.05713, 238.39893, " y="13.755371, ">
					[]Position Yaw_T7--&gt;Position Yaw_T7 ()
			</text>
			<path fill="none" stroke="#2CA02C" stroke-width="1.5" stroke-miterlimit="10" d="M626.636 68.3154L656.636 68.3154"/>
			<text transform="translate(666.636 76.8943)" font-size="13" font-family="Microsoft YaHei, 微软雅黑" x="0, 4.3417969, 8.6835938, 16.637207, 24.901855, 30.919434, 34.378906, 39.222168, 42.681641, 50.946289, 58.957031, 62.803711, 70.649414, 77.834961, 88.099121, 93.92627, 101.37842, 109.00195, 114.62598, 120.25, 129.89209, 139.79443, 143.25391, 149.27148, 157.57422, 164.72168, 170.73926, 175.58252, 178.71191, 186.55762, 193.74316, 204.00732, 209.83447, 217.28662, 224.91016, 228.75684, 233.09863, " y="13.755371, ">
					[]Position Yaw_T7--&gt;DispEst.Yaw_T7 ()
			</text>
			<path fill="none" stroke="#FF0037" stroke-width="1.5" stroke-miterlimit="10" d="M626.636 85.4731L656.636 85.4731"/>
		</g>
	</g>
</svg>
