<?xml version="1.0" encoding="utf-8" ?>
<svg xmlns="http://www.w3.org/2000/svg" xmlns:xlink="http://www.w3.org/1999/xlink" width="945" height="503">
	<rect fill="white" width="945" height="503"/>
	<clipPath id="cl_1e">
		<rect width="945" height="503"/>
	</clipPath>
	<g clip-path="url(#cl_1e)">
		<path fill="none" stroke="#00008B" stroke-width="1" stroke-miterlimit="10" stroke-opacity="0.078431375" d="M65.4229 39.7366L65.4229 452.685M98.3247 39.7366L98.3247 452.685M126.143 39.7366L126.143 452.685M150.24 39.7366L150.24 452.685M171.495 39.7366L171.495 452.685M190.509 39.7366L190.509 452.685M315.594 39.7366L315.594 452.685M388.765 39.7366L388.765 452.685M440.68 39.7366L440.68 452.685M480.949 39.7366L480.949 452.685M513.851 39.7366L513.851 452.685M541.669 39.7366L541.669 452.685M565.766 39.7366L565.766 452.685M587.021 39.7366L587.021 452.685M606.034 39.7366L606.034 452.685M731.12 39.7366L731.12 452.685M804.291 39.7366L804.291 452.685M856.206 39.7366L856.206 452.685M896.475 39.7366L896.475 452.685M929.376 39.7366L929.376 452.685"/>
		<path fill="none" stroke="#D9D9D9" stroke-width="1" stroke-miterlimit="10" d="M65.4229 448.685L65.4229 452.685M98.3247 448.685L98.3247 452.685M126.143 448.685L126.143 452.685M150.24 448.685L150.24 452.685M171.495 448.685L171.495 452.685M190.509 448.685L190.509 452.685M315.594 448.685L315.594 452.685M388.765 448.685L388.765 452.685M440.68 448.685L440.68 452.685M480.949 448.685L480.949 452.685M513.851 448.685L513.851 452.685M541.669 448.685L541.669 452.685M565.766 448.685L565.766 452.685M587.021 448.685L587.021 452.685M606.034 448.685L606.034 452.685M731.12 448.685L731.12 452.685M804.291 448.685L804.291 452.685M856.206 448.685L856.206 452.685M896.475 448.685L896.475 452.685M929.376 448.685L929.376 452.685"/>
		<path fill="none" stroke="#00008B" stroke-width="1" stroke-miterlimit="10" stroke-opacity="0.078431375" d="M65.4229 422.127L929.376 422.127M65.4229 397.178L929.376 397.178M65.4229 379.477L929.376 379.477M65.4229 365.746L929.376 365.746M65.4229 354.528L929.376 354.528M65.4229 345.043L929.376 345.043M65.4229 336.827L929.376 336.827M65.4229 329.579L929.376 329.579M65.4229 323.097L929.376 323.097M65.4229 280.447L929.376 280.447M65.4229 255.498L929.376 255.498M65.4229 237.797L929.376 237.797M65.4229 224.066L929.376 224.066M65.4229 212.848L929.376 212.848M65.4229 203.363L929.376 203.363M65.4229 195.147L929.376 195.147M65.4229 187.899L929.376 187.899M65.4229 181.417L929.376 181.417M65.4229 138.767L929.376 138.767M65.4229 113.818L929.376 113.818M65.4229 96.1167L929.376 96.1167M65.4229 82.3865L929.376 82.3865M65.4229 71.1681L929.376 71.1681M65.4229 61.6831L929.376 61.6831M65.4229 53.4668L929.376 53.4668M65.4229 46.2195L929.376 46.2195M65.4229 39.7366L929.376 39.7366"/>
		<path fill="none" stroke="#D9D9D9" stroke-width="1" stroke-miterlimit="10" d="M69.4229 422.127L65.4229 422.127M69.4229 397.178L65.4229 397.178M69.4229 379.477L65.4229 379.477M69.4229 365.746L65.4229 365.746M69.4229 354.528L65.4229 354.528M69.4229 345.043L65.4229 345.043M69.4229 336.827L65.4229 336.827M69.4229 329.579L65.4229 329.579M69.4229 323.097L65.4229 323.097M69.4229 280.447L65.4229 280.447M69.4229 255.498L65.4229 255.498M69.4229 237.797L65.4229 237.797M69.4229 224.066L65.4229 224.066M69.4229 212.848L65.4229 212.848M69.4229 203.363L65.4229 203.363M69.4229 195.147L65.4229 195.147M69.4229 187.899L65.4229 187.899M69.4229 181.417L65.4229 181.417M69.4229 138.767L65.4229 138.767M69.4229 113.818L65.4229 113.818M69.4229 96.1167L65.4229 96.1167M69.4229 82.3865L65.4229 82.3865M69.4229 71.1681L65.4229 71.1681M69.4229 61.6831L65.4229 61.6831M69.4229 53.4668L65.4229 53.4668M69.4229 46.2195L65.4229 46.2195M69.4229 39.7366L65.4229 39.7366"/>
		<text transform="translate(190.509 456.685)" font-size="13" font-family="Microsoft YaHei, 微软雅黑" x="-3.8117676, " y="13.755371, ">
				1
		</text>
		<text transform="translate(606.034 456.685)" font-size="13" font-family="Microsoft YaHei, 微软雅黑" x="-7.6235352, 0, " y="13.755371, ">
				10
		</text>
		<path fill="none" stroke="#00008B" stroke-width="1" stroke-miterlimit="10" stroke-opacity="0.11764706" d="M190.509 39.7366L190.509 452.685M606.034 39.7366L606.034 452.685"/>
		<path fill="none" stroke="#D9D9D9" stroke-width="1" stroke-miterlimit="10" d="M190.509 445.685L190.509 452.685M606.034 445.685L606.034 452.685"/>
		<text transform="translate(497.4 491)" font-size="13" font-family="Microsoft YaHei, 微软雅黑" x="-59.233154, -52.326904, -47.363037, -39.987061, -31.671631, -23.660889, -16.284912, -8.2741699, -1.755127, 5.1257324, 9.4675293, 19.522217, 25.914307, 30.256104, 34.102783, 38.44458, 48.499268, 54.891357, " y="-3.4023438, ">
				Frequency(Hz) (Hz)
		</text>
		<text transform="translate(61.4229 323.097)" font-size="13" font-family="Microsoft YaHei, 微软雅黑" x="-28.24707, -20.623535, -13.247559, -7.6235352, " y="5.1765137, ">
				1e-1
		</text>
		<text transform="translate(61.4229 181.417)" font-size="13" font-family="Microsoft YaHei, 微软雅黑" x="-32.265137, -24.641602, -17.265625, -7.6235352, " y="5.1765137, ">
				1e+0
		</text>
		<text transform="translate(61.4229 39.7366)" font-size="13" font-family="Microsoft YaHei, 微软雅黑" x="-32.265137, -24.641602, -17.265625, -7.6235352, " y="5.1765137, ">
				1e+1
		</text>
		<path fill="none" stroke="#00008B" stroke-width="1" stroke-miterlimit="10" stroke-opacity="0.11764706" d="M65.4229 323.097L929.376 323.097M65.4229 181.417L929.376 181.417M65.4229 39.7366L929.376 39.7366"/>
		<path fill="none" stroke="#D9D9D9" stroke-width="1" stroke-miterlimit="10" d="M72.4229 323.097L65.4229 323.097M72.4229 181.417L65.4229 181.417M72.4229 39.7366L65.4229 39.7366"/>
		<text transform="matrix(0 -1 1 0 12 246.211)" font-size="13" font-family="Microsoft YaHei, 微软雅黑" x="-20.426758, -10.759277, -3.5737305, -0.11425781, 7.8964844, 11.743164, 16.084961, " y="13.755371, ">
				Gain ()
		</text>
		<clipPath id="cl_1f">
			<rect x="65.422852" y="39.736572" width="863.95361" height="412.948"/>
		</clipPath>
		<g clip-path="url(#cl_1f)">
			<path fill="none" stroke="#2CA02C" stroke-width="1.5" stroke-linejoin="bevel" d="M-59.6629 180.925L65.4229 180.963L138.593 181.159L190.509 181.988L230.777 183.029L263.679 182.324L291.497 182.852L315.594 183.134L336.85 182.821L355.863 182.145L373.063 183.569L388.765 184.947L403.209 185.158L416.583 186.391L429.033 186.208L440.68 187.292L451.62 188.218L461.935 188.577L471.692 188.349L480.949 188.193L489.753 190.434L498.148 190.645L506.17 191.353L513.851 191.71L521.217 193.503L528.295 194.668L535.106 193.245L541.669 197.383L548.001 196.816L554.119 195.617L560.036 195.572L565.766 198.522L571.319 198.938L576.706 199.129L581.937 200.17L587.021 201.433L591.966 201.741L596.778 201.903L601.466 203.025L606.034 204.071L610.491 205.507L614.839 203.194L619.086 203.86L623.234 206.012L627.29 209.178L631.256 207.106L635.137 208.528L638.936 209.835L642.657 210.987L646.303 209.141L649.877 208.691L653.381 209.043L656.818 210.419L660.192 210.311L663.503 209.779L666.754 210.05L669.949 211.08L673.087 209.966L676.172 211.046L679.205 211.119L682.188 210.002L685.122 210.604L688.01 211.548L690.852 213.255L693.65 207.693L696.405 204.749L699.118 205.138L701.792 203.261L704.426 202.229L707.023 204.516L709.583 204.393L712.107 201.405L714.596 196.416L717.051 195.036L719.474 193.35L721.864 190.57L724.223 187.696L726.551 181.764L728.85 174.079L731.12 169.644L733.362 165.586L735.576 158.097L737.764 153.707L739.925 148.909L742.061 152.048L744.171 159.251L746.258 169.324L748.32 183.377L750.359 193.276L752.375 205.217L754.37 220.553L756.342 235.402L758.293 243.453L760.223 252.115L762.132 265.279L764.022 276.435L765.892 287.266L767.743 300.492L769.575 309.285L771.389 320.058L773.185 330.935L774.962 340.681L776.723 356.645L778.467 373.422L780.194 408.495L781.904 403.312L783.599 420.445L785.277 445.217L786.941 434.353L788.589 452.685L790.222 426.72L791.84 448.34L793.444 428.409L795.034 399.253L796.61 391.498L799.722 375.146L801.258 370.54L802.781 374.99L805.788 369.071L807.274 365.003L808.747 357.813L810.208 350.414L811.657 353.536L814.522 346.706L817.342 345.638L818.735 347.569L821.49 341.391L824.204 337.198L826.878 345.64L828.2 347.464L829.512 349.337L830.815 345.778L833.393 347.05L834.669 339.819L835.935 334.923L837.193 345.942L839.682 339.463L842.137 339.388L843.352 344.859L845.758 344.86L848.133 334.542L849.309 336.771L851.637 340.417L853.936 346.207L855.075 342.02L856.206 345.119L857.33 348.994L858.448 347.168L859.558 341.174L861.759 347.079L862.849 342.369L863.933 350.793L865.011 341.109L866.082 345.651L867.146 343.478L869.257 349.376L870.303 347.468L871.343 340.535L872.377 342.808L873.406 350.616L874.428 361.404L875.445 344.389L877.461 354.921L878.461 346.168L879.455 349.605L881.427 355.006L882.406 351.492L883.378 344.81L884.346 348.578L885.309 344.342L888.165 346.819L889.108 352.991L890.045 349.574L890.978 346.052L892.829 346.892L893.747 344.508L894.661 348.55L895.57 350.68L897.375 346.306L898.27 343.414L899.161 352.871L900.048 347.043L900.931 352.909L901.809 356.574L902.683 351.801L905.279 357.718L906.137 364.276L906.99 350.164L907.839 352.657L909.526 343.382L910.363 347.028L911.197 353.332L912.026 349.119L912.852 341.565L913.674 352.763L914.493 354.76L916.119 356.701L916.926 361.2L917.73 358.625L918.53 362.491L919.327 364.565L920.12 355.289L920.91 361.331L922.479 366.3L923.259 375.935L924.035 371.951L925.577 369.479L927.107 371.113L928.623 374.791L929.376 368.845L930.127 362.844"/>
			<path fill="none" stroke="#FF0037" stroke-width="1.5" stroke-linejoin="bevel" d="M-59.6629 183.341L65.4229 187.127L138.593 191.582L190.509 191.779L230.777 194.291L263.679 195.099L291.497 194.69L315.594 194.366L336.85 195.159L355.863 195.433L373.063 195.302L388.765 195.929L403.209 196.465L416.583 194.571L429.033 193.306L440.68 195.247L451.62 195.28L461.935 195.606L471.692 196.081L480.949 196.483L489.753 197.474L498.148 197.543L506.17 197.697L513.851 197.765L521.217 197.767L528.295 198.894L535.106 197.988L541.669 198.005L548.001 198.95L554.119 199.732L560.036 200.789L565.766 201.453L571.319 200.456L576.706 199.421L581.937 198.949L587.021 200.271L591.966 201.995L596.778 202.545L601.466 201.248L606.034 202.004L610.491 200.868L614.839 199.346L619.086 199.535L623.234 200.041L627.29 201.909L631.256 199.835L635.137 199.117L638.936 200.607L642.657 200.705L646.303 202.717L649.877 203.464L653.381 201.332L656.818 200.026L660.192 198.333L663.503 196.522L666.754 196.232L669.949 195.346L673.087 196.314L676.172 196.883L679.205 194.9L682.188 192.786L685.122 189.358L688.01 188.339L690.852 186.758L693.65 182.143L696.405 182.519L699.118 182.891L701.792 182.381L704.426 176.043L707.023 174.848L709.583 170.214L712.107 167.095L714.596 160.994L717.051 157.079L719.474 161.915L721.864 154.302L724.223 145.252L726.551 141.031L728.85 132.725L731.12 124.406L733.362 111.653L735.576 108.906L737.764 103.68L739.925 100.282L742.061 99.4259L744.171 104.422L746.258 113.522L748.32 126.165L750.359 136.94L752.375 142.614L754.37 149.624L756.342 162.678L758.293 166.535L760.223 167.553L762.132 180.425L764.022 186.305L765.892 192.429L767.743 197.656L769.575 202.745L771.389 207.851L774.962 213.397L776.723 221.204L778.467 227.674L781.904 229.762L783.599 237.003L785.277 244.349L788.589 247.641L790.222 253.859L791.84 247.062L793.444 252.449L795.034 258.644L796.61 255.956L798.173 263.035L801.258 264.527L802.781 269.855L804.291 277.837L807.274 278.321L808.747 280.083L811.657 284.483L813.095 289.275L814.522 293.1L817.342 297.464L818.735 299.066L820.118 302.243L821.49 299.803L822.852 304.337L824.204 314.624L825.546 312.365L826.878 310.744L829.512 314.922L832.109 316.351L834.669 325.101L835.935 321.236L837.193 325.004L839.682 327.671L840.914 334.946L843.352 333.955L845.758 335.11L846.95 339.26L848.133 342.733L849.309 344.539L851.637 342.771L853.936 345.309L855.075 349.111L857.33 352.28L859.558 351.221L861.759 363.159L862.849 361.101L863.933 356.667L865.011 359.639L866.082 363.046L868.205 361.742L870.303 364.075L871.343 369.871L872.377 371.843L873.406 373.975L874.428 375.945L875.445 372.958L876.456 376.909L878.461 375.104L879.455 377.896L880.444 381.532L882.406 385.546L883.378 380.974L885.309 385.508L887.218 387.502L889.108 386.413L890.045 396.103L892.829 397.696L893.747 400.392L894.661 402.614L895.57 400.288L896.475 402.486L897.375 398.356L898.27 403.548L900.048 410.46L900.931 407.899L902.683 415.384L904.418 409.644L906.137 417.46L906.99 421.055L908.684 415.893L909.526 419.873L911.197 423.146L912.026 429.213L912.852 432.668L913.674 428.368L914.493 430.913L915.307 426.868L916.119 433.323L917.73 435.986L920.12 432.988L920.91 438.958L922.479 441.531L924.035 444.848L924.808 446.888L925.577 444.819L927.107 446.645L927.866 443.633L928.623 448.191L929.376 452.564L930.127 452.934"/>
		</g>
		<text transform="translate(497.4 8)" font-size="13" font-family="Microsoft YaHei, 微软雅黑" x="-90.546143, -87.416748, -83.570068, -76.898682, -69.522705, -61.511963, -51.869873, -40.406006, -34.388428, -31.259033, -27.412354, -20.506104, -14.488525, -4.8464355, 2.7770996, 12.831787, 19.223877, 22.353271, 26.199951, 36.768799, 43.675049, 50.581299, 58.033447, 67.675537, 75.299072, 82.922607, " y="13.755371, ">
				, Len=∞s, Fs=0Hz, NFFT=713
		</text>
		<rect fill="none" stroke="black" stroke-width="1" stroke-miterlimit="10" stroke-opacity="0.73725492" x="65.422852" y="39.736572" width="863.95361" height="412.948"/>
		<rect fill="white" fill-opacity="0.39215687" x="621.63574" y="54.736572" width="292.74072" height="44.31543"/>
		<clipPath id="cl_20">
			<rect x="621.63574" y="54.736572" width="292.74072" height="44.31543"/>
		</clipPath>
		<g clip-path="url(#cl_20)">
			<text transform="translate(666.636 59.7366)" font-size="13" font-family="Microsoft YaHei, 微软雅黑" x="0, 4.3417969, 8.6835938, 16.637207, 24.901855, 30.919434, 34.378906, 39.222168, 42.681641, 50.946289, 58.957031, 62.803711, 70.649414, 77.834961, 88.099121, 93.92627, 101.37842, 109.00195, 114.62598, 120.25, 129.89209, 137.8457, 146.11035, 152.12793, 155.5874, 160.43066, 163.89014, 172.15479, 180.16553, 184.01221, 191.85791, 199.04346, 209.30762, 215.13477, 222.58691, 230.21045, 234.05713, 238.39893, " y="13.755371, ">
					[]Position Yaw_T7--&gt;Position Yaw_T7 ()
			</text>
			<path fill="none" stroke="#2CA02C" stroke-width="1.5" stroke-miterlimit="10" d="M626.636 68.3154L656.636 68.3154"/>
			<text transform="translate(666.636 76.8943)" font-size="13" font-family="Microsoft YaHei, 微软雅黑" x="0, 4.3417969, 8.6835938, 16.637207, 24.901855, 30.919434, 34.378906, 39.222168, 42.681641, 50.946289, 58.957031, 62.803711, 70.649414, 77.834961, 88.099121, 93.92627, 101.37842, 109.00195, 114.62598, 120.25, 129.89209, 139.79443, 143.25391, 149.27148, 157.57422, 164.72168, 170.73926, 175.58252, 178.71191, 186.55762, 193.74316, 204.00732, 209.83447, 217.28662, 224.91016, 228.75684, 233.09863, " y="13.755371, ">
					[]Position Yaw_T7--&gt;DispEst.Yaw_T7 ()
			</text>
			<path fill="none" stroke="#FF0037" stroke-width="1.5" stroke-miterlimit="10" d="M626.636 85.4731L656.636 85.4731"/>
		</g>
	</g>
</svg>
