<?xml version="1.0" encoding="utf-8" ?>
<svg xmlns="http://www.w3.org/2000/svg" xmlns:xlink="http://www.w3.org/1999/xlink" width="945" height="503">
	<rect fill="white" width="945" height="503"/>
	<clipPath id="cl_c">
		<rect width="945" height="503"/>
	</clipPath>
	<g clip-path="url(#cl_c)">
		<path fill="none" stroke="#00008B" stroke-width="1" stroke-miterlimit="10" stroke-opacity="0.078431375" d="M65.4229 39.7366L65.4229 452.685M211.685 39.7366L211.685 452.685M297.243 39.7366L297.243 452.685M357.947 39.7366L357.947 452.685M405.033 39.7366L405.033 452.685M443.505 39.7366L443.505 452.685M476.032 39.7366L476.032 452.685M504.209 39.7366L504.209 452.685M529.062 39.7366L529.062 452.685M551.295 39.7366L551.295 452.685M697.557 39.7366L697.557 452.685M783.114 39.7366L783.114 452.685M843.819 39.7366L843.819 452.685M890.905 39.7366L890.905 452.685M929.376 39.7366L929.376 452.685"/>
		<path fill="none" stroke="#D9D9D9" stroke-width="1" stroke-miterlimit="10" d="M65.4229 448.685L65.4229 452.685M211.685 448.685L211.685 452.685M297.243 448.685L297.243 452.685M357.947 448.685L357.947 452.685M405.033 448.685L405.033 452.685M443.505 448.685L443.505 452.685M476.032 448.685L476.032 452.685M504.209 448.685L504.209 452.685M529.062 448.685L529.062 452.685M551.295 448.685L551.295 452.685M697.557 448.685L697.557 452.685M783.114 448.685L783.114 452.685M843.819 448.685L843.819 452.685M890.905 448.685L890.905 452.685M929.376 448.685L929.376 452.685"/>
		<path fill="none" stroke="#00008B" stroke-width="1" stroke-miterlimit="10" stroke-opacity="0.078431375" d="M65.4229 422.127L929.376 422.127M65.4229 397.178L929.376 397.178M65.4229 379.477L929.376 379.477M65.4229 365.746L929.376 365.746M65.4229 354.528L929.376 354.528M65.4229 345.043L929.376 345.043M65.4229 336.827L929.376 336.827M65.4229 329.579L929.376 329.579M65.4229 323.097L929.376 323.097M65.4229 280.447L929.376 280.447M65.4229 255.498L929.376 255.498M65.4229 237.797L929.376 237.797M65.4229 224.066L929.376 224.066M65.4229 212.848L929.376 212.848M65.4229 203.363L929.376 203.363M65.4229 195.147L929.376 195.147M65.4229 187.899L929.376 187.899M65.4229 181.417L929.376 181.417M65.4229 138.767L929.376 138.767M65.4229 113.818L929.376 113.818M65.4229 96.1167L929.376 96.1167M65.4229 82.3865L929.376 82.3865M65.4229 71.1681L929.376 71.1681M65.4229 61.6831L929.376 61.6831M65.4229 53.4668L929.376 53.4668M65.4229 46.2195L929.376 46.2195M65.4229 39.7366L929.376 39.7366"/>
		<path fill="none" stroke="#D9D9D9" stroke-width="1" stroke-miterlimit="10" d="M69.4229 422.127L65.4229 422.127M69.4229 397.178L65.4229 397.178M69.4229 379.477L65.4229 379.477M69.4229 365.746L65.4229 365.746M69.4229 354.528L65.4229 354.528M69.4229 345.043L65.4229 345.043M69.4229 336.827L65.4229 336.827M69.4229 329.579L65.4229 329.579M69.4229 323.097L65.4229 323.097M69.4229 280.447L65.4229 280.447M69.4229 255.498L65.4229 255.498M69.4229 237.797L65.4229 237.797M69.4229 224.066L65.4229 224.066M69.4229 212.848L65.4229 212.848M69.4229 203.363L65.4229 203.363M69.4229 195.147L65.4229 195.147M69.4229 187.899L65.4229 187.899M69.4229 181.417L65.4229 181.417M69.4229 138.767L65.4229 138.767M69.4229 113.818L65.4229 113.818M69.4229 96.1167L65.4229 96.1167M69.4229 82.3865L65.4229 82.3865M69.4229 71.1681L65.4229 71.1681M69.4229 61.6831L65.4229 61.6831M69.4229 53.4668L65.4229 53.4668M69.4229 46.2195L65.4229 46.2195M69.4229 39.7366L65.4229 39.7366"/>
		<text transform="translate(65.4229 456.685)" font-size="13" font-family="Microsoft YaHei, 微软雅黑" x="-3.8117676, " y="13.755371, ">
				1
		</text>
		<text transform="translate(551.295 456.685)" font-size="13" font-family="Microsoft YaHei, 微软雅黑" x="-7.6235352, 0, " y="13.755371, ">
				10
		</text>
		<path fill="none" stroke="#00008B" stroke-width="1" stroke-miterlimit="10" stroke-opacity="0.11764706" d="M65.4229 39.7366L65.4229 452.685M551.295 39.7366L551.295 452.685"/>
		<path fill="none" stroke="#D9D9D9" stroke-width="1" stroke-miterlimit="10" d="M65.4229 445.685L65.4229 452.685M551.295 445.685L551.295 452.685"/>
		<text transform="translate(497.4 491)" font-size="13" font-family="Microsoft YaHei, 微软雅黑" x="-59.233154, -52.326904, -47.363037, -39.987061, -31.671631, -23.660889, -16.284912, -8.2741699, -1.755127, 5.1257324, 9.4675293, 19.522217, 25.914307, 30.256104, 34.102783, 38.44458, 48.499268, 54.891357, " y="-3.4023438, ">
				Frequency(Hz) (Hz)
		</text>
		<text transform="translate(61.4229 323.097)" font-size="13" font-family="Microsoft YaHei, 微软雅黑" x="-28.24707, -20.623535, -13.247559, -7.6235352, " y="5.1765137, ">
				1e-1
		</text>
		<text transform="translate(61.4229 181.417)" font-size="13" font-family="Microsoft YaHei, 微软雅黑" x="-32.265137, -24.641602, -17.265625, -7.6235352, " y="5.1765137, ">
				1e+0
		</text>
		<text transform="translate(61.4229 39.7366)" font-size="13" font-family="Microsoft YaHei, 微软雅黑" x="-32.265137, -24.641602, -17.265625, -7.6235352, " y="5.1765137, ">
				1e+1
		</text>
		<path fill="none" stroke="#00008B" stroke-width="1" stroke-miterlimit="10" stroke-opacity="0.11764706" d="M65.4229 323.097L929.376 323.097M65.4229 181.417L929.376 181.417M65.4229 39.7366L929.376 39.7366"/>
		<path fill="none" stroke="#D9D9D9" stroke-width="1" stroke-miterlimit="10" d="M72.4229 323.097L65.4229 323.097M72.4229 181.417L65.4229 181.417M72.4229 39.7366L65.4229 39.7366"/>
		<text transform="matrix(0 -1 1 0 12 246.211)" font-size="13" font-family="Microsoft YaHei, 微软雅黑" x="-20.426758, -10.759277, -3.5737305, -0.11425781, 7.8964844, 11.743164, 16.084961, " y="13.755371, ">
				Gain ()
		</text>
		<clipPath id="cl_d">
			<rect x="65.422852" y="39.736572" width="863.95361" height="412.948"/>
		</clipPath>
		<g clip-path="url(#cl_d)">
			<path fill="none" stroke="#2CA02C" stroke-width="1.5" stroke-linejoin="bevel" d="M4.71864 181.159L65.4229 181.988L112.509 183.029L150.981 182.324L183.508 182.852L211.685 183.134L236.538 182.821L258.771 182.145L278.882 183.569L297.243 184.947L314.133 185.158L329.77 186.391L344.328 186.208L357.947 187.292L370.739 188.218L382.8 188.577L394.209 188.349L405.033 188.193L415.328 190.434L425.144 190.645L434.524 191.353L443.505 191.71L452.119 193.503L460.395 194.668L468.358 193.245L476.032 197.383L483.437 196.816L490.59 195.617L497.509 195.572L504.209 198.522L510.702 198.938L517.001 199.129L523.118 200.17L529.062 201.433L534.844 201.741L540.471 201.903L545.952 203.025L551.295 204.071L556.505 205.507L561.59 203.194L566.555 203.86L571.406 206.012L576.148 209.178L580.786 207.106L585.324 208.528L589.767 209.835L594.118 210.987L598.381 209.141L602.559 208.691L606.657 209.043L610.676 210.419L614.62 210.311L618.492 209.779L622.294 210.05L626.029 211.08L629.699 209.966L633.306 211.046L636.852 211.119L640.34 210.002L643.771 210.604L647.148 211.548L650.471 213.255L653.742 207.693L656.964 204.749L660.137 205.138L663.263 203.261L666.344 202.229L669.38 204.516L672.373 204.393L675.324 201.405L678.235 196.416L681.106 195.036L683.938 193.35L686.733 190.57L689.492 187.696L692.214 181.764L694.902 174.079L697.557 169.644L700.178 165.586L702.767 158.097L705.325 153.707L707.852 148.909L710.349 152.048L712.817 159.251L715.257 169.324L717.668 183.377L720.053 193.276L722.41 205.217L724.742 220.553L727.048 235.402L729.329 243.453L731.586 252.115L733.819 265.279L736.029 276.435L738.215 287.266L740.38 300.492L742.522 309.285L744.643 320.058L746.742 330.935L748.821 340.681L750.88 356.645L752.919 373.422L754.938 408.495L756.938 403.312L758.919 420.445L760.882 445.217L762.827 434.353L764.754 452.685L766.664 426.72L768.556 448.34L770.432 428.409L772.291 399.253L774.134 391.498L777.772 375.146L779.568 370.54L781.349 374.99L783.114 376.243L784.866 369.071L786.602 365.003L788.325 357.813L790.034 350.414L791.728 353.536L795.078 346.706L798.375 345.638L800.004 347.569L803.226 341.391L806.399 337.198L809.525 345.64L811.071 347.464L812.606 349.337L814.129 345.778L817.144 347.05L818.635 339.819L820.116 334.923L821.586 345.942L824.497 339.463L827.368 339.388L828.789 344.859L831.602 344.86L834.379 334.542L835.754 336.771L838.476 340.417L839.825 341.982L841.164 346.207L842.496 342.02L843.819 345.119L845.133 348.994L846.44 347.168L847.739 341.174L850.312 347.079L851.587 342.369L852.854 350.793L854.114 341.109L855.366 345.651L856.611 343.478L859.079 349.376L860.302 347.468L861.519 340.535L862.728 342.808L863.93 350.616L865.126 361.404L866.315 344.389L868.672 354.921L869.841 346.168L871.004 349.605L873.31 355.006L874.454 351.492L875.591 344.81L876.723 348.578L877.848 344.342L880.081 344.539L881.189 346.819L882.291 352.991L883.387 349.574L884.477 346.052L886.642 346.892L887.715 344.508L888.784 348.55L889.847 350.68L891.957 346.306L893.004 343.414L894.046 352.871L895.083 347.043L896.115 352.909L897.142 356.574L898.164 351.801L900.193 350.842L901.2 357.718L902.202 364.276L903.2 350.164L904.193 352.657L906.165 343.382L907.144 347.028L908.119 353.332L909.089 349.119L910.055 341.565L911.016 352.763L911.973 354.76L913.874 356.701L914.818 361.2L915.758 358.625L916.694 362.491L917.625 364.565L918.553 355.289L919.476 361.331L921.311 366.3L922.223 375.935L923.13 371.951L924.934 369.479L926.722 371.113L928.495 374.791L929.376 368.845L930.254 362.844"/>
			<path fill="none" stroke="#FF0037" stroke-width="1.5" stroke-linejoin="bevel" d="M4.71864 191.582L65.4229 191.779L112.509 194.291L150.981 195.099L183.508 194.69L211.685 194.366L236.538 195.159L258.771 195.433L278.882 195.302L297.243 195.929L314.133 196.465L329.77 194.571L344.328 193.306L357.947 195.247L370.739 195.28L382.8 195.606L394.209 196.081L405.033 196.483L415.328 197.474L425.144 197.543L434.524 197.697L443.505 197.765L452.119 197.767L460.395 198.894L468.358 197.988L476.032 198.005L483.437 198.95L490.59 199.732L497.509 200.789L504.209 201.453L510.702 200.456L517.001 199.421L523.118 198.949L529.062 200.271L534.844 201.995L540.471 202.545L545.952 201.248L551.295 202.004L556.505 200.868L561.59 199.346L566.555 199.535L571.406 200.041L576.148 201.909L580.786 199.835L585.324 199.117L589.767 200.607L594.118 200.705L598.381 202.717L602.559 203.464L606.657 201.332L610.676 200.026L614.62 198.333L618.492 196.522L622.294 196.232L626.029 195.346L629.699 196.314L633.306 196.883L636.852 194.9L640.34 192.786L643.771 189.358L647.148 188.339L650.471 186.758L653.742 182.143L656.964 182.519L660.137 182.891L663.263 182.381L666.344 176.043L669.38 174.848L672.373 170.214L675.324 167.095L678.235 160.994L681.106 157.079L683.938 161.915L686.733 154.302L689.492 145.252L692.214 141.031L694.902 132.725L697.557 124.406L700.178 111.653L702.767 108.906L705.325 103.68L707.852 100.282L710.349 99.4259L712.817 104.422L715.257 113.522L717.668 126.165L720.053 136.94L722.41 142.614L724.742 149.624L727.048 162.678L729.329 166.535L731.586 167.553L733.819 180.425L736.029 186.305L738.215 192.429L740.38 197.656L742.522 202.745L744.643 207.851L746.742 208.544L748.821 213.397L750.88 221.204L752.919 227.674L754.938 227.653L756.938 229.762L758.919 237.003L760.882 244.349L764.754 247.641L766.664 253.859L768.556 247.062L770.432 252.449L772.291 258.644L774.134 255.956L775.961 263.035L777.772 261.814L779.568 264.527L781.349 269.855L783.114 277.837L786.602 278.321L788.325 280.083L791.728 284.483L793.41 289.275L795.078 293.1L796.733 294.426L798.375 297.464L800.004 299.066L801.621 302.243L803.226 299.803L804.819 304.337L806.399 314.624L807.968 312.365L809.525 310.744L812.606 314.922L815.642 316.351L817.144 317.782L818.635 325.101L820.116 321.236L821.586 325.004L824.497 327.671L825.937 334.946L828.789 333.955L830.2 335.412L832.995 339.26L834.379 342.733L835.754 344.539L838.476 342.771L841.164 345.309L842.496 349.111L845.133 352.28L847.739 351.221L850.312 363.159L851.587 361.101L852.854 356.667L854.114 359.639L855.366 363.046L857.849 361.742L860.302 364.075L861.519 369.871L862.728 371.843L863.93 373.975L865.126 375.945L866.315 372.958L867.497 376.909L869.841 375.104L871.004 377.896L872.16 381.532L874.454 385.546L875.591 380.974L877.848 385.508L880.081 387.502L882.291 386.413L883.387 396.103L885.562 395.8L886.642 397.696L887.715 400.392L888.784 402.614L889.847 400.288L890.905 402.486L891.957 398.356L893.004 403.548L895.083 410.46L896.115 407.899L898.164 415.384L900.193 409.644L902.202 417.46L903.2 421.055L905.181 415.893L906.165 419.873L908.119 423.146L909.089 429.213L910.055 432.668L911.016 428.368L911.973 430.913L912.926 426.868L913.874 433.323L915.758 435.986L918.553 432.988L919.476 438.958L921.311 441.531L923.13 444.848L924.034 446.888L924.934 444.819L926.722 446.645L927.611 443.633L928.495 448.191L929.376 452.564L930.254 452.934"/>
		</g>
		<text transform="translate(497.4 8)" font-size="13" font-family="Microsoft YaHei, 微软雅黑" x="-90.546143, -87.416748, -83.570068, -76.898682, -69.522705, -61.511963, -51.869873, -40.406006, -34.388428, -31.259033, -27.412354, -20.506104, -14.488525, -4.8464355, 2.7770996, 12.831787, 19.223877, 22.353271, 26.199951, 36.768799, 43.675049, 50.581299, 58.033447, 67.675537, 75.299072, 82.922607, " y="13.755371, ">
				, Len=∞s, Fs=0Hz, NFFT=713
		</text>
		<rect fill="none" stroke="black" stroke-width="1" stroke-miterlimit="10" stroke-opacity="0.73725492" x="65.422852" y="39.736572" width="863.95361" height="412.948"/>
		<rect fill="white" fill-opacity="0.39215687" x="621.63574" y="54.736572" width="292.74072" height="44.31543"/>
		<clipPath id="cl_e">
			<rect x="621.63574" y="54.736572" width="292.74072" height="44.31543"/>
		</clipPath>
		<g clip-path="url(#cl_e)">
			<text transform="translate(666.636 59.7366)" font-size="13" font-family="Microsoft YaHei, 微软雅黑" x="0, 4.3417969, 8.6835938, 16.637207, 24.901855, 30.919434, 34.378906, 39.222168, 42.681641, 50.946289, 58.957031, 62.803711, 70.649414, 77.834961, 88.099121, 93.92627, 101.37842, 109.00195, 114.62598, 120.25, 129.89209, 137.8457, 146.11035, 152.12793, 155.5874, 160.43066, 163.89014, 172.15479, 180.16553, 184.01221, 191.85791, 199.04346, 209.30762, 215.13477, 222.58691, 230.21045, 234.05713, 238.39893, " y="13.755371, ">
					[]Position Yaw_T7--&gt;Position Yaw_T7 ()
			</text>
			<path fill="none" stroke="#2CA02C" stroke-width="1.5" stroke-miterlimit="10" d="M626.636 68.3154L656.636 68.3154"/>
			<text transform="translate(666.636 76.8943)" font-size="13" font-family="Microsoft YaHei, 微软雅黑" x="0, 4.3417969, 8.6835938, 16.637207, 24.901855, 30.919434, 34.378906, 39.222168, 42.681641, 50.946289, 58.957031, 62.803711, 70.649414, 77.834961, 88.099121, 93.92627, 101.37842, 109.00195, 114.62598, 120.25, 129.89209, 139.79443, 143.25391, 149.27148, 157.57422, 164.72168, 170.73926, 175.58252, 178.71191, 186.55762, 193.74316, 204.00732, 209.83447, 217.28662, 224.91016, 228.75684, 233.09863, " y="13.755371, ">
					[]Position Yaw_T7--&gt;DispEst.Yaw_T7 ()
			</text>
			<path fill="none" stroke="#FF0037" stroke-width="1.5" stroke-miterlimit="10" d="M626.636 85.4731L656.636 85.4731"/>
		</g>
	</g>
</svg>
