<?xml version="1.0" encoding="utf-8" ?>
<svg xmlns="http://www.w3.org/2000/svg" xmlns:xlink="http://www.w3.org/1999/xlink" width="945" height="503">
	<rect fill="white" width="945" height="503"/>
	<clipPath id="cl_24">
		<rect width="945" height="503"/>
	</clipPath>
	<g clip-path="url(#cl_24)">
		<path fill="none" stroke="#00008B" stroke-width="1" stroke-miterlimit="10" stroke-opacity="0.078431375" d="M61.4048 39.7366L61.4048 452.685M94.4597 39.7366L94.4597 452.685M122.407 39.7366L122.407 452.685M146.616 39.7366L146.616 452.685M167.97 39.7366L167.97 452.685M187.072 39.7366L187.072 452.685M312.74 39.7366L312.74 452.685M386.251 39.7366L386.251 452.685M438.407 39.7366L438.407 452.685M478.863 39.7366L478.863 452.685M511.918 39.7366L511.918 452.685M539.866 39.7366L539.866 452.685M564.075 39.7366L564.075 452.685M585.429 39.7366L585.429 452.685M604.531 39.7366L604.531 452.685M730.198 39.7366L730.198 452.685M803.709 39.7366L803.709 452.685M855.866 39.7366L855.866 452.685M896.322 39.7366L896.322 452.685M929.376 39.7366L929.376 452.685"/>
		<path fill="none" stroke="#D9D9D9" stroke-width="1" stroke-miterlimit="10" d="M61.4048 448.685L61.4048 452.685M94.4597 448.685L94.4597 452.685M122.407 448.685L122.407 452.685M146.616 448.685L146.616 452.685M167.97 448.685L167.97 452.685M187.072 448.685L187.072 452.685M312.74 448.685L312.74 452.685M386.251 448.685L386.251 452.685M438.407 448.685L438.407 452.685M478.863 448.685L478.863 452.685M511.918 448.685L511.918 452.685M539.866 448.685L539.866 452.685M564.075 448.685L564.075 452.685M585.429 448.685L585.429 452.685M604.531 448.685L604.531 452.685M730.198 448.685L730.198 452.685M803.709 448.685L803.709 452.685M855.866 448.685L855.866 452.685M896.322 448.685L896.322 452.685M929.376 448.685L929.376 452.685"/>
		<path fill="none" stroke="#00008B" stroke-width="1" stroke-miterlimit="10" stroke-opacity="0.078431375" d="M61.4048 401.75L929.376 401.75M61.4048 357.339L929.376 357.339M61.4048 322.891L929.376 322.891M61.4048 294.745L929.376 294.745M61.4048 270.948L929.376 270.948M61.4048 250.334L929.376 250.334M61.4048 232.151L929.376 232.151M61.4048 215.886L929.376 215.886M61.4048 108.881L929.376 108.881M61.4048 46.2871L929.376 46.2871"/>
		<path fill="none" stroke="#D9D9D9" stroke-width="1" stroke-miterlimit="10" d="M65.4048 401.75L61.4048 401.75M65.4048 357.339L61.4048 357.339M65.4048 322.891L61.4048 322.891M65.4048 294.745L61.4048 294.745M65.4048 270.948L61.4048 270.948M65.4048 250.334L61.4048 250.334M65.4048 232.151L61.4048 232.151M65.4048 215.886L61.4048 215.886M65.4048 108.881L61.4048 108.881M65.4048 46.2871L61.4048 46.2871"/>
		<text transform="translate(187.072 456.685)" font-size="13" font-family="Microsoft YaHei, 微软雅黑" x="-3.8117676, " y="13.755371, ">
				1
		</text>
		<text transform="translate(604.531 456.685)" font-size="13" font-family="Microsoft YaHei, 微软雅黑" x="-7.6235352, 0, " y="13.755371, ">
				10
		</text>
		<path fill="none" stroke="#00008B" stroke-width="1" stroke-miterlimit="10" stroke-opacity="0.11764706" d="M187.072 39.7366L187.072 452.685M604.531 39.7366L604.531 452.685"/>
		<path fill="none" stroke="#D9D9D9" stroke-width="1" stroke-miterlimit="10" d="M187.072 445.685L187.072 452.685M604.531 445.685L604.531 452.685"/>
		<text transform="translate(495.391 491)" font-size="13" font-family="Microsoft YaHei, 微软雅黑" x="-46.667969, -39.761719, -34.797852, -27.421875, -19.106445, -11.095703, -3.7197266, 4.2910156, 10.810059, 17.690918, 21.537598, 25.879395, 35.934082, 42.326172, " y="-3.4023438, ">
				Frequency (Hz)
		</text>
		<text transform="translate(57.4048 401.75)" font-size="13" font-family="Microsoft YaHei, 微软雅黑" x="-28.24707, -20.623535, -13.247559, -7.6235352, " y="5.1765137, ">
				3e-3
		</text>
		<text transform="translate(57.4048 357.339)" font-size="13" font-family="Microsoft YaHei, 微软雅黑" x="-28.24707, -20.623535, -13.247559, -7.6235352, " y="5.1765137, ">
				4e-3
		</text>
		<text transform="translate(57.4048 322.891)" font-size="13" font-family="Microsoft YaHei, 微软雅黑" x="-28.24707, -20.623535, -13.247559, -7.6235352, " y="5.1765137, ">
				5e-3
		</text>
		<text transform="translate(57.4048 294.745)" font-size="13" font-family="Microsoft YaHei, 微软雅黑" x="-28.24707, -20.623535, -13.247559, -7.6235352, " y="5.1765137, ">
				6e-3
		</text>
		<text transform="translate(57.4048 270.948)" font-size="13" font-family="Microsoft YaHei, 微软雅黑" x="-28.24707, -20.623535, -13.247559, -7.6235352, " y="5.1765137, ">
				7e-3
		</text>
		<text transform="translate(57.4048 250.334)" font-size="13" font-family="Microsoft YaHei, 微软雅黑" x="-28.24707, -20.623535, -13.247559, -7.6235352, " y="5.1765137, ">
				8e-3
		</text>
		<text transform="translate(57.4048 232.151)" font-size="13" font-family="Microsoft YaHei, 微软雅黑" x="-28.24707, -20.623535, -13.247559, -7.6235352, " y="5.1765137, ">
				9e-3
		</text>
		<text transform="translate(57.4048 215.886)" font-size="13" font-family="Microsoft YaHei, 微软雅黑" x="-28.24707, -20.623535, -13.247559, -7.6235352, " y="5.1765137, ">
				1e-2
		</text>
		<text transform="translate(57.4048 108.881)" font-size="13" font-family="Microsoft YaHei, 微软雅黑" x="-28.24707, -20.623535, -13.247559, -7.6235352, " y="5.1765137, ">
				2e-2
		</text>
		<text transform="translate(57.4048 46.2871)" font-size="13" font-family="Microsoft YaHei, 微软雅黑" x="-28.24707, -20.623535, -13.247559, -7.6235352, " y="5.1765137, ">
				3e-2
		</text>
		<path fill="none" stroke="#00008B" stroke-width="1" stroke-miterlimit="10" stroke-opacity="0.11764706" d="M61.4048 215.886L929.376 215.886"/>
		<path fill="none" stroke="#D9D9D9" stroke-width="1" stroke-miterlimit="10" d="M68.4048 215.886L61.4048 215.886"/>
		<text transform="matrix(0 -1 1 0 12 246.211)" font-size="13" font-family="Microsoft YaHei, 微软雅黑" x="-67.485107, -60.032959, -53.126709, -49.280029, -39.612549, -32.427002, -28.967529, -20.956787, -13.263428, -8.9216309, -0.91088867, 7.0998535, 10.559326, 15.402588, 21.420166, 26.974365, 39.155518, 47.642334, 54.827881, 63.143311, " y="13.755371, ">
				TF Gain (units/mRad)
		</text>
		<clipPath id="cl_25">
			<rect x="61.404785" y="39.736572" width="867.97168" height="412.948"/>
		</clipPath>
		<g clip-path="url(#cl_25)">
			<path fill="none" stroke="#2CA02C" stroke-width="1.5" stroke-linejoin="bevel" d="M-44 110L82 111L155 113L207 117L248 122L281 127L309 133L333 139L354 145L374 151L391 160L407 164L421 173L435 177L447 187L459 190L470 199L480 204L490 209L499 217L508 221L517 226L525 234L532 239L540 242L547 248L554 254L560 258L567 262L573 267L579 272L584 277L590 280L595 284L601 288L606 293L611 297L616 300L620 303L625 306L629 310L634 315L638 318L642 321L646 324L650 327L654 330L658 333L662 337L665 340L669 343L672 346L676 348L679 350L683 353L686 356L689 359L692 362L695 365L698 367L701 369L704 371L707 373L710 375L713 378L716 381L718 384L721 386L724 388L726 390L729 392L731 393L734 395L736 397L739 400L741 402L744 404L746 406L748 408L751 410L753 412L755 414L757 415L759 417L762 418L764 420L766 422L768 424L770 426L772 428L774 430L776 431L778 433L780 434L782 436L784 437L785 439L787 440L789 441L791 442L793 443L795 444L798 446L800 447L802 448L805 451L807 450L808 424L810 355L812 292L813 269L815 265L816 252L818 265L819 195L821 279L823 269L824 215L826 279L827 214L829 229L830 273L831 256L833 226L834 250L836 265L839 269L840 211L841 280L843 262L844 225L845 313L847 212L848 228L849 324L851 268L852 238L853 260L855 283L856 270L857 284L858 248L860 267L862 255L863 341L865 218L866 235L867 405L868 258L869 253L870 295L872 264L873 280L874 305L875 281L876 260L877 277L878 290L880 365L881 233L882 252L883 432L884 239L885 280L886 327L887 241L888 302L889 337L890 301L891 268L892 286L894 322L895 373L896 263L897 278L898 381L899 243L900 306L901 351L902 226L903 332L904 376L905 315L905 291L906 304L907 340L908 370L909 301L910 299L911 344L912 266L913 343L914 386L915 227L916 360L917 400L918 328L918 323L919 319L920 342L921 378L922 335L923 324L924 349L925 271L926 391L926 402L927 241L928 401L929 374L930 343"/>
			<path fill="none" stroke="#FF0037" stroke-width="1.5" stroke-linejoin="bevel" d="M-44 547L82 481L155 363L207 302L248 264L281 237L309 217L333 201L354 189L374 178L391 170L407 162L421 157L435 151L447 148L459 143L470 141L480 138L490 134L499 134L508 131L517 129L525 129L532 127L540 125L547 124L554 125L560 123L567 121L573 121L579 121L584 121L590 120L595 118L601 118L606 119L611 119L616 118L620 117L625 116L629 116L634 117L638 117L642 116L646 116L650 115L654 114L658 115L662 115L665 115L669 115L672 115L676 114L679 113L683 113L686 114L689 114L692 114L695 114L698 114L701 113L704 113L707 112L710 112L713 113L716 113L721 113L724 113L729 113L731 112L734 112L739 112L741 113L744 113L748 113L751 113L755 112L759 112L762 111L766 112L770 112L774 112L778 112L782 112L785 112L787 111L791 111L793 110L796 110L798 109L802 109L805 109L807 110L808 120L810 140L812 154L813 197L815 192L816 214L818 223L819 164L821 220L824 194L826 230L827 164L829 195L830 223L831 213L833 196L836 202L837 216L839 219L840 168L841 208L843 204L844 185L845 235L847 161L848 179L849 226L851 204L852 195L853 192L855 187L856 202L857 213L858 176L860 189L862 184L863 238L865 157L866 170L867 233L868 172L869 197L870 201L872 158L873 190L874 210L875 186L876 175L878 186L880 231L881 158L882 169L883 223L884 146L885 203L887 138L888 186L889 207L890 191L891 172L892 164L894 186L895 217L896 166L897 177L898 197L899 141L900 207L901 197L902 129L903 192L904 198L905 184L905 176L906 171L907 173L908 196L909 183L910 175L912 145L913 210L914 199L915 125L916 193L917 185L918 172L918 188L919 172L920 156L921 192L922 190L923 179L924 171L925 139L926 209L926 193L927 132L928 201L929 166L930 167"/>
		</g>
		<text transform="translate(495.391 8)" font-size="13" font-family="Microsoft YaHei, 微软雅黑" x="-264.45923, -255.76294, -252.63354, -247.22534, -237.51978, -231.5022, -224.12622, -219.16235, -213.14478, -207.73657, -202.58862, -195.21265, -190.70581, -186.19897, -181.23511, -173.85913, -166.97827, -161.57007, -151.66772, -144.29175, -138.27417, -131.19653, -126.35327, -118.08862, -109.78589, -104.37769, -91.377686, -78.377686, -65.377686, -52.377686, -46.969482, -43.51001, -36.324463, -30.306885, -25.463623, -16.31665, -8.6931152, -5.5637207, 2.0598145, 9.6833496, 17.306885, 20.436279, 26.453857, 33.829834, 38.33667, 41.466064, 45.312744, 51.984131, 59.360107, 67.37085, 77.012939, 84.636475, 92.26001, 95.389404, 103.01294, 110.63647, 118.26001, 124.27759, 127.40698, 131.25366, 138.15991, 144.17749, 153.81958, 161.44312, 169.06665, 176.69019, 186.74487, 193.13696, 196.26636, 200.11304, 210.68188, 217.58813, 224.49438, 231.94653, 241.58862, 249.21216, 256.83569, " y="13.755371, ">
				C:\Users\Jeffrey\Desktop\论文计划\lastA4.022.sef, Len=60.005s, Fs=200Hz, NFFT=713
		</text>
		<rect fill="none" stroke="black" stroke-width="1" stroke-miterlimit="10" stroke-opacity="0.73725492" x="61.404785" y="39.736572" width="867.97168" height="412.948"/>
		<rect fill="white" fill-opacity="0.39215687" x="444.45996" y="54.736572" width="469.9165" height="44.31543"/>
		<clipPath id="cl_26">
			<rect x="444.45996" y="54.736572" width="469.9165" height="44.31543"/>
		</clipPath>
		<g clip-path="url(#cl_26)">
			<text transform="translate(489.46 59.7366)" font-size="13" font-family="Microsoft YaHei, 微软雅黑" x="0, 7.4521484, 14.358398, 18.205078, 27.872559, 35.058105, 38.517578, 46.52832, 49.657715, 53.504395, 57.846191, 61.305664, 68.491211, 74.508789, 84.150879, 87.280273, 94.903809, 102.52734, 110.15088, 114.49268, 118.83447, 127.98145, 135.60498, 143.55859, 146.68799, 154.53369, 161.71924, 171.9834, 177.81055, 185.76416, 188.89355, 195.56494, 203.51855, 206.64795, 214.1001, 221.72363, 227.27783, 235.23145, 243.49609, 249.51367, 252.97314, 257.81641, 261.27588, 269.54053, 277.55127, 281.39795, 289.24365, 296.4292, 306.69336, 312.52051, 319.97266, 327.59619, 331.93799, 335.78467, 340.12646, 348.13721, 356.14795, 359.60742, 364.45068, 370.46826, 376.02246, 388.20361, 396.69043, 403.87598, 412.19141, " y="13.755371, ">
					TF Gain: [las~.022](A2P.Yaw_P.LP.T7/Position Yaw_T7) (units/mRad)
			</text>
			<path fill="none" stroke="#2CA02C" stroke-width="1.5" stroke-miterlimit="10" d="M449.46 68.3154L479.46 68.3154"/>
			<text transform="translate(489.46 76.8943)" font-size="13" font-family="Microsoft YaHei, 微软雅黑" x="0, 7.4521484, 14.358398, 18.205078, 27.872559, 35.058105, 38.517578, 46.52832, 49.657715, 53.504395, 57.846191, 61.305664, 68.491211, 74.508789, 84.150879, 87.280273, 94.903809, 102.52734, 110.15088, 114.49268, 118.83447, 127.98145, 135.60498, 143.55859, 146.68799, 154.53369, 161.71924, 171.9834, 177.81055, 185.76416, 188.89355, 198.94824, 206.90186, 210.03125, 217.4834, 225.10693, 230.66113, 238.61475, 246.87939, 252.89697, 256.35645, 261.19971, 264.65918, 272.92383, 280.93457, 284.78125, 292.62695, 299.8125, 310.07666, 315.90381, 323.35596, 330.97949, 335.32129, 339.16797, 343.50977, 351.52051, 359.53125, 362.99072, 367.83398, 373.85156, 379.40576, 391.58691, 400.07373, 407.25928, 415.57471, " y="13.755371, ">
					TF Gain: [las~.022](A2P.Yaw_P.HP.T7/Position Yaw_T7) (units/mRad)
			</text>
			<path fill="none" stroke="#FF0037" stroke-width="1.5" stroke-miterlimit="10" d="M449.46 85.4731L479.46 85.4731"/>
		</g>
	</g>
</svg>
