<?xml version="1.0" encoding="utf-8" ?>
<svg xmlns="http://www.w3.org/2000/svg" xmlns:xlink="http://www.w3.org/1999/xlink" width="945" height="503">
	<rect fill="white" width="945" height="503"/>
	<clipPath id="cl_12">
		<rect width="945" height="503"/>
	</clipPath>
	<g clip-path="url(#cl_12)">
		<path fill="none" stroke="#00008B" stroke-width="1" stroke-miterlimit="10" stroke-opacity="0.078431375" d="M61.4048 39.7366L61.4048 452.685M208.347 39.7366L208.347 452.685M294.303 39.7366L294.303 452.685M355.289 39.7366L355.289 452.685M402.594 39.7366L402.594 452.685M441.245 39.7366L441.245 452.685M473.924 39.7366L473.924 452.685M502.231 39.7366L502.231 452.685M527.201 39.7366L527.201 452.685M549.536 39.7366L549.536 452.685M696.479 39.7366L696.479 452.685M782.434 39.7366L782.434 452.685M843.421 39.7366L843.421 452.685M890.726 39.7366L890.726 452.685M929.376 39.7366L929.376 452.685"/>
		<path fill="none" stroke="#D9D9D9" stroke-width="1" stroke-miterlimit="10" d="M61.4048 448.685L61.4048 452.685M208.347 448.685L208.347 452.685M294.303 448.685L294.303 452.685M355.289 448.685L355.289 452.685M402.594 448.685L402.594 452.685M441.245 448.685L441.245 452.685M473.924 448.685L473.924 452.685M502.231 448.685L502.231 452.685M527.201 448.685L527.201 452.685M549.536 448.685L549.536 452.685M696.479 448.685L696.479 452.685M782.434 448.685L782.434 452.685M843.421 448.685L843.421 452.685M890.726 448.685L890.726 452.685M929.376 448.685L929.376 452.685"/>
		<path fill="none" stroke="#00008B" stroke-width="1" stroke-miterlimit="10" stroke-opacity="0.078431375" d="M61.4048 401.75L929.376 401.75M61.4048 357.339L929.376 357.339M61.4048 322.891L929.376 322.891M61.4048 294.745L929.376 294.745M61.4048 270.948L929.376 270.948M61.4048 250.334L929.376 250.334M61.4048 232.151L929.376 232.151M61.4048 215.886L929.376 215.886M61.4048 108.881L929.376 108.881M61.4048 46.2871L929.376 46.2871"/>
		<path fill="none" stroke="#D9D9D9" stroke-width="1" stroke-miterlimit="10" d="M65.4048 401.75L61.4048 401.75M65.4048 357.339L61.4048 357.339M65.4048 322.891L61.4048 322.891M65.4048 294.745L61.4048 294.745M65.4048 270.948L61.4048 270.948M65.4048 250.334L61.4048 250.334M65.4048 232.151L61.4048 232.151M65.4048 215.886L61.4048 215.886M65.4048 108.881L61.4048 108.881M65.4048 46.2871L61.4048 46.2871"/>
		<text transform="translate(61.4048 456.685)" font-size="13" font-family="Microsoft YaHei, 微软雅黑" x="-3.8117676, " y="13.755371, ">
				1
		</text>
		<text transform="translate(549.536 456.685)" font-size="13" font-family="Microsoft YaHei, 微软雅黑" x="-7.6235352, 0, " y="13.755371, ">
				10
		</text>
		<path fill="none" stroke="#00008B" stroke-width="1" stroke-miterlimit="10" stroke-opacity="0.11764706" d="M61.4048 39.7366L61.4048 452.685M549.536 39.7366L549.536 452.685"/>
		<path fill="none" stroke="#D9D9D9" stroke-width="1" stroke-miterlimit="10" d="M61.4048 445.685L61.4048 452.685M549.536 445.685L549.536 452.685"/>
		<text transform="translate(495.391 491)" font-size="13" font-family="Microsoft YaHei, 微软雅黑" x="-46.667969, -39.761719, -34.797852, -27.421875, -19.106445, -11.095703, -3.7197266, 4.2910156, 10.810059, 17.690918, 21.537598, 25.879395, 35.934082, 42.326172, " y="-3.4023438, ">
				Frequency (Hz)
		</text>
		<text transform="translate(57.4048 401.75)" font-size="13" font-family="Microsoft YaHei, 微软雅黑" x="-28.24707, -20.623535, -13.247559, -7.6235352, " y="5.1765137, ">
				3e-3
		</text>
		<text transform="translate(57.4048 357.339)" font-size="13" font-family="Microsoft YaHei, 微软雅黑" x="-28.24707, -20.623535, -13.247559, -7.6235352, " y="5.1765137, ">
				4e-3
		</text>
		<text transform="translate(57.4048 322.891)" font-size="13" font-family="Microsoft YaHei, 微软雅黑" x="-28.24707, -20.623535, -13.247559, -7.6235352, " y="5.1765137, ">
				5e-3
		</text>
		<text transform="translate(57.4048 294.745)" font-size="13" font-family="Microsoft YaHei, 微软雅黑" x="-28.24707, -20.623535, -13.247559, -7.6235352, " y="5.1765137, ">
				6e-3
		</text>
		<text transform="translate(57.4048 270.948)" font-size="13" font-family="Microsoft YaHei, 微软雅黑" x="-28.24707, -20.623535, -13.247559, -7.6235352, " y="5.1765137, ">
				7e-3
		</text>
		<text transform="translate(57.4048 250.334)" font-size="13" font-family="Microsoft YaHei, 微软雅黑" x="-28.24707, -20.623535, -13.247559, -7.6235352, " y="5.1765137, ">
				8e-3
		</text>
		<text transform="translate(57.4048 232.151)" font-size="13" font-family="Microsoft YaHei, 微软雅黑" x="-28.24707, -20.623535, -13.247559, -7.6235352, " y="5.1765137, ">
				9e-3
		</text>
		<text transform="translate(57.4048 215.886)" font-size="13" font-family="Microsoft YaHei, 微软雅黑" x="-28.24707, -20.623535, -13.247559, -7.6235352, " y="5.1765137, ">
				1e-2
		</text>
		<text transform="translate(57.4048 108.881)" font-size="13" font-family="Microsoft YaHei, 微软雅黑" x="-28.24707, -20.623535, -13.247559, -7.6235352, " y="5.1765137, ">
				2e-2
		</text>
		<text transform="translate(57.4048 46.2871)" font-size="13" font-family="Microsoft YaHei, 微软雅黑" x="-28.24707, -20.623535, -13.247559, -7.6235352, " y="5.1765137, ">
				3e-2
		</text>
		<path fill="none" stroke="#00008B" stroke-width="1" stroke-miterlimit="10" stroke-opacity="0.11764706" d="M61.4048 215.886L929.376 215.886"/>
		<path fill="none" stroke="#D9D9D9" stroke-width="1" stroke-miterlimit="10" d="M68.4048 215.886L61.4048 215.886"/>
		<text transform="matrix(0 -1 1 0 12 246.211)" font-size="13" font-family="Microsoft YaHei, 微软雅黑" x="-67.485107, -60.032959, -53.126709, -49.280029, -39.612549, -32.427002, -28.967529, -20.956787, -13.263428, -8.9216309, -0.91088867, 7.0998535, 10.559326, 15.402588, 21.420166, 26.974365, 39.155518, 47.642334, 54.827881, 63.143311, " y="13.755371, ">
				TF Gain (units/mRad)
		</text>
		<clipPath id="cl_13">
			<rect x="61.404785" y="39.736572" width="867.97168" height="412.948"/>
		</clipPath>
		<g clip-path="url(#cl_13)">
			<path fill="none" stroke="#2CA02C" stroke-width="1.5" stroke-linejoin="bevel" d="M-62 111L24 113L85 117L133 122L171 127L204 133L232 139L257 145L279 151L300 160L318 164L335 173L351 177L365 187L379 190L392 199L404 204L416 209L426 217L437 221L447 226L456 234L465 239L474 242L482 248L490 254L498 258L505 262L512 267L519 272L526 277L533 280L539 284L545 288L551 293L557 297L562 300L568 303L573 306L579 310L584 315L589 318L594 321L598 324L603 327L608 330L612 333L616 337L621 340L625 343L629 346L633 348L637 350L641 353L645 356L648 359L652 362L656 365L659 367L663 369L666 371L670 373L673 375L676 378L680 381L683 384L686 386L689 388L692 390L695 392L698 393L701 395L704 397L707 400L709 402L712 404L715 406L718 408L720 410L723 412L726 414L728 415L731 417L733 418L736 420L738 422L740 424L743 426L745 428L748 430L750 431L752 433L754 434L757 436L759 437L761 439L763 440L765 441L768 442L770 443L772 444L774 445L776 446L778 447L780 448L784 451L786 450L788 424L790 355L792 292L794 269L795 265L797 252L799 265L801 195L803 279L804 269L806 215L808 279L810 214L811 229L813 273L815 256L817 226L818 250L820 265L822 266L823 269L825 211L826 280L828 262L830 225L831 313L833 212L834 228L836 324L837 268L839 238L840 260L842 283L843 270L845 284L846 248L848 267L851 255L852 341L854 218L855 235L856 405L858 258L859 253L861 295L862 264L863 280L865 305L866 281L867 260L869 277L870 290L871 365L872 233L874 252L875 432L876 239L878 280L879 327L880 241L881 302L883 337L884 301L885 268L886 286L887 322L889 373L890 263L891 278L892 381L893 243L895 306L896 351L897 226L898 332L899 376L900 315L901 291L903 304L904 340L905 370L906 301L907 299L908 344L909 266L910 343L911 386L912 227L913 360L915 400L916 328L917 323L918 319L919 342L920 378L921 335L922 324L923 349L924 271L925 391L926 402L927 241L928 401L929 374L930 343"/>
			<path fill="none" stroke="#FF0037" stroke-width="1.5" stroke-linejoin="bevel" d="M-62 481L24 363L85 302L133 264L171 237L204 217L232 201L257 189L279 178L300 170L318 162L335 157L351 151L365 148L379 143L392 141L404 138L416 134L426 134L437 131L447 129L456 129L465 127L474 125L482 124L490 125L498 123L505 121L512 121L519 121L526 121L533 120L539 118L545 118L551 119L557 119L562 118L568 117L573 116L579 116L584 117L589 117L594 116L598 116L603 115L608 114L612 115L616 115L621 115L625 115L629 115L633 114L637 113L641 113L645 114L648 114L652 114L656 114L659 114L663 113L666 113L670 112L673 112L676 113L680 113L683 113L686 113L689 113L692 113L695 113L698 112L701 112L704 112L707 112L709 113L712 113L715 113L718 113L723 113L726 112L731 112L733 111L736 111L738 112L743 112L748 112L752 112L757 112L761 112L763 111L768 111L770 110L774 110L776 109L780 109L784 109L786 110L788 120L790 140L792 154L794 197L795 192L797 214L799 223L801 164L803 220L806 194L808 230L810 164L811 195L813 223L815 213L817 196L820 202L822 216L823 219L825 168L826 208L828 204L830 185L831 235L833 161L834 179L836 226L837 204L839 195L840 192L842 187L843 202L845 213L846 176L848 189L851 184L852 238L854 157L855 170L856 233L858 172L859 197L861 201L862 158L863 190L865 210L866 186L867 175L869 176L870 186L871 231L872 158L874 169L875 223L876 146L878 203L880 138L881 186L883 207L884 191L885 172L886 164L887 186L889 217L890 166L891 177L892 197L893 141L895 207L896 197L897 129L898 192L899 198L900 184L901 176L903 171L904 173L905 196L906 183L907 175L909 145L910 210L911 199L912 125L913 193L915 185L916 172L917 188L918 172L919 156L920 192L921 190L922 179L923 171L924 139L925 209L926 193L927 132L928 201L929 166L930 167"/>
		</g>
		<text transform="translate(495.391 8)" font-size="13" font-family="Microsoft YaHei, 微软雅黑" x="-264.45923, -255.76294, -252.63354, -247.22534, -237.51978, -231.5022, -224.12622, -219.16235, -213.14478, -207.73657, -202.58862, -195.21265, -190.70581, -186.19897, -181.23511, -173.85913, -166.97827, -161.57007, -151.66772, -144.29175, -138.27417, -131.19653, -126.35327, -118.08862, -109.78589, -104.37769, -91.377686, -78.377686, -65.377686, -52.377686, -46.969482, -43.51001, -36.324463, -30.306885, -25.463623, -16.31665, -8.6931152, -5.5637207, 2.0598145, 9.6833496, 17.306885, 20.436279, 26.453857, 33.829834, 38.33667, 41.466064, 45.312744, 51.984131, 59.360107, 67.37085, 77.012939, 84.636475, 92.26001, 95.389404, 103.01294, 110.63647, 118.26001, 124.27759, 127.40698, 131.25366, 138.15991, 144.17749, 153.81958, 161.44312, 169.06665, 176.69019, 186.74487, 193.13696, 196.26636, 200.11304, 210.68188, 217.58813, 224.49438, 231.94653, 241.58862, 249.21216, 256.83569, " y="13.755371, ">
				C:\Users\Jeffrey\Desktop\论文计划\lastA4.022.sef, Len=60.005s, Fs=200Hz, NFFT=713
		</text>
		<rect fill="none" stroke="black" stroke-width="1" stroke-miterlimit="10" stroke-opacity="0.73725492" x="61.404785" y="39.736572" width="867.97168" height="412.948"/>
		<rect fill="white" fill-opacity="0.39215687" x="444.45996" y="54.736572" width="469.9165" height="44.31543"/>
		<clipPath id="cl_14">
			<rect x="444.45996" y="54.736572" width="469.9165" height="44.31543"/>
		</clipPath>
		<g clip-path="url(#cl_14)">
			<text transform="translate(489.46 59.7366)" font-size="13" font-family="Microsoft YaHei, 微软雅黑" x="0, 7.4521484, 14.358398, 18.205078, 27.872559, 35.058105, 38.517578, 46.52832, 49.657715, 53.504395, 57.846191, 61.305664, 68.491211, 74.508789, 84.150879, 87.280273, 94.903809, 102.52734, 110.15088, 114.49268, 118.83447, 127.98145, 135.60498, 143.55859, 146.68799, 154.53369, 161.71924, 171.9834, 177.81055, 185.76416, 188.89355, 195.56494, 203.51855, 206.64795, 214.1001, 221.72363, 227.27783, 235.23145, 243.49609, 249.51367, 252.97314, 257.81641, 261.27588, 269.54053, 277.55127, 281.39795, 289.24365, 296.4292, 306.69336, 312.52051, 319.97266, 327.59619, 331.93799, 335.78467, 340.12646, 348.13721, 356.14795, 359.60742, 364.45068, 370.46826, 376.02246, 388.20361, 396.69043, 403.87598, 412.19141, " y="13.755371, ">
					TF Gain: [las~.022](A2P.Yaw_P.LP.T7/Position Yaw_T7) (units/mRad)
			</text>
			<path fill="none" stroke="#2CA02C" stroke-width="1.5" stroke-miterlimit="10" d="M449.46 68.3154L479.46 68.3154"/>
			<text transform="translate(489.46 76.8943)" font-size="13" font-family="Microsoft YaHei, 微软雅黑" x="0, 7.4521484, 14.358398, 18.205078, 27.872559, 35.058105, 38.517578, 46.52832, 49.657715, 53.504395, 57.846191, 61.305664, 68.491211, 74.508789, 84.150879, 87.280273, 94.903809, 102.52734, 110.15088, 114.49268, 118.83447, 127.98145, 135.60498, 143.55859, 146.68799, 154.53369, 161.71924, 171.9834, 177.81055, 185.76416, 188.89355, 198.94824, 206.90186, 210.03125, 217.4834, 225.10693, 230.66113, 238.61475, 246.87939, 252.89697, 256.35645, 261.19971, 264.65918, 272.92383, 280.93457, 284.78125, 292.62695, 299.8125, 310.07666, 315.90381, 323.35596, 330.97949, 335.32129, 339.16797, 343.50977, 351.52051, 359.53125, 362.99072, 367.83398, 373.85156, 379.40576, 391.58691, 400.07373, 407.25928, 415.57471, " y="13.755371, ">
					TF Gain: [las~.022](A2P.Yaw_P.HP.T7/Position Yaw_T7) (units/mRad)
			</text>
			<path fill="none" stroke="#FF0037" stroke-width="1.5" stroke-miterlimit="10" d="M449.46 85.4731L479.46 85.4731"/>
		</g>
	</g>
</svg>
