<?xml version="1.0" encoding="utf-8" ?>
<svg xmlns="http://www.w3.org/2000/svg" xmlns:xlink="http://www.w3.org/1999/xlink" width="945" height="503">
	<rect fill="white" width="945" height="503"/>
	<clipPath id="cl_6">
		<rect width="945" height="503"/>
	</clipPath>
	<g clip-path="url(#cl_6)">
		<path fill="none" stroke="#00008B" stroke-width="1" stroke-miterlimit="10" stroke-opacity="0.078431375" d="M71.6928 39.7366L71.6928 452.685M113.978 39.7366L113.978 452.685M146.778 39.7366L146.778 452.685M173.577 39.7366L173.577 452.685M196.235 39.7366L196.235 452.685M215.863 39.7366L215.863 452.685M233.175 39.7366L233.175 452.685M248.662 39.7366L248.662 452.685M350.546 39.7366L350.546 452.685M410.144 39.7366L410.144 452.685M452.43 39.7366L452.43 452.685M485.229 39.7366L485.229 452.685M512.028 39.7366L512.028 452.685M534.686 39.7366L534.686 452.685M554.314 39.7366L554.314 452.685M571.627 39.7366L571.627 452.685M587.113 39.7366L587.113 452.685M688.997 39.7366L688.997 452.685M748.596 39.7366L748.596 452.685M790.881 39.7366L790.881 452.685M823.681 39.7366L823.681 452.685M850.48 39.7366L850.48 452.685M873.138 39.7366L873.138 452.685M892.765 39.7366L892.765 452.685M910.078 39.7366L910.078 452.685M925.565 39.7366L925.565 452.685"/>
		<path fill="none" stroke="#D9D9D9" stroke-width="1" stroke-miterlimit="10" d="M71.6928 448.685L71.6928 452.685M113.978 448.685L113.978 452.685M146.778 448.685L146.778 452.685M173.577 448.685L173.577 452.685M196.235 448.685L196.235 452.685M215.863 448.685L215.863 452.685M233.175 448.685L233.175 452.685M248.662 448.685L248.662 452.685M350.546 448.685L350.546 452.685M410.144 448.685L410.144 452.685M452.43 448.685L452.43 452.685M485.229 448.685L485.229 452.685M512.028 448.685L512.028 452.685M534.686 448.685L534.686 452.685M554.314 448.685L554.314 452.685M571.627 448.685L571.627 452.685M587.113 448.685L587.113 452.685M688.997 448.685L688.997 452.685M748.596 448.685L748.596 452.685M790.881 448.685L790.881 452.685M823.681 448.685L823.681 452.685M850.48 448.685L850.48 452.685M873.138 448.685L873.138 452.685M892.765 448.685L892.765 452.685M910.078 448.685L910.078 452.685M925.565 448.685L925.565 452.685"/>
		<path fill="none" stroke="#00008B" stroke-width="1" stroke-miterlimit="10" stroke-opacity="0.078431375" d="M61.4048 415.572L925.565 415.572M61.4048 382.488L925.565 382.488M61.4048 359.015L925.565 359.015M61.4048 340.807L925.565 340.807M61.4048 325.931L925.565 325.931M61.4048 313.353L925.565 313.353M61.4048 302.457L925.565 302.457M61.4048 292.847L925.565 292.847M61.4048 284.25L925.565 284.25M61.4048 227.693L925.565 227.693M61.4048 194.609L925.565 194.609M61.4048 171.135L925.565 171.135M61.4048 152.928L925.565 152.928M61.4048 138.051L925.565 138.051M61.4048 125.473L925.565 125.473M61.4048 114.578L925.565 114.578M61.4048 104.967L925.565 104.967M61.4048 96.3703L925.565 96.3703M61.4048 39.7366L925.565 39.7366"/>
		<path fill="none" stroke="#D9D9D9" stroke-width="1" stroke-miterlimit="10" d="M65.4048 415.572L61.4048 415.572M65.4048 382.488L61.4048 382.488M65.4048 359.015L61.4048 359.015M65.4048 340.807L61.4048 340.807M65.4048 325.931L61.4048 325.931M65.4048 313.353L61.4048 313.353M65.4048 302.457L61.4048 302.457M65.4048 292.847L61.4048 292.847M65.4048 284.25L61.4048 284.25M65.4048 227.693L61.4048 227.693M65.4048 194.609L61.4048 194.609M65.4048 171.135L61.4048 171.135M65.4048 152.928L61.4048 152.928M65.4048 138.051L61.4048 138.051M65.4048 125.473L61.4048 125.473M65.4048 114.578L61.4048 114.578M65.4048 104.967L61.4048 104.967M65.4048 96.3703L61.4048 96.3703M65.4048 39.7366L61.4048 39.7366"/>
		<text transform="translate(248.662 456.685)" font-size="13" font-family="Microsoft YaHei, 微软雅黑" x="-3.8117676, " y="13.755371, ">
				1
		</text>
		<text transform="translate(587.113 456.685)" font-size="13" font-family="Microsoft YaHei, 微软雅黑" x="-7.6235352, 0, " y="13.755371, ">
				10
		</text>
		<text transform="translate(925.565 456.685)" font-size="13" font-family="Microsoft YaHei, 微软雅黑" x="-11.435303, -3.8117676, 3.8117676, " y="13.755371, ">
				100
		</text>
		<path fill="none" stroke="#00008B" stroke-width="1" stroke-miterlimit="10" stroke-opacity="0.11764706" d="M248.662 39.7366L248.662 452.685M587.113 39.7366L587.113 452.685M925.565 39.7366L925.565 452.685"/>
		<path fill="none" stroke="#D9D9D9" stroke-width="1" stroke-miterlimit="10" d="M248.662 445.685L248.662 452.685M587.113 445.685L587.113 452.685M925.565 445.685L925.565 452.685"/>
		<text transform="translate(493.485 491)" font-size="13" font-family="Microsoft YaHei, 微软雅黑" x="-46.667969, -39.761719, -34.797852, -27.421875, -19.106445, -11.095703, -3.7197266, 4.2910156, 10.810059, 17.690918, 21.537598, 25.879395, 35.934082, 42.326172, " y="-3.4023438, ">
				Frequency (Hz)
		</text>
		<text transform="translate(57.4048 284.25)" font-size="13" font-family="Microsoft YaHei, 微软雅黑" x="-28.24707, -20.623535, -13.247559, -7.6235352, " y="5.1765137, ">
				1e-3
		</text>
		<text transform="translate(57.4048 96.3703)" font-size="13" font-family="Microsoft YaHei, 微软雅黑" x="-28.24707, -20.623535, -13.247559, -7.6235352, " y="5.1765137, ">
				1e-2
		</text>
		<path fill="none" stroke="#00008B" stroke-width="1" stroke-miterlimit="10" stroke-opacity="0.11764706" d="M61.4048 284.25L925.565 284.25M61.4048 96.3703L925.565 96.3703"/>
		<path fill="none" stroke="#D9D9D9" stroke-width="1" stroke-miterlimit="10" d="M68.4048 284.25L61.4048 284.25M68.4048 96.3703L61.4048 96.3703"/>
		<text transform="matrix(0 -1 1 0 12 246.211)" font-size="13" font-family="Microsoft YaHei, 微软雅黑" x="-67.485107, -60.032959, -53.126709, -49.280029, -39.612549, -32.427002, -28.967529, -20.956787, -13.263428, -8.9216309, -0.91088867, 7.0998535, 10.559326, 15.402588, 21.420166, 26.974365, 39.155518, 47.642334, 54.827881, 63.143311, " y="13.755371, ">
				TF Gain (units/mRad)
		</text>
		<clipPath id="cl_7">
			<rect x="61.404785" y="39.736572" width="864.15991" height="412.948"/>
		</clipPath>
		<g clip-path="url(#cl_7)">
			<path fill="none" stroke="#2CA02C" stroke-width="1.5" stroke-linejoin="bevel" d="M61 40L163 41L223 42L265 44L298 47L325 49L347 52L367 56L384 59L400 62L414 67L427 69L438 74L449 76L459 81L469 83L478 88L486 90L494 93L502 97L509 99L516 102L522 106L529 108L535 110L540 113L546 117L551 119L556 121L561 123L566 126L571 128L575 130L580 132L584 134L588 137L592 139L596 141L600 143L604 144L607 146L611 149L614 151L618 152L621 154L624 155L627 157L630 158L633 160L636 162L639 164L642 165L645 166L648 167L650 169L653 171L656 172L658 174L661 175L663 176L666 177L668 178L670 179L673 181L675 182L677 184L679 185L682 186L684 187L686 188L688 189L690 190L692 191L694 192L696 193L698 195L700 196L702 197L704 198L706 199L709 201L711 202L714 203L716 204L718 205L720 206L723 208L726 210L728 211L731 213L734 214L737 215L740 216L743 217L745 219L748 219L750 221L752 206L754 170L755 137L756 124L758 122L759 116L760 122L761 85L763 130L764 124L765 96L766 130L768 95L769 104L770 127L771 118L772 102L773 114L775 122L777 124L778 94L779 130L780 121L781 101L782 148L784 94L785 103L786 154L787 124L788 108L789 119L790 132L791 125L792 133L793 113L794 123L796 117L797 163L798 97L799 107L800 196L801 119L802 116L803 138L804 122L805 130L806 144L806 131L807 120L808 128L809 136L810 175L811 105L812 115L813 211L814 109L815 130L815 155L816 110L817 142L818 160L819 142L820 124L821 133L821 152L822 180L823 121L824 129L825 184L826 111L826 144L827 168L828 102L829 158L830 181L830 149L831 136L832 143L833 162L833 178L834 141L836 164L836 123L837 163L838 186L839 102L839 173L840 194L841 156L842 153L843 163L844 182L845 159L845 154L846 167L847 126L847 189L848 195L849 110L849 194L850 180L851 163L852 172L852 159L853 154L854 195L854 171L855 174L856 169L856 140L857 203L858 209L858 130L859 196L859 169L860 171L861 209L861 157L862 171L863 199L863 185L864 205L865 181L865 149L866 236L866 224L867 146L868 213L868 165L869 182L869 263L870 169L871 180L871 214L872 201L872 239L873 187L874 168L874 274L875 228L875 172L876 220L876 179L877 183L878 280L878 205L879 183L879 211L880 228L880 259L881 213L882 184L882 278L883 226L883 194L884 262L884 198L885 310L886 245L886 201L887 255L888 217L888 333L889 231L889 203L890 300L890 225L891 216L891 303L892 199L892 210L893 402L893 254L894 230L894 309L895 240L895 453L896 291L896 222L897 328L897 236L898 279L898 322L899 221L899 242L900 351L900 270L901 242L901 353L902 266L902 404L903 439L903 259L904 315L904 261L905 278L905 330L906 271L906 263L906 339L907 313L907 281L908 372L908 297L909 430L909 394L910 282L910 413L911 306L911 336L912 343L912 287L913 332L913 323L914 288L914 358L915 360L915 338L916 335L916 369L917 363L917 412L918 331L918 386L919 339L919 307L919 336L920 299L920 324L921 342L921 347L922 328L922 381L922 349L923 380L923 334L924 338L925 334L925 301"/>
			<path fill="none" stroke="#FF0037" stroke-width="1.5" stroke-linejoin="bevel" d="M61 272L163 237L223 174L265 142L298 122L325 108L347 97L367 89L384 82L400 76L414 72L427 68L438 65L449 62L459 61L469 58L478 57L486 55L494 53L502 53L509 52L516 50L522 50L529 50L535 48L540 48L546 48L551 47L556 46L561 46L566 46L571 46L575 46L580 45L584 45L588 45L592 45L596 45L600 44L604 44L607 44L611 44L614 44L618 44L621 43L624 43L627 43L630 43L633 43L636 43L639 43L642 43L645 42L648 42L653 42L656 43L661 43L663 42L666 42L670 42L673 42L677 42L682 42L686 42L690 42L692 41L696 42L700 42L704 42L707 42L711 41L714 41L718 41L721 42L724 42L728 42L731 41L734 41L737 41L740 40L743 40L747 40L750 40L752 46L754 56L755 64L756 86L758 84L759 96L760 100L761 69L763 98L765 85L766 104L768 69L769 85L770 100L771 95L772 86L775 89L776 97L778 71L779 92L780 90L781 80L782 107L784 67L785 77L786 101L787 90L788 85L790 81L791 89L792 95L793 76L794 82L796 80L797 108L798 65L799 72L800 105L801 73L802 87L804 66L805 83L806 93L806 81L807 75L809 81L810 105L811 66L812 72L813 100L814 60L815 90L816 55L817 81L818 92L819 83L820 73L821 69L821 81L822 97L823 70L824 76L825 87L826 57L826 92L827 87L828 51L829 84L830 87L830 80L831 75L832 73L833 86L834 79L835 75L836 59L837 93L838 87L839 48L839 84L840 80L841 73L842 82L842 73L843 65L844 84L845 77L846 73L847 56L847 93L848 84L849 52L849 89L850 70L852 90L852 69L853 63L854 81L856 73L856 58L857 86L858 81L858 63L859 83L859 62L860 74L861 93L861 64L862 69L863 76L864 87L865 73L865 63L866 81L867 71L868 84L868 60L869 73L869 93L870 63L871 71L871 78L872 72L872 86L873 74L874 65L874 78L875 74L876 86L876 62L877 69L878 93L878 69L879 73L879 76L880 70L880 85L881 80L882 66L882 82L883 75L884 89L884 65L885 71L885 89L886 75L886 80L887 76L888 66L888 92L889 77L889 71L890 83L890 69L891 77L891 85L892 67L892 72L893 87L893 77L894 84L894 79L895 69L895 90L896 81L896 75L897 84L897 68L898 80L898 88L899 71L899 78L900 86L900 74L901 84L901 79L902 71L902 84L903 82L903 79L904 83L904 75L905 81L905 89L906 76L906 86L907 75L907 83L908 86L908 76L909 88L909 84L910 82L910 87L911 78L911 85L912 90L912 78L912 82L913 84L913 79L914 87L914 84L915 78L915 82L916 87L917 81L917 85L918 81L919 87L919 83L920 85L921 83L922 87L923 82L924 85L925 84"/>
		</g>
		<text transform="translate(493.485 8)" font-size="13" font-family="Microsoft YaHei, 微软雅黑" x="-264.45923, -255.76294, -252.63354, -247.22534, -237.51978, -231.5022, -224.12622, -219.16235, -213.14478, -207.73657, -202.58862, -195.21265, -190.70581, -186.19897, -181.23511, -173.85913, -166.97827, -161.57007, -151.66772, -144.29175, -138.27417, -131.19653, -126.35327, -118.08862, -109.78589, -104.37769, -91.377686, -78.377686, -65.377686, -52.377686, -46.969482, -43.51001, -36.324463, -30.306885, -25.463623, -16.31665, -8.6931152, -5.5637207, 2.0598145, 9.6833496, 17.306885, 20.436279, 26.453857, 33.829834, 38.33667, 41.466064, 45.312744, 51.984131, 59.360107, 67.37085, 77.012939, 84.636475, 92.26001, 95.389404, 103.01294, 110.63647, 118.26001, 124.27759, 127.40698, 131.25366, 138.15991, 144.17749, 153.81958, 161.44312, 169.06665, 176.69019, 186.74487, 193.13696, 196.26636, 200.11304, 210.68188, 217.58813, 224.49438, 231.94653, 241.58862, 249.21216, 256.83569, " y="13.755371, ">
				C:\Users\Jeffrey\Desktop\论文计划\lastA4.022.sef, Len=60.005s, Fs=200Hz, NFFT=713
		</text>
		<rect fill="none" stroke="black" stroke-width="1" stroke-miterlimit="10" stroke-opacity="0.73725492" x="61.404785" y="39.736572" width="864.15991" height="412.948"/>
		<rect fill="white" fill-opacity="0.39215687" x="440.64819" y="54.736572" width="469.9165" height="44.31543"/>
		<clipPath id="cl_8">
			<rect x="440.64819" y="54.736572" width="469.9165" height="44.31543"/>
		</clipPath>
		<g clip-path="url(#cl_8)">
			<text transform="translate(485.648 59.7366)" font-size="13" font-family="Microsoft YaHei, 微软雅黑" x="0, 7.4521484, 14.358398, 18.205078, 27.872559, 35.058105, 38.517578, 46.52832, 49.657715, 53.504395, 57.846191, 61.305664, 68.491211, 74.508789, 84.150879, 87.280273, 94.903809, 102.52734, 110.15088, 114.49268, 118.83447, 127.98145, 135.60498, 143.55859, 146.68799, 154.53369, 161.71924, 171.9834, 177.81055, 185.76416, 188.89355, 195.56494, 203.51855, 206.64795, 214.1001, 221.72363, 227.27783, 235.23145, 243.49609, 249.51367, 252.97314, 257.81641, 261.27588, 269.54053, 277.55127, 281.39795, 289.24365, 296.4292, 306.69336, 312.52051, 319.97266, 327.59619, 331.93799, 335.78467, 340.12646, 348.13721, 356.14795, 359.60742, 364.45068, 370.46826, 376.02246, 388.20361, 396.69043, 403.87598, 412.19141, " y="13.755371, ">
					TF Gain: [las~.022](A2P.Yaw_P.LP.T7/Position Yaw_T7) (units/mRad)
			</text>
			<path fill="none" stroke="#2CA02C" stroke-width="1.5" stroke-miterlimit="10" d="M445.648 68.3154L475.648 68.3154"/>
			<text transform="translate(485.648 76.8943)" font-size="13" font-family="Microsoft YaHei, 微软雅黑" x="0, 7.4521484, 14.358398, 18.205078, 27.872559, 35.058105, 38.517578, 46.52832, 49.657715, 53.504395, 57.846191, 61.305664, 68.491211, 74.508789, 84.150879, 87.280273, 94.903809, 102.52734, 110.15088, 114.49268, 118.83447, 127.98145, 135.60498, 143.55859, 146.68799, 154.53369, 161.71924, 171.9834, 177.81055, 185.76416, 188.89355, 198.94824, 206.90186, 210.03125, 217.4834, 225.10693, 230.66113, 238.61475, 246.87939, 252.89697, 256.35645, 261.19971, 264.65918, 272.92383, 280.93457, 284.78125, 292.62695, 299.8125, 310.07666, 315.90381, 323.35596, 330.97949, 335.32129, 339.16797, 343.50977, 351.52051, 359.53125, 362.99072, 367.83398, 373.85156, 379.40576, 391.58691, 400.07373, 407.25928, 415.57471, " y="13.755371, ">
					TF Gain: [las~.022](A2P.Yaw_P.HP.T7/Position Yaw_T7) (units/mRad)
			</text>
			<path fill="none" stroke="#FF0037" stroke-width="1.5" stroke-miterlimit="10" d="M445.648 85.4731L475.648 85.4731"/>
		</g>
	</g>
</svg>
