<?xml version="1.0" encoding="utf-8" ?>
<svg xmlns="http://www.w3.org/2000/svg" xmlns:xlink="http://www.w3.org/1999/xlink" width="945" height="503">
	<rect fill="white" width="945" height="503"/>
	<clipPath id="cl_36">
		<rect width="945" height="503"/>
	</clipPath>
	<g clip-path="url(#cl_36)">
		<path fill="none" stroke="#00008B" stroke-width="1" stroke-miterlimit="10" stroke-opacity="0.078431375" d="M61.4048 39.7366L61.4048 452.685M192.076 39.7366L192.076 452.685M268.514 39.7366L268.514 452.685M322.747 39.7366L322.747 452.685M364.814 39.7366L364.814 452.685M399.185 39.7366L399.185 452.685M428.245 39.7366L428.245 452.685M453.418 39.7366L453.418 452.685M475.623 39.7366L475.623 452.685M495.485 39.7366L495.485 452.685M626.156 39.7366L626.156 452.685M702.594 39.7366L702.594 452.685M756.827 39.7366L756.827 452.685M798.894 39.7366L798.894 452.685M833.265 39.7366L833.265 452.685M862.325 39.7366L862.325 452.685M887.498 39.7366L887.498 452.685M909.703 39.7366L909.703 452.685"/>
		<path fill="none" stroke="#D9D9D9" stroke-width="1" stroke-miterlimit="10" d="M61.4048 448.685L61.4048 452.685M192.076 448.685L192.076 452.685M268.514 448.685L268.514 452.685M322.747 448.685L322.747 452.685M364.814 448.685L364.814 452.685M399.185 448.685L399.185 452.685M428.245 448.685L428.245 452.685M453.418 448.685L453.418 452.685M475.623 448.685L475.623 452.685M495.485 448.685L495.485 452.685M626.156 448.685L626.156 452.685M702.594 448.685L702.594 452.685M756.827 448.685L756.827 452.685M798.894 448.685L798.894 452.685M833.265 448.685L833.265 452.685M862.325 448.685L862.325 452.685M887.498 448.685L887.498 452.685M909.703 448.685L909.703 452.685"/>
		<path fill="none" stroke="#00008B" stroke-width="1" stroke-miterlimit="10" stroke-opacity="0.078431375" d="M61.4048 445.98L929.376 445.98M61.4048 416.306L929.376 416.306M61.4048 395.253L929.376 395.253M61.4048 378.922L929.376 378.922M61.4048 365.579L929.376 365.579M61.4048 354.298L929.376 354.298M61.4048 344.526L929.376 344.526M61.4048 335.906L929.376 335.906M61.4048 328.195L929.376 328.195M61.4048 277.468L929.376 277.468M61.4048 247.795L929.376 247.795M61.4048 226.742L929.376 226.742M61.4048 210.411L929.376 210.411M61.4048 197.068L929.376 197.068M61.4048 185.787L929.376 185.787M61.4048 176.015L929.376 176.015M61.4048 167.395L929.376 167.395M61.4048 159.684L929.376 159.684M61.4048 108.957L929.376 108.957M61.4048 79.2839L929.376 79.2839M61.4048 58.2304L929.376 58.2304M61.4048 41.9L929.376 41.9"/>
		<path fill="none" stroke="#D9D9D9" stroke-width="1" stroke-miterlimit="10" d="M65.4048 445.98L61.4048 445.98M65.4048 416.306L61.4048 416.306M65.4048 395.253L61.4048 395.253M65.4048 378.922L61.4048 378.922M65.4048 365.579L61.4048 365.579M65.4048 354.298L61.4048 354.298M65.4048 344.526L61.4048 344.526M65.4048 335.906L61.4048 335.906M65.4048 328.195L61.4048 328.195M65.4048 277.468L61.4048 277.468M65.4048 247.795L61.4048 247.795M65.4048 226.742L61.4048 226.742M65.4048 210.411L61.4048 210.411M65.4048 197.068L61.4048 197.068M65.4048 185.787L61.4048 185.787M65.4048 176.015L61.4048 176.015M65.4048 167.395L61.4048 167.395M65.4048 159.684L61.4048 159.684M65.4048 108.957L61.4048 108.957M65.4048 79.2839L61.4048 79.2839M65.4048 58.2304L61.4048 58.2304M65.4048 41.9L61.4048 41.9"/>
		<text transform="translate(61.4048 456.685)" font-size="13" font-family="Microsoft YaHei, 微软雅黑" x="-3.8117676, " y="13.755371, ">
				1
		</text>
		<text transform="translate(495.485 456.685)" font-size="13" font-family="Microsoft YaHei, 微软雅黑" x="-7.6235352, 0, " y="13.755371, ">
				10
		</text>
		<path fill="none" stroke="#00008B" stroke-width="1" stroke-miterlimit="10" stroke-opacity="0.11764706" d="M61.4048 39.7366L61.4048 452.685M495.485 39.7366L495.485 452.685"/>
		<path fill="none" stroke="#D9D9D9" stroke-width="1" stroke-miterlimit="10" d="M61.4048 445.685L61.4048 452.685M495.485 445.685L495.485 452.685"/>
		<text transform="translate(495.391 491)" font-size="13" font-family="Microsoft YaHei, 微软雅黑" x="-46.667969, -39.761719, -34.797852, -27.421875, -19.106445, -11.095703, -3.7197266, 4.2910156, 10.810059, 17.690918, 21.537598, 25.879395, 35.934082, 42.326172, " y="-3.4023438, ">
				Frequency (Hz)
		</text>
		<text transform="translate(57.4048 328.195)" font-size="13" font-family="Microsoft YaHei, 微软雅黑" x="-28.24707, -20.623535, -13.247559, -7.6235352, " y="5.1765137, ">
				1e-3
		</text>
		<text transform="translate(57.4048 159.684)" font-size="13" font-family="Microsoft YaHei, 微软雅黑" x="-28.24707, -20.623535, -13.247559, -7.6235352, " y="5.1765137, ">
				1e-2
		</text>
		<path fill="none" stroke="#00008B" stroke-width="1" stroke-miterlimit="10" stroke-opacity="0.11764706" d="M61.4048 328.195L929.376 328.195M61.4048 159.684L929.376 159.684"/>
		<path fill="none" stroke="#D9D9D9" stroke-width="1" stroke-miterlimit="10" d="M68.4048 328.195L61.4048 328.195M68.4048 159.684L61.4048 159.684"/>
		<text transform="matrix(0 -1 1 0 12 246.211)" font-size="13" font-family="Microsoft YaHei, 微软雅黑" x="-67.485107, -60.032959, -53.126709, -49.280029, -39.612549, -32.427002, -28.967529, -20.956787, -13.263428, -8.9216309, -0.91088867, 7.0998535, 10.559326, 15.402588, 21.420166, 26.974365, 39.155518, 47.642334, 54.827881, 63.143311, " y="13.755371, ">
				TF Gain (units/mRad)
		</text>
		<clipPath id="cl_37">
			<rect x="61.404785" y="39.736572" width="867.97168" height="412.948"/>
		</clipPath>
		<g clip-path="url(#cl_37)">
			<path fill="none" stroke="#2CA02C" stroke-width="1.5" stroke-linejoin="bevel" d="M42 112L61 113L79 113L96 113L111 114L125 116L138 117L150 117L161 118L172 118L182 119L192 121L201 122L210 123L218 124L226 125L234 126L242 127L249 128L256 129L262 130L269 132L275 133L281 134L286 136L292 137L298 138L303 139L308 140L313 141L318 142L323 143L327 144L332 145L336 146L341 147L345 148L349 150L353 151L357 152L361 153L365 154L369 155L372 156L376 157L379 158L383 159L386 160L390 161L393 162L396 163L399 164L402 165L405 166L408 166L411 167L414 168L417 169L420 170L423 171L426 172L428 173L431 174L434 175L439 176L441 177L444 178L446 179L449 180L453 181L456 182L458 183L460 184L463 184L465 185L467 186L469 187L474 188L476 189L480 190L482 191L486 192L488 193L492 194L494 195L497 196L499 197L503 198L505 199L508 200L510 201L513 202L515 203L519 204L522 205L525 206L527 207L530 208L533 209L535 210L538 211L541 212L543 213L546 214L549 215L552 216L555 217L558 218L560 219L563 220L566 221L568 222L571 223L573 224L576 225L579 226L582 227L584 228L586 229L589 229L591 230L593 231L596 232L598 233L600 234L602 235L605 236L607 237L610 238L612 239L615 240L618 241L620 242L623 243L626 244L629 245L632 246L634 247L637 248L640 249L642 250L645 251L648 252L650 253L653 254L656 255L658 256L661 256L663 257L665 258L667 259L669 260L672 261L675 262L678 263L681 264L684 265L687 265L689 266L691 267L694 267L696 268L698 269L700 270L701 268L701 272L702 268L703 270L703 274L704 263L704 287L705 264L706 272L706 280L707 264L708 300L708 261L709 291L709 271L710 261L711 305L711 254L712 301L712 268L713 263L714 314L714 258L715 294L715 270L717 298L717 260L718 303L718 262L719 286L720 257L721 318L721 254L722 282L723 258L723 308L724 258L725 288L725 284L726 270L726 311L727 267L727 306L728 278L728 272L729 301L729 260L730 325L731 270L731 267L732 301L732 262L733 318L733 274L734 276L734 292L735 271L735 316L736 270L736 294L737 280L737 271L738 336L739 266L739 301L740 279L740 269L741 333L741 272L742 299L742 282L743 280L743 313L744 276L744 320L745 278L745 284L746 296L746 269L747 343L747 271L748 281L748 294L749 265L749 335L750 274L750 290L751 296L751 280L752 318L752 275L753 304L753 285L754 327L754 271L755 316L755 279L756 331L757 271L757 316L758 287L758 294L759 317L759 278L760 325L760 283L761 307L761 272L762 334L762 273L763 303L763 296L764 271L764 339L765 280L765 310L766 300L766 285L766 313L767 281L767 325L768 288L768 293L769 315L769 275L770 338L770 283L770 287L771 316L771 277L772 334L772 284L773 302L773 315L774 289L774 329L774 288L775 312L775 292L776 343L777 277L777 332L777 298L778 281L778 349L779 284L779 310L779 293L780 323L781 289L781 327L782 285L782 313L783 293L783 369L784 284L784 311L785 283L785 363L786 290L786 319L787 294L787 332L788 295L788 339L788 294L789 298L789 322L790 280L790 342L790 294L791 292L791 325L792 288L792 342L792 298L793 295L793 317L794 289L794 330L794 287L795 312L795 291L796 347L796 290L797 320L797 290L798 365L798 299L799 322L799 297L800 323L800 298L800 363L801 302L802 318L802 287L802 354L803 295L803 311L804 283L804 362L804 301L805 314L805 326L806 300L806 335L806 294L807 339L807 309L808 337L808 284L808 349L809 303L809 317L810 374L810 292L810 334L811 311L811 335L812 304L812 349L812 312L813 325L813 300L814 401L814 299L814 326L815 324L815 285L815 350L816 302L816 331L817 319L817 302L817 349L818 311L818 354L818 313L819 321L819 336L819 298L820 387L820 305L821 328L821 305L821 339L822 302L822 328L823 309L823 364L823 324L824 355L824 301L825 357L825 300L825 331L826 310L826 299L826 352L827 297L827 363L827 328L828 309L828 368L829 316L829 343L829 335L830 314L830 377L830 295L831 321L831 313L832 383L832 305L832 312L833 322L833 401L834 319L834 334L834 302L835 307L835 304L835 394L836 318L836 355L837 309L837 367L837 336L838 297L838 333L838 305L839 347L839 319L839 324L840 307L840 387L840 323L841 365L841 299L842 364L842 305L842 341L843 332L843 364L843 336L844 354L844 307L844 329L845 337L845 384L845 313L846 344L846 329L847 374L847 301L847 326L848 319L848 328L848 308L849 376L849 332L850 360L850 317L850 409L850 343L851 321L851 359L851 299L852 355L852 323L852 345L853 329L853 347L853 318L854 357L854 318L854 396L855 336L855 331L856 471L856 321L856 357L857 350L857 320L857 361L857 341L858 370L858 330L858 374L859 349L859 316L859 386L859 329L860 323L860 303L860 342L860 330L861 310L861 389L862 319L862 362L863 341L863 368L863 320L864 429L864 321L864 365L865 323L865 351L865 337L866 321L866 305L866 356L867 344L867 393L867 333L868 386L868 328L868 355L869 317L869 373L869 320L870 339L870 417L870 355L871 387L871 336L872 376L872 331L872 414L872 368L873 337L873 322L873 375L874 355L874 383L874 347L875 356L875 395L875 362L876 343L876 321L876 362L877 343L877 390L877 333L878 380L878 321L878 371L879 321L879 315L879 349L880 353L880 381L880 311L881 337L881 332L881 414L882 340L882 331L882 364L883 334L883 403L884 365L884 312L884 324L885 330L885 407L886 340L886 429L886 349L887 455L887 376L888 487L888 347L888 359L889 361L889 313L889 395L889 353L890 348L890 339L890 370L891 399L891 336L891 345L892 372L892 351L892 364L893 352L893 387L893 342L894 412L894 380L895 350L895 402L895 375L896 357L896 325L896 393L896 357L897 403L897 360L897 499L898 357L898 351L898 404L899 365L899 323L899 376L899 346L900 381L900 336L900 374L901 386L901 374L901 420L901 392L902 440L902 316L903 363L903 331L903 341L904 349L904 420L904 359L905 363L905 454L905 378L906 414L906 387L906 404L907 378L907 351L908 357L908 411L908 352L909 388L909 328L909 385L910 375L910 468L910 360L911 346L911 342L911 467L911 350L912 373L912 328L912 441L913 357L913 341L913 436L914 465L914 323L915 389L915 360L915 384L916 370L916 327L916 412L916 342L917 332L917 416L917 345L918 409L918 347L918 358L919 409L919 520L919 352L920 405L920 342L920 434L920 343L921 373L921 324L921 387L921 384L922 355L922 326L922 348L923 378L923 328L923 387L923 344L924 346L924 330L924 418L924 369L925 372L925 427L925 350L926 361L926 409L926 372L927 342L927 334L927 452L927 337L928 358L928 433L928 322L929 329L929 476"/>
			<path fill="none" stroke="#FF0037" stroke-width="1.5" stroke-linejoin="bevel" d="M42 213L61 205L79 196L96 188L111 184L125 181L138 176L150 171L161 167L172 163L182 159L192 158L201 156L210 153L218 151L226 148L234 146L242 144L249 142L256 140L262 139L269 138L275 137L281 136L286 135L292 134L298 133L303 132L308 131L313 130L318 129L323 128L327 127L332 127L336 126L341 125L345 125L349 124L353 124L357 124L361 123L365 123L369 123L372 122L376 122L379 121L383 121L386 120L390 120L393 120L396 119L399 119L402 119L405 118L408 118L411 118L414 118L417 117L420 117L423 117L426 117L431 117L434 117L436 116L439 116L444 116L449 116L453 116L456 115L460 115L463 115L467 115L471 115L474 114L478 114L482 114L486 114L490 114L492 113L495 113L499 113L503 113L506 113L510 113L513 113L517 113L520 113L523 113L527 113L530 113L533 112L536 112L539 112L542 112L545 112L548 112L551 112L555 112L558 112L562 112L566 112L568 111L571 111L574 111L577 111L581 111L584 111L588 111L591 111L594 111L597 111L600 111L603 111L606 111L609 111L612 111L615 111L618 111L621 111L624 111L627 111L630 111L633 111L636 111L639 111L642 111L645 111L648 111L651 110L654 110L657 110L660 110L663 110L666 110L669 110L672 110L675 110L678 110L681 110L683 109L686 109L689 109L692 109L695 108L698 108L701 109L704 113L704 108L705 114L706 112L706 109L707 114L708 110L708 116L709 111L710 114L711 109L711 118L712 108L712 115L714 107L714 120L715 109L715 114L716 116L717 110L717 118L718 111L718 117L719 113L720 116L721 108L721 119L722 111L723 119L723 107L724 120L725 113L726 118L726 109L727 116L727 111L728 114L729 112L729 118L730 108L731 117L732 109L732 120L733 109L733 117L734 115L734 111L735 118L735 112L736 118L736 111L737 114L738 111L739 120L739 110L740 116L741 108L741 120L742 111L742 114L743 118L743 111L744 118L744 110L745 116L745 113L746 118L747 109L747 119L748 114L749 120L749 108L750 119L750 114L751 119L752 112L752 118L753 113L753 118L753 114L754 112L754 121L755 110L755 119L756 117L756 111L757 120L757 109L758 118L759 112L759 118L760 111L760 118L761 113L761 118L762 112L762 121L763 113L763 117L764 111L765 121L765 115L766 117L766 112L767 118L767 114L768 118L768 115L769 118L770 109L770 121L770 117L771 120L772 111L772 121L773 116L774 119L774 113L774 119L775 113L775 119L776 116L777 123L777 112L777 120L778 114L779 122L779 113L779 119L780 121L780 114L781 120L781 115L782 119L782 116L783 119L783 112L784 122L784 112L784 118L785 120L785 112L786 121L786 115L786 118L787 120L787 116L788 120L788 115L788 120L789 117L790 121L790 113L790 124L791 117L792 123L792 114L792 122L793 119L793 116L794 123L794 117L794 122L795 117L796 115L796 124L797 115L797 122L797 119L798 114L798 123L799 115L799 120L800 118L800 122L800 116L801 119L802 121L802 113L803 123L803 114L803 119L804 124L804 114L804 123L805 118L806 122L806 119L806 123L807 119L807 122L808 118L808 124L808 116L809 124L810 117L810 125L810 115L811 120L812 116L812 122L813 118L813 122L813 119L814 126L814 116L815 124L815 117L816 126L816 118L817 122L818 124L818 118L818 122L819 118L819 123L820 116L820 125L820 118L821 127L821 117L822 126L822 120L823 124L824 120L824 124L825 118L826 126L826 119L827 126L827 119L827 125L828 120L828 123L829 128L829 123L830 125L830 120L830 128L831 118L831 126L832 115L832 127L832 122L833 125L833 120L834 124L835 122L835 126L835 121L836 127L836 122L837 128L837 123L837 126L838 123L838 127L839 124L839 131L840 126L840 121L840 130L841 121L841 128L841 124L842 121L842 131L842 126L843 121L843 128L844 123L845 128L845 125L845 129L846 126L847 123L847 129L848 126L849 124L849 129L849 126L850 129L850 124L850 133L851 128L851 131L852 122L852 134L852 127L853 130L853 125L853 129L854 126L854 130L854 127L855 132L855 127L855 131L856 125L856 133L857 126L857 130L857 127L858 132L858 127L859 135L860 129L860 133L860 125L861 135L861 129L861 133L862 126L863 136L863 128L863 134L864 129L864 134L864 131L865 139L865 131L866 133L866 136L866 132L868 131L868 136L869 133L869 137L869 129L870 137L870 130L871 139L871 130L872 133L872 129L872 138L873 135L873 138L873 131L874 136L874 139L875 132L875 138L875 135L876 138L876 133L877 138L878 133L878 140L879 138L880 142L880 135L880 141L881 133L881 140L881 135L882 140L882 133L882 142L882 136L883 142L883 137L883 142L884 137L884 141L884 138L885 135L886 139L887 142L887 137L888 142L888 139L888 145L889 143L889 138L890 147L890 137L890 145L891 141L891 147L892 138L892 142L893 146L893 140L893 143L894 140L894 144L895 141L895 147L895 141L896 146L896 139L896 149L896 146L897 140L897 146L898 149L898 140L899 152L899 143L900 145L900 140L900 148L901 145L901 148L901 145L902 153L902 148L903 144L903 148L904 146L904 149L905 145L905 152L906 145L906 149L906 143L907 151L907 147L908 151L908 156L908 148L909 151L910 148L910 153L911 151L912 146L912 155L912 148L913 157L913 146L914 148L914 153L915 149L915 152L916 150L916 146L916 153L917 149L917 156L918 152L919 155L919 147L920 150L920 155L920 150L921 155L921 150L922 159L922 150L923 152L923 149L923 155L924 158L924 146L924 153L925 146L925 158L926 153L927 150L927 157L927 152L928 149L928 156L929 152L929 156"/>
		</g>
		<text transform="translate(495.391 8)" font-size="13" font-family="Microsoft YaHei, 微软雅黑" x="-268.271, -259.57471, -256.44531, -251.03711, -241.33154, -235.31396, -227.93799, -222.97412, -216.95654, -211.54834, -206.40039, -199.02441, -194.51758, -190.01074, -185.04688, -177.6709, -170.79004, -165.38184, -155.47949, -148.10352, -142.08594, -135.0083, -130.16504, -121.90039, -113.59766, -108.18945, -95.189453, -82.189453, -69.189453, -56.189453, -50.78125, -47.321777, -40.13623, -34.118652, -29.275391, -20.128418, -12.504883, -9.3754883, -1.7519531, 5.871582, 13.495117, 16.624512, 22.64209, 30.018066, 34.524902, 37.654297, 41.500977, 48.172363, 55.54834, 63.559082, 73.201172, 80.824707, 88.448242, 91.577637, 99.201172, 106.82471, 114.44824, 120.46582, 123.59521, 127.44189, 134.34814, 140.36572, 150.00781, 157.63135, 165.25488, 172.87842, 182.93311, 189.3252, 192.45459, 196.30127, 206.87012, 213.77637, 220.68262, 228.13477, 237.77686, 245.40039, 253.02393, 260.64746, " y="13.755371, ">
				C:\Users\Jeffrey\Desktop\论文计划\lastA4.022.sef, Len=60.005s, Fs=200Hz, NFFT=2000
		</text>
		<rect fill="none" stroke="black" stroke-width="1" stroke-miterlimit="10" stroke-opacity="0.73725492" x="61.404785" y="39.736572" width="867.97168" height="412.948"/>
		<rect fill="white" fill-opacity="0.39215687" x="444.45996" y="54.736572" width="469.9165" height="44.31543"/>
		<clipPath id="cl_38">
			<rect x="444.45996" y="54.736572" width="469.9165" height="44.31543"/>
		</clipPath>
		<g clip-path="url(#cl_38)">
			<text transform="translate(489.46 59.7366)" font-size="13" font-family="Microsoft YaHei, 微软雅黑" x="0, 7.4521484, 14.358398, 18.205078, 27.872559, 35.058105, 38.517578, 46.52832, 49.657715, 53.504395, 57.846191, 61.305664, 68.491211, 74.508789, 84.150879, 87.280273, 94.903809, 102.52734, 110.15088, 114.49268, 118.83447, 127.98145, 135.60498, 143.55859, 146.68799, 154.53369, 161.71924, 171.9834, 177.81055, 185.76416, 188.89355, 195.56494, 203.51855, 206.64795, 214.1001, 221.72363, 227.27783, 235.23145, 243.49609, 249.51367, 252.97314, 257.81641, 261.27588, 269.54053, 277.55127, 281.39795, 289.24365, 296.4292, 306.69336, 312.52051, 319.97266, 327.59619, 331.93799, 335.78467, 340.12646, 348.13721, 356.14795, 359.60742, 364.45068, 370.46826, 376.02246, 388.20361, 396.69043, 403.87598, 412.19141, " y="13.755371, ">
					TF Gain: [las~.022](A2P.Yaw_P.LP.T7/Position Yaw_T7) (units/mRad)
			</text>
			<path fill="none" stroke="#2CA02C" stroke-width="1.5" stroke-miterlimit="10" d="M449.46 68.3154L479.46 68.3154"/>
			<text transform="translate(489.46 76.8943)" font-size="13" font-family="Microsoft YaHei, 微软雅黑" x="0, 7.4521484, 14.358398, 18.205078, 27.872559, 35.058105, 38.517578, 46.52832, 49.657715, 53.504395, 57.846191, 61.305664, 68.491211, 74.508789, 84.150879, 87.280273, 94.903809, 102.52734, 110.15088, 114.49268, 118.83447, 127.98145, 135.60498, 143.55859, 146.68799, 154.53369, 161.71924, 171.9834, 177.81055, 185.76416, 188.89355, 198.94824, 206.90186, 210.03125, 217.4834, 225.10693, 230.66113, 238.61475, 246.87939, 252.89697, 256.35645, 261.19971, 264.65918, 272.92383, 280.93457, 284.78125, 292.62695, 299.8125, 310.07666, 315.90381, 323.35596, 330.97949, 335.32129, 339.16797, 343.50977, 351.52051, 359.53125, 362.99072, 367.83398, 373.85156, 379.40576, 391.58691, 400.07373, 407.25928, 415.57471, " y="13.755371, ">
					TF Gain: [las~.022](A2P.Yaw_P.HP.T7/Position Yaw_T7) (units/mRad)
			</text>
			<path fill="none" stroke="#FF0037" stroke-width="1.5" stroke-miterlimit="10" d="M449.46 85.4731L479.46 85.4731"/>
		</g>
	</g>
</svg>
