<?xml version="1.0" encoding="utf-8" ?>
<svg xmlns="http://www.w3.org/2000/svg" xmlns:xlink="http://www.w3.org/1999/xlink" width="945" height="503">
	<rect fill="white" width="945" height="503"/>
	<clipPath id="cl_21">
		<rect width="945" height="503"/>
	</clipPath>
	<g clip-path="url(#cl_21)">
		<path fill="none" stroke="#00008B" stroke-width="1" stroke-miterlimit="10" stroke-opacity="0.078431375" d="M61.4048 39.7366L61.4048 452.685M94.4597 39.7366L94.4597 452.685M122.407 39.7366L122.407 452.685M146.616 39.7366L146.616 452.685M167.97 39.7366L167.97 452.685M187.072 39.7366L187.072 452.685M312.74 39.7366L312.74 452.685M386.251 39.7366L386.251 452.685M438.407 39.7366L438.407 452.685M478.863 39.7366L478.863 452.685M511.918 39.7366L511.918 452.685M539.866 39.7366L539.866 452.685M564.075 39.7366L564.075 452.685M585.429 39.7366L585.429 452.685M604.531 39.7366L604.531 452.685M730.198 39.7366L730.198 452.685M803.709 39.7366L803.709 452.685M855.866 39.7366L855.866 452.685M896.322 39.7366L896.322 452.685M929.376 39.7366L929.376 452.685"/>
		<path fill="none" stroke="#D9D9D9" stroke-width="1" stroke-miterlimit="10" d="M61.4048 448.685L61.4048 452.685M94.4597 448.685L94.4597 452.685M122.407 448.685L122.407 452.685M146.616 448.685L146.616 452.685M167.97 448.685L167.97 452.685M187.072 448.685L187.072 452.685M312.74 448.685L312.74 452.685M386.251 448.685L386.251 452.685M438.407 448.685L438.407 452.685M478.863 448.685L478.863 452.685M511.918 448.685L511.918 452.685M539.866 448.685L539.866 452.685M564.075 448.685L564.075 452.685M585.429 448.685L585.429 452.685M604.531 448.685L604.531 452.685M730.198 448.685L730.198 452.685M803.709 448.685L803.709 452.685M855.866 448.685L855.866 452.685M896.322 448.685L896.322 452.685M929.376 448.685L929.376 452.685"/>
		<path fill="none" stroke="#00008B" stroke-width="1" stroke-miterlimit="10" stroke-opacity="0.078431375" d="M61.4048 451.157L929.376 451.157M61.4048 435.681L929.376 435.681M61.4048 424.699L929.376 424.699M61.4048 416.182L929.376 416.182M61.4048 409.223L929.376 409.223M61.4048 403.338L929.376 403.338M61.4048 398.241L929.376 398.241M61.4048 393.746L929.376 393.746M61.4048 389.724L929.376 389.724M61.4048 363.266L929.376 363.266M61.4048 347.789L929.376 347.789M61.4048 336.808L929.376 336.808M61.4048 328.29L929.376 328.29M61.4048 321.331L929.376 321.331M61.4048 315.447L929.376 315.447M61.4048 310.35L929.376 310.35M61.4048 305.854L929.376 305.854M61.4048 301.832L929.376 301.832M61.4048 275.374L929.376 275.374M61.4048 259.897L929.376 259.897M61.4048 248.916L929.376 248.916M61.4048 240.399L929.376 240.399M61.4048 233.439L929.376 233.439M61.4048 227.555L929.376 227.555M61.4048 222.458L929.376 222.458M61.4048 217.962L929.376 217.962M61.4048 213.941L929.376 213.941M61.4048 187.483L929.376 187.483M61.4048 172.006L929.376 172.006M61.4048 161.025L929.376 161.025M61.4048 152.507L929.376 152.507M61.4048 145.548L929.376 145.548M61.4048 139.664L929.376 139.664M61.4048 134.567L929.376 134.567M61.4048 130.071L929.376 130.071M61.4048 126.049L929.376 126.049M61.4048 99.5912L929.376 99.5912M61.4048 84.1142L929.376 84.1142M61.4048 73.1332L929.376 73.1332M61.4048 64.6156L929.376 64.6156M61.4048 57.6562L929.376 57.6562M61.4048 51.7722L929.376 51.7722M61.4048 46.6752L929.376 46.6752M61.4048 42.1793L929.376 42.1793"/>
		<path fill="none" stroke="#D9D9D9" stroke-width="1" stroke-miterlimit="10" d="M65.4048 451.157L61.4048 451.157M65.4048 435.681L61.4048 435.681M65.4048 424.699L61.4048 424.699M65.4048 416.182L61.4048 416.182M65.4048 409.223L61.4048 409.223M65.4048 403.338L61.4048 403.338M65.4048 398.241L61.4048 398.241M65.4048 393.746L61.4048 393.746M65.4048 389.724L61.4048 389.724M65.4048 363.266L61.4048 363.266M65.4048 347.789L61.4048 347.789M65.4048 336.808L61.4048 336.808M65.4048 328.29L61.4048 328.29M65.4048 321.331L61.4048 321.331M65.4048 315.447L61.4048 315.447M65.4048 310.35L61.4048 310.35M65.4048 305.854L61.4048 305.854M65.4048 301.832L61.4048 301.832M65.4048 275.374L61.4048 275.374M65.4048 259.897L61.4048 259.897M65.4048 248.916L61.4048 248.916M65.4048 240.399L61.4048 240.399M65.4048 233.439L61.4048 233.439M65.4048 227.555L61.4048 227.555M65.4048 222.458L61.4048 222.458M65.4048 217.962L61.4048 217.962M65.4048 213.941L61.4048 213.941M65.4048 187.483L61.4048 187.483M65.4048 172.006L61.4048 172.006M65.4048 161.025L61.4048 161.025M65.4048 152.507L61.4048 152.507M65.4048 145.548L61.4048 145.548M65.4048 139.664L61.4048 139.664M65.4048 134.567L61.4048 134.567M65.4048 130.071L61.4048 130.071M65.4048 126.049L61.4048 126.049M65.4048 99.5912L61.4048 99.5912M65.4048 84.1142L61.4048 84.1142M65.4048 73.1332L61.4048 73.1332M65.4048 64.6156L61.4048 64.6156M65.4048 57.6562L61.4048 57.6562M65.4048 51.7722L61.4048 51.7722M65.4048 46.6752L61.4048 46.6752M65.4048 42.1793L61.4048 42.1793"/>
		<text transform="translate(187.072 456.685)" font-size="13" font-family="Microsoft YaHei, 微软雅黑" x="-3.8117676, " y="13.755371, ">
				1
		</text>
		<text transform="translate(604.531 456.685)" font-size="13" font-family="Microsoft YaHei, 微软雅黑" x="-7.6235352, 0, " y="13.755371, ">
				10
		</text>
		<path fill="none" stroke="#00008B" stroke-width="1" stroke-miterlimit="10" stroke-opacity="0.11764706" d="M187.072 39.7366L187.072 452.685M604.531 39.7366L604.531 452.685"/>
		<path fill="none" stroke="#D9D9D9" stroke-width="1" stroke-miterlimit="10" d="M187.072 445.685L187.072 452.685M604.531 445.685L604.531 452.685"/>
		<text transform="translate(495.391 491)" font-size="13" font-family="Microsoft YaHei, 微软雅黑" x="-46.667969, -39.761719, -34.797852, -27.421875, -19.106445, -11.095703, -3.7197266, 4.2910156, 10.810059, 17.690918, 21.537598, 25.879395, 35.934082, 42.326172, " y="-3.4023438, ">
				Frequency (Hz)
		</text>
		<text transform="translate(57.4048 389.724)" font-size="13" font-family="Microsoft YaHei, 微软雅黑" x="-28.24707, -20.623535, -13.247559, -7.6235352, " y="5.1765137, ">
				1e-4
		</text>
		<text transform="translate(57.4048 301.832)" font-size="13" font-family="Microsoft YaHei, 微软雅黑" x="-28.24707, -20.623535, -13.247559, -7.6235352, " y="5.1765137, ">
				1e-3
		</text>
		<text transform="translate(57.4048 213.941)" font-size="13" font-family="Microsoft YaHei, 微软雅黑" x="-28.24707, -20.623535, -13.247559, -7.6235352, " y="5.1765137, ">
				1e-2
		</text>
		<text transform="translate(57.4048 126.049)" font-size="13" font-family="Microsoft YaHei, 微软雅黑" x="-28.24707, -20.623535, -13.247559, -7.6235352, " y="5.1765137, ">
				1e-1
		</text>
		<path fill="none" stroke="#00008B" stroke-width="1" stroke-miterlimit="10" stroke-opacity="0.11764706" d="M61.4048 389.724L929.376 389.724M61.4048 301.832L929.376 301.832M61.4048 213.941L929.376 213.941M61.4048 126.049L929.376 126.049"/>
		<path fill="none" stroke="#D9D9D9" stroke-width="1" stroke-miterlimit="10" d="M68.4048 389.724L61.4048 389.724M68.4048 301.832L61.4048 301.832M68.4048 213.941L61.4048 213.941M68.4048 126.049L61.4048 126.049"/>
		<text transform="matrix(0 -1 1 0 12 246.211)" font-size="13" font-family="Microsoft YaHei, 微软雅黑" x="-61.581787, -54.129639, -47.223389, -43.376709, -33.709229, -26.523682, -23.064209, -15.053467, -7.3601074, -3.0183105, 9.1628418, 21.343994, 26.898193, 34.908936, 42.919678, 46.37915, 51.222412, 57.23999, " y="13.755371, ">
				TF Gain (mm/units)
		</text>
		<clipPath id="cl_22">
			<rect x="61.404785" y="39.736572" width="867.97168" height="412.948"/>
		</clipPath>
		<g clip-path="url(#cl_22)">
			<path fill="none" stroke="#2CA02C" stroke-width="1.5" stroke-linejoin="bevel" d="M21.354 254.724L147.022 170.01L220.532 79.9902L272.689 79.7428L313.145 89.5833L346.2 103.17L374.147 113.262L398.357 124.221L419.711 132.547L438.812 141.254L456.092 148.753L471.867 155.505L486.379 162.026L499.815 167.428L512.323 174.397L524.024 179.486L535.015 184.297L545.378 188.808L555.18 193.22L564.48 197.713L573.326 201.605L581.76 205.626L589.819 210.054L597.535 213.666L604.936 217L612.047 220.571L618.889 223.999L625.482 227.018L631.844 230.661L637.991 233.478L643.935 236.761L649.692 239.934L655.27 242.97L660.683 246.002L665.938 249.457L671.046 252.005L676.013 254.439L680.848 256.748L685.557 260.854L690.147 264.118L694.624 266.818L698.993 269.868L703.259 270.318L707.427 273.86L711.501 279.271L715.486 281.261L719.385 283.982L723.202 287.114L726.941 291.058L730.603 292.849L734.194 295.711L737.714 298.731L741.167 300.494L744.556 304.583L747.883 309.612L751.15 310.7L754.359 316.438L757.512 319.822L760.611 327.104L763.658 327.941L766.655 332.086L769.603 341.035L772.504 350.402L775.359 346.884L778.17 353.25L780.938 366.731L783.664 358.699L786.35 363.494L788.997 408.942L791.606 392.731L794.177 401.596L796.713 396.672L799.214 361.559L801.68 354.731L804.114 360.203L806.515 353.172L808.885 338.45L811.225 330.679L813.534 331.096L815.815 326.602L818.067 317.498L820.292 315.794L822.489 323.129L824.661 338.167L826.806 352.843L828.927 343.965L831.023 337.357L833.095 331.573L835.143 332.277L837.169 326.494L839.172 328.014L841.154 330.247L843.114 324.913L845.053 321.055L846.971 320.292L848.87 321.529L850.749 319.804L852.608 313.824L854.449 315.008L856.271 319.004L858.075 314.251L859.861 311.779L861.63 309.636L863.382 307.762L865.116 308.979L868.537 308.381L871.895 305.658L873.551 304.133L875.191 307.391L876.817 303.131L878.429 300.485L880.026 301.913L883.179 300.255L886.279 301.858L889.326 298.177L892.322 301.22L893.802 299.713L895.271 296.806L896.727 301.16L899.605 298.765L901.027 295.383L903.837 296.82L905.227 300.369L906.605 297.457L907.974 299.04L909.332 293.769L910.68 295.318L913.346 293.622L915.974 292.85L917.273 291.217L918.564 288.361L921.117 287.679L923.635 287.322L926.119 285.609L927.348 287.368L929.782 287.318"/>
		</g>
		<text transform="translate(495.391 8)" font-size="13" font-family="Microsoft YaHei, 微软雅黑" x="-314.81519, -306.1189, -302.9895, -297.5813, -287.87573, -281.85815, -274.48218, -269.51831, -263.50073, -258.09253, -252.94458, -245.5686, -241.06177, -236.55493, -231.59106, -224.21509, -217.33423, -211.92603, -202.02368, -194.64771, -188.63013, -181.55249, -176.70923, -168.44458, -160.14185, -154.73364, -141.73364, -128.73364, -115.73364, -102.73364, -97.325439, -93.865967, -86.68042, -80.662842, -75.81958, -72.690186, -65.06665, -57.443115, -49.81958, -46.690186, -40.672607, -33.296631, -28.789795, -25.6604, -21.813721, -15.142334, -7.7663574, 0.24438477, 9.8864746, 17.51001, 25.133545, 28.262939, 35.886475, 43.51001, 51.133545, 58.75708, 66.380615, 72.398193, 75.527588, 79.374268, 86.280518, 92.298096, 101.94019, 109.56372, 117.18726, 124.81079, 127.94019, 135.56372, 143.18726, 150.81079, 158.43433, 166.05786, 173.6814, 181.30493, 188.92847, 196.552, 204.17554, 211.79907, 219.42261, 229.47729, 235.86938, 238.99878, 242.84546, 253.41431, 260.32056, 267.22681, 274.67896, 284.32104, 291.94458, 299.56812, 307.19165, " y="13.755371, ">
				C:\Users\Jeffrey\Desktop\论文计划\last.301.sef, Len=42.85714s, Fs=716.799987792969Hz, NFFT=1788
		</text>
		<rect fill="none" stroke="black" stroke-width="1" stroke-miterlimit="10" stroke-opacity="0.73725492" x="61.404785" y="39.736572" width="867.97168" height="412.948"/>
		<rect fill="white" fill-opacity="0.39215687" x="492.25781" y="54.736572" width="422.11865" height="27.157715"/>
		<clipPath id="cl_23">
			<rect x="492.25781" y="54.736572" width="422.11865" height="27.157715"/>
		</clipPath>
		<g clip-path="url(#cl_23)">
			<text transform="translate(537.258 59.7366)" font-size="13" font-family="Microsoft YaHei, 微软雅黑" x="0, 7.4521484, 14.358398, 18.205078, 27.872559, 35.058105, 38.517578, 46.52832, 49.657715, 53.504395, 57.846191, 61.305664, 68.491211, 74.508789, 79.352051, 82.481445, 90.10498, 97.728516, 105.35205, 109.69385, 114.03564, 121.98926, 130.25391, 136.27148, 139.73096, 144.57422, 148.03369, 156.29834, 164.30908, 167.43848, 175.82373, 181.37793, 191.28027, 194.73975, 199.24658, 203.75342, 211.12939, 216.09326, 223.46924, 231.47998, 236.32324, 239.78271, 246.96826, 250.42773, 258.38135, 263.34521, 270.72119, 276.73877, 282.75635, 286.60303, 294.98828, 299.33008, 303.17676, 307.51855, 319.69971, 331.88086, 337.43506, 345.4458, 353.45654, 356.91602, 361.75928, 367.77686, " y="13.755371, ">
					TF Gain: [last.301](Position.X/DifferentialPress X) (mm/units)
			</text>
			<path fill="none" stroke="#2CA02C" stroke-width="1.5" stroke-miterlimit="10" d="M497.258 68.3154L527.258 68.3154"/>
		</g>
	</g>
</svg>
