<?xml version="1.0" encoding="utf-8" ?>
<svg xmlns="http://www.w3.org/2000/svg" xmlns:xlink="http://www.w3.org/1999/xlink" width="945" height="503">
	<rect fill="white" width="945" height="503"/>
	<clipPath id="cl_f">
		<rect width="945" height="503"/>
	</clipPath>
	<g clip-path="url(#cl_f)">
		<path fill="none" stroke="#00008B" stroke-width="1" stroke-miterlimit="10" stroke-opacity="0.078431375" d="M61.4048 39.7366L61.4048 452.685M208.347 39.7366L208.347 452.685M294.303 39.7366L294.303 452.685M355.289 39.7366L355.289 452.685M402.594 39.7366L402.594 452.685M441.245 39.7366L441.245 452.685M473.924 39.7366L473.924 452.685M502.231 39.7366L502.231 452.685M527.201 39.7366L527.201 452.685M549.536 39.7366L549.536 452.685M696.479 39.7366L696.479 452.685M782.434 39.7366L782.434 452.685M843.421 39.7366L843.421 452.685M890.726 39.7366L890.726 452.685M929.376 39.7366L929.376 452.685"/>
		<path fill="none" stroke="#D9D9D9" stroke-width="1" stroke-miterlimit="10" d="M61.4048 448.685L61.4048 452.685M208.347 448.685L208.347 452.685M294.303 448.685L294.303 452.685M355.289 448.685L355.289 452.685M402.594 448.685L402.594 452.685M441.245 448.685L441.245 452.685M473.924 448.685L473.924 452.685M502.231 448.685L502.231 452.685M527.201 448.685L527.201 452.685M549.536 448.685L549.536 452.685M696.479 448.685L696.479 452.685M782.434 448.685L782.434 452.685M843.421 448.685L843.421 452.685M890.726 448.685L890.726 452.685M929.376 448.685L929.376 452.685"/>
		<path fill="none" stroke="#00008B" stroke-width="1" stroke-miterlimit="10" stroke-opacity="0.078431375" d="M61.4048 449.009L929.376 449.009M61.4048 442.274L929.376 442.274M61.4048 436.333L929.376 436.333M61.4048 431.019L929.376 431.019M61.4048 396.059L929.376 396.059M61.4048 375.609L929.376 375.609M61.4048 361.099L929.376 361.099M61.4048 349.844L929.376 349.844M61.4048 340.649L929.376 340.649M61.4048 332.874L929.376 332.874M61.4048 326.139L929.376 326.139M61.4048 320.198L929.376 320.198M61.4048 314.884L929.376 314.884M61.4048 279.924L929.376 279.924M61.4048 259.474L929.376 259.474M61.4048 244.964L929.376 244.964M61.4048 233.709L929.376 233.709M61.4048 224.514L929.376 224.514M61.4048 216.739L929.376 216.739M61.4048 210.004L929.376 210.004M61.4048 204.063L929.376 204.063M61.4048 198.749L929.376 198.749M61.4048 163.789L929.376 163.789M61.4048 143.339L929.376 143.339M61.4048 128.829L929.376 128.829M61.4048 117.575L929.376 117.575M61.4048 108.379L929.376 108.379M61.4048 100.604L929.376 100.604M61.4048 93.8691L929.376 93.8691M61.4048 87.9285L929.376 87.9285M61.4048 82.6145L929.376 82.6145M61.4048 47.6544L929.376 47.6544"/>
		<path fill="none" stroke="#D9D9D9" stroke-width="1" stroke-miterlimit="10" d="M65.4048 449.009L61.4048 449.009M65.4048 442.274L61.4048 442.274M65.4048 436.333L61.4048 436.333M65.4048 431.019L61.4048 431.019M65.4048 396.059L61.4048 396.059M65.4048 375.609L61.4048 375.609M65.4048 361.099L61.4048 361.099M65.4048 349.844L61.4048 349.844M65.4048 340.649L61.4048 340.649M65.4048 332.874L61.4048 332.874M65.4048 326.139L61.4048 326.139M65.4048 320.198L61.4048 320.198M65.4048 314.884L61.4048 314.884M65.4048 279.924L61.4048 279.924M65.4048 259.474L61.4048 259.474M65.4048 244.964L61.4048 244.964M65.4048 233.709L61.4048 233.709M65.4048 224.514L61.4048 224.514M65.4048 216.739L61.4048 216.739M65.4048 210.004L61.4048 210.004M65.4048 204.063L61.4048 204.063M65.4048 198.749L61.4048 198.749M65.4048 163.789L61.4048 163.789M65.4048 143.339L61.4048 143.339M65.4048 128.829L61.4048 128.829M65.4048 117.575L61.4048 117.575M65.4048 108.379L61.4048 108.379M65.4048 100.604L61.4048 100.604M65.4048 93.8691L61.4048 93.8691M65.4048 87.9285L61.4048 87.9285M65.4048 82.6145L61.4048 82.6145M65.4048 47.6544L61.4048 47.6544"/>
		<text transform="translate(61.4048 456.685)" font-size="13" font-family="Microsoft YaHei, 微软雅黑" x="-3.8117676, " y="13.755371, ">
				1
		</text>
		<text transform="translate(549.536 456.685)" font-size="13" font-family="Microsoft YaHei, 微软雅黑" x="-7.6235352, 0, " y="13.755371, ">
				10
		</text>
		<path fill="none" stroke="#00008B" stroke-width="1" stroke-miterlimit="10" stroke-opacity="0.11764706" d="M61.4048 39.7366L61.4048 452.685M549.536 39.7366L549.536 452.685"/>
		<path fill="none" stroke="#D9D9D9" stroke-width="1" stroke-miterlimit="10" d="M61.4048 445.685L61.4048 452.685M549.536 445.685L549.536 452.685"/>
		<text transform="translate(495.391 491)" font-size="13" font-family="Microsoft YaHei, 微软雅黑" x="-46.667969, -39.761719, -34.797852, -27.421875, -19.106445, -11.095703, -3.7197266, 4.2910156, 10.810059, 17.690918, 21.537598, 25.879395, 35.934082, 42.326172, " y="-3.4023438, ">
				Frequency (Hz)
		</text>
		<text transform="translate(57.4048 431.019)" font-size="13" font-family="Microsoft YaHei, 微软雅黑" x="-28.24707, -20.623535, -13.247559, -7.6235352, " y="5.1765137, ">
				1e-4
		</text>
		<text transform="translate(57.4048 314.884)" font-size="13" font-family="Microsoft YaHei, 微软雅黑" x="-28.24707, -20.623535, -13.247559, -7.6235352, " y="5.1765137, ">
				1e-3
		</text>
		<text transform="translate(57.4048 198.749)" font-size="13" font-family="Microsoft YaHei, 微软雅黑" x="-28.24707, -20.623535, -13.247559, -7.6235352, " y="5.1765137, ">
				1e-2
		</text>
		<text transform="translate(57.4048 82.6145)" font-size="13" font-family="Microsoft YaHei, 微软雅黑" x="-28.24707, -20.623535, -13.247559, -7.6235352, " y="5.1765137, ">
				1e-1
		</text>
		<path fill="none" stroke="#00008B" stroke-width="1" stroke-miterlimit="10" stroke-opacity="0.11764706" d="M61.4048 431.019L929.376 431.019M61.4048 314.884L929.376 314.884M61.4048 198.749L929.376 198.749M61.4048 82.6145L929.376 82.6145"/>
		<path fill="none" stroke="#D9D9D9" stroke-width="1" stroke-miterlimit="10" d="M68.4048 431.019L61.4048 431.019M68.4048 314.884L61.4048 314.884M68.4048 198.749L61.4048 198.749M68.4048 82.6145L61.4048 82.6145"/>
		<text transform="matrix(0 -1 1 0 12 246.211)" font-size="13" font-family="Microsoft YaHei, 微软雅黑" x="-61.581787, -54.129639, -47.223389, -43.376709, -33.709229, -26.523682, -23.064209, -15.053467, -7.3601074, -3.0183105, 9.1628418, 21.343994, 26.898193, 34.908936, 42.919678, 46.37915, 51.222412, 57.23999, " y="13.755371, ">
				TF Gain (mm/units)
		</text>
		<clipPath id="cl_10">
			<rect x="61.404785" y="39.736572" width="867.97168" height="412.948"/>
		</clipPath>
		<g clip-path="url(#cl_10)">
			<path fill="none" stroke="#2CA02C" stroke-width="1.5" stroke-linejoin="bevel" d="M61.6415 70.7973L208.584 39.7366L294.539 69.4146L355.526 99.4555L402.831 124.408L441.482 144.382L474.16 162.587L502.468 175.663L527.437 189.559L549.773 202.606L569.978 213.101L588.424 224.146L605.392 234.904L621.103 245.517L635.729 253.917L649.41 263.126L662.262 272.837L674.38 283.123L685.841 292.589L696.715 303.132L707.058 312.09L716.92 321.002L726.344 336.534L735.366 350.426L744.02 367.346L752.335 384.792L760.335 410L768.045 452.685L775.484 428.367L782.671 386.682L789.622 363.128L796.353 350.118L802.876 340.6L809.205 363.481L815.35 363.559L821.322 352.144L827.13 345.906L832.784 340.442L838.29 335.621L843.657 332.955L848.892 328.773L854.001 325.097L858.989 323.027L863.863 319.775L868.627 316.839L873.286 313.998L877.845 313.625L882.308 312.723L886.68 312.871L890.962 311.899L895.16 310.269L899.277 308.036L903.315 309.508L907.278 305.479L911.167 303.014L914.987 299.639L918.739 297.983L922.426 295.565L926.05 294.702L929.613 295.124"/>
		</g>
		<text transform="translate(495.391 8)" font-size="13" font-family="Microsoft YaHei, 微软雅黑" x="-311.00342, -302.30713, -299.17773, -293.76953, -284.06396, -278.04639, -270.67041, -265.70654, -259.68896, -254.28076, -249.13281, -241.75684, -237.25, -232.74316, -227.7793, -220.40332, -213.52246, -208.11426, -198.21191, -190.83594, -184.81836, -177.74072, -172.89746, -164.63281, -156.33008, -150.92188, -137.92188, -124.92188, -111.92188, -98.921875, -93.513672, -90.054199, -82.868652, -76.851074, -72.007813, -68.878418, -61.254883, -53.631348, -46.007813, -42.878418, -36.86084, -29.484863, -24.978027, -21.848633, -18.001953, -11.330566, -3.9545898, 4.0561523, 13.698242, 21.321777, 28.945313, 32.074707, 39.698242, 47.321777, 54.945313, 62.568848, 70.192383, 76.209961, 79.339355, 83.186035, 90.092285, 96.109863, 105.75195, 113.37549, 120.99902, 128.62256, 131.75195, 139.37549, 146.99902, 154.62256, 162.24609, 169.86963, 177.49316, 185.1167, 192.74023, 200.36377, 207.9873, 215.61084, 223.23438, 233.28906, 239.68115, 242.81055, 246.65723, 257.22607, 264.13232, 271.03857, 278.49072, 288.13281, 295.75635, 303.37988, " y="13.755371, ">
				C:\Users\Jeffrey\Desktop\论文计划\last.301.sef, Len=42.85714s, Fs=716.799987792969Hz, NFFT=715
		</text>
		<rect fill="none" stroke="black" stroke-width="1" stroke-miterlimit="10" stroke-opacity="0.73725492" x="61.404785" y="39.736572" width="867.97168" height="412.948"/>
		<rect fill="white" fill-opacity="0.39215687" x="492.25781" y="54.736572" width="422.11865" height="27.157715"/>
		<clipPath id="cl_11">
			<rect x="492.25781" y="54.736572" width="422.11865" height="27.157715"/>
		</clipPath>
		<g clip-path="url(#cl_11)">
			<text transform="translate(537.258 59.7366)" font-size="13" font-family="Microsoft YaHei, 微软雅黑" x="0, 7.4521484, 14.358398, 18.205078, 27.872559, 35.058105, 38.517578, 46.52832, 49.657715, 53.504395, 57.846191, 61.305664, 68.491211, 74.508789, 79.352051, 82.481445, 90.10498, 97.728516, 105.35205, 109.69385, 114.03564, 121.98926, 130.25391, 136.27148, 139.73096, 144.57422, 148.03369, 156.29834, 164.30908, 167.43848, 175.82373, 181.37793, 191.28027, 194.73975, 199.24658, 203.75342, 211.12939, 216.09326, 223.46924, 231.47998, 236.32324, 239.78271, 246.96826, 250.42773, 258.38135, 263.34521, 270.72119, 276.73877, 282.75635, 286.60303, 294.98828, 299.33008, 303.17676, 307.51855, 319.69971, 331.88086, 337.43506, 345.4458, 353.45654, 356.91602, 361.75928, 367.77686, " y="13.755371, ">
					TF Gain: [last.301](Position.X/DifferentialPress X) (mm/units)
			</text>
			<path fill="none" stroke="#2CA02C" stroke-width="1.5" stroke-miterlimit="10" d="M497.258 68.3154L527.258 68.3154"/>
		</g>
	</g>
</svg>
