<?xml version="1.0" encoding="utf-8" ?>
<svg xmlns="http://www.w3.org/2000/svg" xmlns:xlink="http://www.w3.org/1999/xlink" width="945" height="503">
	<rect fill="white" width="945" height="503"/>
	<clipPath id="cl_39">
		<rect width="945" height="503"/>
	</clipPath>
	<g clip-path="url(#cl_39)">
		<path fill="none" stroke="#00008B" stroke-width="1" stroke-miterlimit="10" stroke-opacity="0.078431375" d="M61.4048 39.7366L61.4048 452.685M94.4597 39.7366L94.4597 452.685M122.407 39.7366L122.407 452.685M146.616 39.7366L146.616 452.685M167.97 39.7366L167.97 452.685M187.072 39.7366L187.072 452.685M312.74 39.7366L312.74 452.685M386.251 39.7366L386.251 452.685M438.407 39.7366L438.407 452.685M478.863 39.7366L478.863 452.685M511.918 39.7366L511.918 452.685M539.866 39.7366L539.866 452.685M564.075 39.7366L564.075 452.685M585.429 39.7366L585.429 452.685M604.531 39.7366L604.531 452.685M730.198 39.7366L730.198 452.685M803.709 39.7366L803.709 452.685M855.866 39.7366L855.866 452.685M896.322 39.7366L896.322 452.685M929.376 39.7366L929.376 452.685"/>
		<path fill="none" stroke="#D9D9D9" stroke-width="1" stroke-miterlimit="10" d="M61.4048 448.685L61.4048 452.685M94.4597 448.685L94.4597 452.685M122.407 448.685L122.407 452.685M146.616 448.685L146.616 452.685M167.97 448.685L167.97 452.685M187.072 448.685L187.072 452.685M312.74 448.685L312.74 452.685M386.251 448.685L386.251 452.685M438.407 448.685L438.407 452.685M478.863 448.685L478.863 452.685M511.918 448.685L511.918 452.685M539.866 448.685L539.866 452.685M564.075 448.685L564.075 452.685M585.429 448.685L585.429 452.685M604.531 448.685L604.531 452.685M730.198 448.685L730.198 452.685M803.709 448.685L803.709 452.685M855.866 448.685L855.866 452.685M896.322 448.685L896.322 452.685M929.376 448.685L929.376 452.685"/>
		<path fill="none" stroke="#00008B" stroke-width="1" stroke-miterlimit="10" stroke-opacity="0.078431375" d="M61.4048 448.36L929.376 448.36M61.4048 441.035L929.376 441.035M61.4048 434.689L929.376 434.689M61.4048 429.092L929.376 429.092M61.4048 424.085L929.376 424.085M61.4048 391.146L929.376 391.146M61.4048 371.878L929.376 371.878M61.4048 358.207L929.376 358.207M61.4048 347.603L929.376 347.603M61.4048 338.939L929.376 338.939M61.4048 331.613L929.376 331.613M61.4048 325.268L929.376 325.268M61.4048 319.671L929.376 319.671M61.4048 314.664L929.376 314.664M61.4048 281.725L929.376 281.725M61.4048 262.456L929.376 262.456M61.4048 248.785L929.376 248.785M61.4048 238.181L929.376 238.181M61.4048 229.517L929.376 229.517M61.4048 222.192L929.376 222.192M61.4048 215.846L929.376 215.846M61.4048 210.249L929.376 210.249M61.4048 205.242L929.376 205.242M61.4048 172.303L929.376 172.303M61.4048 153.035L929.376 153.035M61.4048 139.364L929.376 139.364M61.4048 128.76L929.376 128.76M61.4048 120.096L929.376 120.096M61.4048 112.77L929.376 112.77M61.4048 106.425L929.376 106.425M61.4048 100.827L929.376 100.827M61.4048 95.8205L929.376 95.8205M61.4048 62.8814L929.376 62.8814M61.4048 43.6132L929.376 43.6132"/>
		<path fill="none" stroke="#D9D9D9" stroke-width="1" stroke-miterlimit="10" d="M65.4048 448.36L61.4048 448.36M65.4048 441.035L61.4048 441.035M65.4048 434.689L61.4048 434.689M65.4048 429.092L61.4048 429.092M65.4048 424.085L61.4048 424.085M65.4048 391.146L61.4048 391.146M65.4048 371.878L61.4048 371.878M65.4048 358.207L61.4048 358.207M65.4048 347.603L61.4048 347.603M65.4048 338.939L61.4048 338.939M65.4048 331.613L61.4048 331.613M65.4048 325.268L61.4048 325.268M65.4048 319.671L61.4048 319.671M65.4048 314.664L61.4048 314.664M65.4048 281.725L61.4048 281.725M65.4048 262.456L61.4048 262.456M65.4048 248.785L61.4048 248.785M65.4048 238.181L61.4048 238.181M65.4048 229.517L61.4048 229.517M65.4048 222.192L61.4048 222.192M65.4048 215.846L61.4048 215.846M65.4048 210.249L61.4048 210.249M65.4048 205.242L61.4048 205.242M65.4048 172.303L61.4048 172.303M65.4048 153.035L61.4048 153.035M65.4048 139.364L61.4048 139.364M65.4048 128.76L61.4048 128.76M65.4048 120.096L61.4048 120.096M65.4048 112.77L61.4048 112.77M65.4048 106.425L61.4048 106.425M65.4048 100.827L61.4048 100.827M65.4048 95.8205L61.4048 95.8205M65.4048 62.8814L61.4048 62.8814M65.4048 43.6132L61.4048 43.6132"/>
		<text transform="translate(187.072 456.685)" font-size="13" font-family="Microsoft YaHei, 微软雅黑" x="-3.8117676, " y="13.755371, ">
				1
		</text>
		<text transform="translate(604.531 456.685)" font-size="13" font-family="Microsoft YaHei, 微软雅黑" x="-7.6235352, 0, " y="13.755371, ">
				10
		</text>
		<path fill="none" stroke="#00008B" stroke-width="1" stroke-miterlimit="10" stroke-opacity="0.11764706" d="M187.072 39.7366L187.072 452.685M604.531 39.7366L604.531 452.685"/>
		<path fill="none" stroke="#D9D9D9" stroke-width="1" stroke-miterlimit="10" d="M187.072 445.685L187.072 452.685M604.531 445.685L604.531 452.685"/>
		<text transform="translate(495.391 491)" font-size="13" font-family="Microsoft YaHei, 微软雅黑" x="-46.667969, -39.761719, -34.797852, -27.421875, -19.106445, -11.095703, -3.7197266, 4.2910156, 10.810059, 17.690918, 21.537598, 25.879395, 35.934082, 42.326172, " y="-3.4023438, ">
				Frequency (Hz)
		</text>
		<text transform="translate(57.4048 424.085)" font-size="13" font-family="Microsoft YaHei, 微软雅黑" x="-28.24707, -20.623535, -13.247559, -7.6235352, " y="5.1765137, ">
				1e-4
		</text>
		<text transform="translate(57.4048 314.664)" font-size="13" font-family="Microsoft YaHei, 微软雅黑" x="-28.24707, -20.623535, -13.247559, -7.6235352, " y="5.1765137, ">
				1e-3
		</text>
		<text transform="translate(57.4048 205.242)" font-size="13" font-family="Microsoft YaHei, 微软雅黑" x="-28.24707, -20.623535, -13.247559, -7.6235352, " y="5.1765137, ">
				1e-2
		</text>
		<text transform="translate(57.4048 95.8205)" font-size="13" font-family="Microsoft YaHei, 微软雅黑" x="-28.24707, -20.623535, -13.247559, -7.6235352, " y="5.1765137, ">
				1e-1
		</text>
		<path fill="none" stroke="#00008B" stroke-width="1" stroke-miterlimit="10" stroke-opacity="0.11764706" d="M61.4048 424.085L929.376 424.085M61.4048 314.664L929.376 314.664M61.4048 205.242L929.376 205.242M61.4048 95.8205L929.376 95.8205"/>
		<path fill="none" stroke="#D9D9D9" stroke-width="1" stroke-miterlimit="10" d="M68.4048 424.085L61.4048 424.085M68.4048 314.664L61.4048 314.664M68.4048 205.242L61.4048 205.242M68.4048 95.8205L61.4048 95.8205"/>
		<text transform="matrix(0 -1 1 0 12 246.211)" font-size="13" font-family="Microsoft YaHei, 微软雅黑" x="-61.581787, -54.129639, -47.223389, -43.376709, -33.709229, -26.523682, -23.064209, -15.053467, -7.3601074, -3.0183105, 9.1628418, 21.343994, 26.898193, 34.908936, 42.919678, 46.37915, 51.222412, 57.23999, " y="13.755371, ">
				TF Gain (mm/units)
		</text>
		<clipPath id="cl_3a">
			<rect x="61.404785" y="39.736572" width="867.97168" height="412.948"/>
		</clipPath>
		<g clip-path="url(#cl_3a)">
			<path fill="none" stroke="#2CA02C" stroke-width="1.5" stroke-linejoin="bevel" d="M61.4048 63L187.072 47.9682L260.583 39.7366L312.74 50.865L353.196 69.2197L386.251 87.307L414.198 100.616L438.407 113.394L459.761 126.258L478.863 135.655L496.143 145.769L511.918 154.882L526.43 163.262L539.866 171.715L552.374 177.74L564.075 184.41L575.066 190.47L585.429 197.632L595.231 203.486L604.531 208.964L613.376 214.231L621.81 219.111L629.87 224.483L637.586 229.7L644.987 234.192L652.097 239.57L658.94 243.972L665.533 249.113L671.895 252.775L678.041 257.124L683.986 260.891L689.742 267.112L695.321 271.65L700.734 275.067L705.989 277.604L711.096 285.904L716.064 289.166L720.899 293.769L725.608 299.499L730.198 303.712L734.675 307.394L739.044 311.665L743.31 316.262L747.478 320.373L751.552 326.51L755.537 337.418L759.436 343.927L763.253 347.669L766.991 349.811L770.654 366.971L774.244 374.361L777.765 380.391L781.218 398.622L784.607 389.467L787.934 416.416L791.201 452.685L794.409 445.859L797.563 418.027L800.662 382.264L803.709 382.541L806.706 376.871L809.654 356.281L812.555 353.264L815.41 348.853L818.221 335.962L820.989 334.01L823.715 348.029L826.401 367.747L829.048 367.451L831.656 358.213L834.228 352.271L836.764 346.12L839.265 348.378L841.731 346.94L844.165 341.294L846.566 339.157L848.936 338.074L851.276 334.58L853.585 329.629L855.866 333.409L858.118 330.37L860.342 327.139L862.54 325.476L864.711 324.25L866.857 322.652L868.977 323.871L871.073 321.229L873.145 318.659L875.194 320.7L877.22 317.001L879.223 314.503L881.205 315.163L883.165 313.852L887.022 315.467L888.921 313.069L890.799 312.299L892.659 313.299L896.322 313.114L899.912 309.831L901.681 305.747L903.432 308.501L905.167 312.84L906.886 309.885L908.588 307.897L911.946 306.58L913.601 303.663L916.868 302.522L918.48 298.58L921.66 297.542L923.23 296.03L926.329 293.57L927.859 296.343L930.881 295.057"/>
		</g>
		<text transform="translate(495.391 8)" font-size="13" font-family="Microsoft YaHei, 微软雅黑" x="-263.69751, -255.00122, -251.87183, -246.46362, -236.75806, -230.74048, -223.3645, -218.40063, -212.38306, -206.97485, -201.8269, -194.45093, -189.94409, -185.43726, -180.47339, -173.09741, -166.21655, -160.80835, -150.90601, -143.53003, -137.51245, -130.43481, -125.59155, -117.3269, -109.02417, -103.61597, -90.615967, -77.615967, -64.615967, -51.615967, -46.207764, -42.748291, -35.562744, -29.545166, -24.701904, -21.57251, -13.948975, -6.3254395, 1.2980957, 4.4274902, 10.445068, 17.821045, 22.327881, 25.457275, 29.303955, 35.975342, 43.351318, 51.362061, 61.00415, 68.627686, 76.251221, 79.380615, 87.00415, 94.627686, 102.25122, 108.2688, 111.39819, 115.24487, 122.15112, 128.1687, 137.81079, 145.43433, 153.05786, 160.6814, 168.30493, 178.35962, 184.75171, 187.8811, 191.72778, 202.29663, 209.20288, 216.10913, 223.56128, 233.20337, 240.8269, 248.45044, 256.07397, " y="13.755371, ">
				C:\Users\Jeffrey\Desktop\论文计划\last.301.sef, Len=42.856s, Fs=1000Hz, NFFT=2000
		</text>
		<rect fill="none" stroke="black" stroke-width="1" stroke-miterlimit="10" stroke-opacity="0.73725492" x="61.404785" y="39.736572" width="867.97168" height="412.948"/>
		<rect fill="white" fill-opacity="0.39215687" x="492.25781" y="54.736572" width="422.11865" height="27.157715"/>
		<clipPath id="cl_3b">
			<rect x="492.25781" y="54.736572" width="422.11865" height="27.157715"/>
		</clipPath>
		<g clip-path="url(#cl_3b)">
			<text transform="translate(537.258 59.7366)" font-size="13" font-family="Microsoft YaHei, 微软雅黑" x="0, 7.4521484, 14.358398, 18.205078, 27.872559, 35.058105, 38.517578, 46.52832, 49.657715, 53.504395, 57.846191, 61.305664, 68.491211, 74.508789, 79.352051, 82.481445, 90.10498, 97.728516, 105.35205, 109.69385, 114.03564, 121.98926, 130.25391, 136.27148, 139.73096, 144.57422, 148.03369, 156.29834, 164.30908, 167.43848, 175.82373, 181.37793, 191.28027, 194.73975, 199.24658, 203.75342, 211.12939, 216.09326, 223.46924, 231.47998, 236.32324, 239.78271, 246.96826, 250.42773, 258.38135, 263.34521, 270.72119, 276.73877, 282.75635, 286.60303, 294.98828, 299.33008, 303.17676, 307.51855, 319.69971, 331.88086, 337.43506, 345.4458, 353.45654, 356.91602, 361.75928, 367.77686, " y="13.755371, ">
					TF Gain: [last.301](Position.X/DifferentialPress X) (mm/units)
			</text>
			<path fill="none" stroke="#2CA02C" stroke-width="1.5" stroke-miterlimit="10" d="M497.258 68.3154L527.258 68.3154"/>
		</g>
	</g>
</svg>
