<?xml version="1.0" encoding="utf-8" ?>
<svg xmlns="http://www.w3.org/2000/svg" xmlns:xlink="http://www.w3.org/1999/xlink" width="945" height="503">
	<rect fill="white" width="945" height="503"/>
	<clipPath id="cl_3">
		<rect width="945" height="503"/>
	</clipPath>
	<g clip-path="url(#cl_3)">
		<path fill="none" stroke="#00008B" stroke-width="1" stroke-miterlimit="10" stroke-opacity="0.078431375" d="M61.4048 39.7366L61.4048 452.685M191.474 39.7366L191.474 452.685M267.559 39.7366L267.559 452.685M321.543 39.7366L321.543 452.685M363.416 39.7366L363.416 452.685M397.628 39.7366L397.628 452.685M426.555 39.7366L426.555 452.685M451.612 39.7366L451.612 452.685M473.714 39.7366L473.714 452.685M493.485 39.7366L493.485 452.685M623.554 39.7366L623.554 452.685M699.639 39.7366L699.639 452.685M753.623 39.7366L753.623 452.685M795.496 39.7366L795.496 452.685M829.708 39.7366L829.708 452.685M858.635 39.7366L858.635 452.685M883.692 39.7366L883.692 452.685M905.794 39.7366L905.794 452.685M925.565 39.7366L925.565 452.685"/>
		<path fill="none" stroke="#D9D9D9" stroke-width="1" stroke-miterlimit="10" d="M61.4048 448.685L61.4048 452.685M191.474 448.685L191.474 452.685M267.559 448.685L267.559 452.685M321.543 448.685L321.543 452.685M363.416 448.685L363.416 452.685M397.628 448.685L397.628 452.685M426.555 448.685L426.555 452.685M451.612 448.685L451.612 452.685M473.714 448.685L473.714 452.685M493.485 448.685L493.485 452.685M623.554 448.685L623.554 452.685M699.639 448.685L699.639 452.685M753.623 448.685L753.623 452.685M795.496 448.685L795.496 452.685M829.708 448.685L829.708 452.685M858.635 448.685L858.635 452.685M883.692 448.685L883.692 452.685M905.794 448.685L905.794 452.685M925.565 448.685L925.565 452.685"/>
		<path fill="none" stroke="#00008B" stroke-width="1" stroke-miterlimit="10" stroke-opacity="0.078431375" d="M61.4048 449.009L925.565 449.009M61.4048 442.274L925.565 442.274M61.4048 436.333L925.565 436.333M61.4048 431.019L925.565 431.019M61.4048 396.059L925.565 396.059M61.4048 375.609L925.565 375.609M61.4048 361.099L925.565 361.099M61.4048 349.844L925.565 349.844M61.4048 340.649L925.565 340.649M61.4048 332.874L925.565 332.874M61.4048 326.139L925.565 326.139M61.4048 320.198L925.565 320.198M61.4048 314.884L925.565 314.884M61.4048 279.924L925.565 279.924M61.4048 259.474L925.565 259.474M61.4048 244.964L925.565 244.964M61.4048 233.709L925.565 233.709M61.4048 224.514L925.565 224.514M61.4048 216.739L925.565 216.739M61.4048 210.004L925.565 210.004M61.4048 204.063L925.565 204.063M61.4048 198.749L925.565 198.749M61.4048 163.789L925.565 163.789M61.4048 143.339L925.565 143.339M61.4048 128.829L925.565 128.829M61.4048 117.575L925.565 117.575M61.4048 108.379L925.565 108.379M61.4048 100.604L925.565 100.604M61.4048 93.8691L925.565 93.8691M61.4048 87.9285L925.565 87.9285M61.4048 82.6145L925.565 82.6145M61.4048 47.6544L925.565 47.6544"/>
		<path fill="none" stroke="#D9D9D9" stroke-width="1" stroke-miterlimit="10" d="M65.4048 449.009L61.4048 449.009M65.4048 442.274L61.4048 442.274M65.4048 436.333L61.4048 436.333M65.4048 431.019L61.4048 431.019M65.4048 396.059L61.4048 396.059M65.4048 375.609L61.4048 375.609M65.4048 361.099L61.4048 361.099M65.4048 349.844L61.4048 349.844M65.4048 340.649L61.4048 340.649M65.4048 332.874L61.4048 332.874M65.4048 326.139L61.4048 326.139M65.4048 320.198L61.4048 320.198M65.4048 314.884L61.4048 314.884M65.4048 279.924L61.4048 279.924M65.4048 259.474L61.4048 259.474M65.4048 244.964L61.4048 244.964M65.4048 233.709L61.4048 233.709M65.4048 224.514L61.4048 224.514M65.4048 216.739L61.4048 216.739M65.4048 210.004L61.4048 210.004M65.4048 204.063L61.4048 204.063M65.4048 198.749L61.4048 198.749M65.4048 163.789L61.4048 163.789M65.4048 143.339L61.4048 143.339M65.4048 128.829L61.4048 128.829M65.4048 117.575L61.4048 117.575M65.4048 108.379L61.4048 108.379M65.4048 100.604L61.4048 100.604M65.4048 93.8691L61.4048 93.8691M65.4048 87.9285L61.4048 87.9285M65.4048 82.6145L61.4048 82.6145M65.4048 47.6544L61.4048 47.6544"/>
		<text transform="translate(61.4048 456.685)" font-size="13" font-family="Microsoft YaHei, 微软雅黑" x="-3.8117676, " y="13.755371, ">
				1
		</text>
		<text transform="translate(493.485 456.685)" font-size="13" font-family="Microsoft YaHei, 微软雅黑" x="-7.6235352, 0, " y="13.755371, ">
				10
		</text>
		<text transform="translate(925.565 456.685)" font-size="13" font-family="Microsoft YaHei, 微软雅黑" x="-11.435303, -3.8117676, 3.8117676, " y="13.755371, ">
				100
		</text>
		<path fill="none" stroke="#00008B" stroke-width="1" stroke-miterlimit="10" stroke-opacity="0.11764706" d="M61.4048 39.7366L61.4048 452.685M493.485 39.7366L493.485 452.685M925.565 39.7366L925.565 452.685"/>
		<path fill="none" stroke="#D9D9D9" stroke-width="1" stroke-miterlimit="10" d="M61.4048 445.685L61.4048 452.685M493.485 445.685L493.485 452.685M925.565 445.685L925.565 452.685"/>
		<text transform="translate(493.485 491)" font-size="13" font-family="Microsoft YaHei, 微软雅黑" x="-46.667969, -39.761719, -34.797852, -27.421875, -19.106445, -11.095703, -3.7197266, 4.2910156, 10.810059, 17.690918, 21.537598, 25.879395, 35.934082, 42.326172, " y="-3.4023438, ">
				Frequency (Hz)
		</text>
		<text transform="translate(57.4048 431.019)" font-size="13" font-family="Microsoft YaHei, 微软雅黑" x="-28.24707, -20.623535, -13.247559, -7.6235352, " y="5.1765137, ">
				1e-4
		</text>
		<text transform="translate(57.4048 314.884)" font-size="13" font-family="Microsoft YaHei, 微软雅黑" x="-28.24707, -20.623535, -13.247559, -7.6235352, " y="5.1765137, ">
				1e-3
		</text>
		<text transform="translate(57.4048 198.749)" font-size="13" font-family="Microsoft YaHei, 微软雅黑" x="-28.24707, -20.623535, -13.247559, -7.6235352, " y="5.1765137, ">
				1e-2
		</text>
		<text transform="translate(57.4048 82.6145)" font-size="13" font-family="Microsoft YaHei, 微软雅黑" x="-28.24707, -20.623535, -13.247559, -7.6235352, " y="5.1765137, ">
				1e-1
		</text>
		<path fill="none" stroke="#00008B" stroke-width="1" stroke-miterlimit="10" stroke-opacity="0.11764706" d="M61.4048 431.019L925.565 431.019M61.4048 314.884L925.565 314.884M61.4048 198.749L925.565 198.749M61.4048 82.6145L925.565 82.6145"/>
		<path fill="none" stroke="#D9D9D9" stroke-width="1" stroke-miterlimit="10" d="M68.4048 431.019L61.4048 431.019M68.4048 314.884L61.4048 314.884M68.4048 198.749L61.4048 198.749M68.4048 82.6145L61.4048 82.6145"/>
		<text transform="matrix(0 -1 1 0 12 246.211)" font-size="13" font-family="Microsoft YaHei, 微软雅黑" x="-61.581787, -54.129639, -47.223389, -43.376709, -33.709229, -26.523682, -23.064209, -15.053467, -7.3601074, -3.0183105, 9.1628418, 21.343994, 26.898193, 34.908936, 42.919678, 46.37915, 51.222412, 57.23999, " y="13.755371, ">
				TF Gain (mm/units)
		</text>
		<clipPath id="cl_4">
			<rect x="61.404785" y="39.736572" width="864.15991" height="412.948"/>
		</clipPath>
		<g clip-path="url(#cl_4)">
			<path fill="none" stroke="#2CA02C" stroke-width="1.5" stroke-linejoin="bevel" d="M61.6143 70.7973L191.683 39.7366L267.769 69.4146L321.752 99.4555L363.625 124.408L397.838 144.382L426.764 162.587L451.821 175.663L473.923 189.559L493.694 202.606L511.579 213.101L527.907 224.146L542.927 234.904L556.833 245.517L569.78 253.917L581.89 263.126L593.267 272.837L603.992 283.123L614.138 292.589L623.763 303.132L632.919 312.09L641.648 321.002L649.99 336.534L657.976 350.426L665.636 367.346L672.996 384.792L680.078 410L686.902 452.685L693.487 428.367L699.849 386.682L706.002 363.128L711.959 350.118L717.734 340.6L723.336 363.481L728.775 363.559L734.061 352.144L739.203 345.906L744.207 340.442L749.081 335.621L753.832 332.955L758.466 328.773L762.988 325.097L767.403 323.027L771.717 319.775L775.934 316.839L780.059 313.998L784.094 313.625L788.045 312.723L791.914 312.871L795.705 311.899L799.421 310.269L803.065 308.036L806.639 309.508L810.147 305.479L813.59 303.014L816.971 299.639L820.293 297.983L823.556 295.565L826.764 294.702L829.918 295.124L833.02 293.458L836.071 291.086L839.073 288.777L842.029 285.287L844.938 285.132L847.803 283.057L850.625 281.051L853.405 280.264L856.144 276.132L858.844 274.723L861.506 272.863L864.13 269.731L866.719 269.585L869.272 267.142L871.791 263.147L874.276 262.546L876.729 260.3L879.151 258.947L881.541 254.281L883.901 250.838L886.232 248.528L888.535 245.983L890.81 244.391L893.057 238.471L895.278 251.467L897.472 292.901L899.642 261.962L901.786 281.889L903.907 266.676L906.003 312.686L908.077 231.423L910.128 255.131L912.156 308.649L914.163 254.29L918.114 253.395L920.059 275.929L921.983 272.007L925.774 278.251"/>
		</g>
		<text transform="translate(493.485 8)" font-size="13" font-family="Microsoft YaHei, 微软雅黑" x="-311.00342, -302.30713, -299.17773, -293.76953, -284.06396, -278.04639, -270.67041, -265.70654, -259.68896, -254.28076, -249.13281, -241.75684, -237.25, -232.74316, -227.7793, -220.40332, -213.52246, -208.11426, -198.21191, -190.83594, -184.81836, -177.74072, -172.89746, -164.63281, -156.33008, -150.92188, -137.92188, -124.92188, -111.92188, -98.921875, -93.513672, -90.054199, -82.868652, -76.851074, -72.007813, -68.878418, -61.254883, -53.631348, -46.007813, -42.878418, -36.86084, -29.484863, -24.978027, -21.848633, -18.001953, -11.330566, -3.9545898, 4.0561523, 13.698242, 21.321777, 28.945313, 32.074707, 39.698242, 47.321777, 54.945313, 62.568848, 70.192383, 76.209961, 79.339355, 83.186035, 90.092285, 96.109863, 105.75195, 113.37549, 120.99902, 128.62256, 131.75195, 139.37549, 146.99902, 154.62256, 162.24609, 169.86963, 177.49316, 185.1167, 192.74023, 200.36377, 207.9873, 215.61084, 223.23438, 233.28906, 239.68115, 242.81055, 246.65723, 257.22607, 264.13232, 271.03857, 278.49072, 288.13281, 295.75635, 303.37988, " y="13.755371, ">
				C:\Users\Jeffrey\Desktop\论文计划\last.301.sef, Len=42.85714s, Fs=716.799987792969Hz, NFFT=715
		</text>
		<rect fill="none" stroke="black" stroke-width="1" stroke-miterlimit="10" stroke-opacity="0.73725492" x="61.404785" y="39.736572" width="864.15991" height="412.948"/>
		<rect fill="white" fill-opacity="0.39215687" x="488.44604" y="54.736572" width="422.11865" height="27.157715"/>
		<clipPath id="cl_5">
			<rect x="488.44604" y="54.736572" width="422.11865" height="27.157715"/>
		</clipPath>
		<g clip-path="url(#cl_5)">
			<text transform="translate(533.446 59.7366)" font-size="13" font-family="Microsoft YaHei, 微软雅黑" x="0, 7.4521484, 14.358398, 18.205078, 27.872559, 35.058105, 38.517578, 46.52832, 49.657715, 53.504395, 57.846191, 61.305664, 68.491211, 74.508789, 79.352051, 82.481445, 90.10498, 97.728516, 105.35205, 109.69385, 114.03564, 121.98926, 130.25391, 136.27148, 139.73096, 144.57422, 148.03369, 156.29834, 164.30908, 167.43848, 175.82373, 181.37793, 191.28027, 194.73975, 199.24658, 203.75342, 211.12939, 216.09326, 223.46924, 231.47998, 236.32324, 239.78271, 246.96826, 250.42773, 258.38135, 263.34521, 270.72119, 276.73877, 282.75635, 286.60303, 294.98828, 299.33008, 303.17676, 307.51855, 319.69971, 331.88086, 337.43506, 345.4458, 353.45654, 356.91602, 361.75928, 367.77686, " y="13.755371, ">
					TF Gain: [last.301](Position.X/DifferentialPress X) (mm/units)
			</text>
			<path fill="none" stroke="#2CA02C" stroke-width="1.5" stroke-miterlimit="10" d="M493.446 68.3154L523.446 68.3154"/>
		</g>
	</g>
</svg>
